%TF.GenerationSoftware,KiCad,Pcbnew,(6.0.10)*%
%TF.CreationDate,2023-02-16T13:15:27+00:00*%
%TF.ProjectId,hyperram-sm-x1,68797065-7272-4616-9d2d-736d2d78312e,1.0*%
%TF.SameCoordinates,Original*%
%TF.FileFunction,Copper,L4,Bot*%
%TF.FilePolarity,Positive*%
%FSLAX46Y46*%
G04 Gerber Fmt 4.6, Leading zero omitted, Abs format (unit mm)*
G04 Created by KiCad (PCBNEW (6.0.10)) date 2023-02-16 13:15:27*
%MOMM*%
%LPD*%
G01*
G04 APERTURE LIST*
%TA.AperFunction,ComponentPad*%
%ADD10R,1.524000X1.524000*%
%TD*%
%TA.AperFunction,ComponentPad*%
%ADD11C,1.524000*%
%TD*%
%TA.AperFunction,ViaPad*%
%ADD12C,0.685800*%
%TD*%
%TA.AperFunction,Conductor*%
%ADD13C,0.200000*%
%TD*%
%TA.AperFunction,Conductor*%
%ADD14C,0.500000*%
%TD*%
G04 APERTURE END LIST*
D10*
%TO.P,J2,1,Pin_1*%
%TO.N,/DQ0*%
X37680000Y-61610000D03*
D11*
%TO.P,J2,2,Pin_2*%
%TO.N,/DQ1*%
X37680000Y-64150000D03*
%TO.P,J2,3,Pin_3*%
%TO.N,/DQ2*%
X37680000Y-66690000D03*
%TO.P,J2,4,Pin_4*%
%TO.N,/DQ3*%
X37680000Y-69230000D03*
%TO.P,J2,5,Pin_5*%
%TO.N,GND*%
X37680000Y-71770000D03*
%TO.P,J2,6,Pin_6*%
%TO.N,+3V3*%
X37680000Y-74310000D03*
%TO.P,J2,7,Pin_7*%
%TO.N,/DQ7*%
X35140000Y-61610000D03*
%TO.P,J2,8,Pin_8*%
%TO.N,/DQ6*%
X35140000Y-64150000D03*
%TO.P,J2,9,Pin_9*%
%TO.N,/DQ5*%
X35140000Y-66690000D03*
%TO.P,J2,10,Pin_10*%
%TO.N,/DQ4*%
X35140000Y-69230000D03*
%TO.P,J2,11,Pin_11*%
%TO.N,GND*%
X35140000Y-71770000D03*
%TO.P,J2,12,Pin_12*%
%TO.N,+3V3*%
X35140000Y-74310000D03*
%TD*%
D10*
%TO.P,J1,1,Pin_1*%
%TO.N,unconnected-(J1-Pad1)*%
X37680000Y-38750000D03*
D11*
%TO.P,J1,2,Pin_2*%
%TO.N,~{CS0}*%
X37680000Y-41290000D03*
%TO.P,J1,3,Pin_3*%
%TO.N,CK*%
X37680000Y-43830000D03*
%TO.P,J1,4,Pin_4*%
%TO.N,~{CK}*%
X37680000Y-46370000D03*
%TO.P,J1,5,Pin_5*%
%TO.N,GND*%
X37680000Y-48910000D03*
%TO.P,J1,6,Pin_6*%
%TO.N,+3V3*%
X37680000Y-51450000D03*
%TO.P,J1,7,Pin_7*%
%TO.N,unconnected-(J1-Pad7)*%
X35140000Y-38750000D03*
%TO.P,J1,8,Pin_8*%
%TO.N,unconnected-(J1-Pad8)*%
X35140000Y-41290000D03*
%TO.P,J1,9,Pin_9*%
%TO.N,~{RESET}*%
X35140000Y-43830000D03*
%TO.P,J1,10,Pin_10*%
%TO.N,RWDS*%
X35140000Y-46370000D03*
%TO.P,J1,11,Pin_11*%
%TO.N,GND*%
X35140000Y-48910000D03*
%TO.P,J1,12,Pin_12*%
%TO.N,+3V3*%
X35140000Y-51450000D03*
%TD*%
D12*
%TO.N,~{CS0}*%
X48120000Y-55230000D03*
X48628000Y-57770000D03*
%TO.N,~{CK}*%
X47104000Y-54214000D03*
X43228800Y-51928000D03*
%TO.N,GND*%
X39345000Y-76714000D03*
X51918000Y-69221000D03*
X40234000Y-42551000D03*
X44945000Y-43419000D03*
X48120000Y-56754000D03*
X39345000Y-36201000D03*
X34519000Y-36328000D03*
X45834000Y-54214000D03*
X44818000Y-62850000D03*
X42786000Y-60310000D03*
X43663000Y-49409000D03*
X34773000Y-76714000D03*
X43790000Y-65792000D03*
X47600000Y-61347000D03*
X47092000Y-71888000D03*
X40742000Y-46488000D03*
X45475000Y-71158000D03*
X40107000Y-69475000D03*
X42520000Y-71507000D03*
X46912500Y-68520500D03*
X39980000Y-40011000D03*
%TO.N,+3V3*%
X38650000Y-53583000D03*
X42100000Y-69758000D03*
%TO.N,~{RESET}*%
X46845307Y-59289307D03*
X43228800Y-53198000D03*
%TO.N,RWDS*%
X45834000Y-57262000D03*
X42676260Y-54398959D03*
%TO.N,VCC*%
X42024000Y-61326000D03*
X48120000Y-58786000D03*
X44625000Y-38583000D03*
X48625000Y-66558000D03*
X44564000Y-63866000D03*
X44564000Y-54214000D03*
%TD*%
D13*
%TO.N,~{CS0}*%
X48715300Y-57682700D02*
X48715300Y-55825300D01*
X48715300Y-55825300D02*
X48120000Y-55230000D01*
X48628000Y-57770000D02*
X48715300Y-57682700D01*
%TO.N,~{CK}*%
X43990800Y-52690000D02*
X45580000Y-52690000D01*
X43228800Y-51928000D02*
X43990800Y-52690000D01*
X45580000Y-52690000D02*
X47104000Y-54214000D01*
%TO.N,GND*%
X42786000Y-60310000D02*
X42786000Y-60818000D01*
X42786000Y-60818000D02*
X44818000Y-62850000D01*
D14*
%TO.N,+3V3*%
X38650000Y-53583000D02*
X38650000Y-59006014D01*
X38650000Y-59006014D02*
X42100000Y-62456014D01*
X42100000Y-62456014D02*
X42100000Y-69758000D01*
D13*
%TO.N,~{RESET}*%
X46845307Y-56749307D02*
X46845307Y-59289307D01*
X43228800Y-53198000D02*
X44498800Y-53198000D01*
X45238700Y-53937900D02*
X45238700Y-55730582D01*
X46342000Y-56246000D02*
X46845307Y-56749307D01*
X45238700Y-55730582D02*
X45754118Y-56246000D01*
X45754118Y-56246000D02*
X46342000Y-56246000D01*
X44498800Y-53198000D02*
X45238700Y-53937900D01*
%TO.N,RWDS*%
X42676260Y-54398959D02*
X42970959Y-54398959D01*
X42970959Y-54398959D02*
X45834000Y-57262000D01*
%TO.N,VCC*%
X44564000Y-63866000D02*
X42024000Y-61326000D01*
%TD*%
%TA.AperFunction,Conductor*%
%TO.N,GND*%
G36*
X53100621Y-35328502D02*
G01*
X53147114Y-35382158D01*
X53158500Y-35434500D01*
X53158500Y-77565500D01*
X53138498Y-77633621D01*
X53084842Y-77680114D01*
X53032500Y-77691500D01*
X33434500Y-77691500D01*
X33366379Y-77671498D01*
X33319886Y-77617842D01*
X33308500Y-77565500D01*
X33308500Y-74294981D01*
X34064425Y-74294981D01*
X34081992Y-74504181D01*
X34139858Y-74705984D01*
X34142673Y-74711461D01*
X34142674Y-74711464D01*
X34233004Y-74887228D01*
X34235819Y-74892705D01*
X34239642Y-74897529D01*
X34239645Y-74897533D01*
X34356110Y-75044473D01*
X34366221Y-75057230D01*
X34526095Y-75193294D01*
X34531473Y-75196300D01*
X34531475Y-75196301D01*
X34575680Y-75221006D01*
X34709353Y-75295713D01*
X34909014Y-75360587D01*
X35117473Y-75385444D01*
X35123608Y-75384972D01*
X35123610Y-75384972D01*
X35320648Y-75369811D01*
X35320652Y-75369810D01*
X35326790Y-75369338D01*
X35528992Y-75312882D01*
X35534496Y-75310102D01*
X35534498Y-75310101D01*
X35710877Y-75221006D01*
X35710879Y-75221005D01*
X35716378Y-75218227D01*
X35881810Y-75088977D01*
X36018986Y-74930057D01*
X36122683Y-74747518D01*
X36188949Y-74548315D01*
X36195300Y-74498040D01*
X36214819Y-74343538D01*
X36214820Y-74343529D01*
X36215261Y-74340035D01*
X36215680Y-74310000D01*
X36214207Y-74294981D01*
X36604425Y-74294981D01*
X36621992Y-74504181D01*
X36679858Y-74705984D01*
X36682673Y-74711461D01*
X36682674Y-74711464D01*
X36773004Y-74887228D01*
X36775819Y-74892705D01*
X36779642Y-74897529D01*
X36779645Y-74897533D01*
X36896110Y-75044473D01*
X36906221Y-75057230D01*
X37066095Y-75193294D01*
X37071473Y-75196300D01*
X37071475Y-75196301D01*
X37115680Y-75221006D01*
X37249353Y-75295713D01*
X37449014Y-75360587D01*
X37657473Y-75385444D01*
X37663608Y-75384972D01*
X37663610Y-75384972D01*
X37860648Y-75369811D01*
X37860652Y-75369810D01*
X37866790Y-75369338D01*
X38068992Y-75312882D01*
X38074496Y-75310102D01*
X38074498Y-75310101D01*
X38250877Y-75221006D01*
X38250879Y-75221005D01*
X38256378Y-75218227D01*
X38421810Y-75088977D01*
X38558986Y-74930057D01*
X38662683Y-74747518D01*
X38728949Y-74548315D01*
X38735300Y-74498040D01*
X38754819Y-74343538D01*
X38754820Y-74343529D01*
X38755261Y-74340035D01*
X38755680Y-74310000D01*
X38735194Y-74101066D01*
X38674516Y-73900090D01*
X38670277Y-73892118D01*
X38578853Y-73720174D01*
X38578851Y-73720172D01*
X38575957Y-73714728D01*
X38526993Y-73654692D01*
X38447166Y-73556814D01*
X38447163Y-73556811D01*
X38443271Y-73552039D01*
X38436185Y-73546177D01*
X38286263Y-73422150D01*
X38286259Y-73422148D01*
X38281513Y-73418221D01*
X38096843Y-73318370D01*
X38004297Y-73289722D01*
X37916002Y-73262390D01*
X37856842Y-73223139D01*
X37828295Y-73158134D01*
X37839424Y-73088015D01*
X37886695Y-73035044D01*
X37920650Y-73020318D01*
X38110715Y-72969391D01*
X38121007Y-72965645D01*
X38312445Y-72876376D01*
X38321931Y-72870898D01*
X38365764Y-72840207D01*
X38374139Y-72829729D01*
X38367071Y-72816281D01*
X37692812Y-72142022D01*
X37678868Y-72134408D01*
X37677035Y-72134539D01*
X37670420Y-72138790D01*
X36992207Y-72817003D01*
X36985777Y-72828777D01*
X36995074Y-72840793D01*
X37038069Y-72870898D01*
X37047555Y-72876376D01*
X37238993Y-72965645D01*
X37249285Y-72969391D01*
X37441316Y-73020845D01*
X37501939Y-73057797D01*
X37532960Y-73121657D01*
X37524532Y-73192152D01*
X37479329Y-73246899D01*
X37444280Y-73263425D01*
X37282961Y-73310904D01*
X37282950Y-73310909D01*
X37277043Y-73312647D01*
X37090997Y-73409909D01*
X36927386Y-73541456D01*
X36792442Y-73702276D01*
X36789478Y-73707668D01*
X36789475Y-73707672D01*
X36785596Y-73714728D01*
X36691304Y-73886245D01*
X36627826Y-74086354D01*
X36627140Y-74092471D01*
X36627139Y-74092475D01*
X36605112Y-74288856D01*
X36604425Y-74294981D01*
X36214207Y-74294981D01*
X36195194Y-74101066D01*
X36134516Y-73900090D01*
X36130277Y-73892118D01*
X36038853Y-73720174D01*
X36038851Y-73720172D01*
X36035957Y-73714728D01*
X35986993Y-73654692D01*
X35907166Y-73556814D01*
X35907163Y-73556811D01*
X35903271Y-73552039D01*
X35896185Y-73546177D01*
X35746263Y-73422150D01*
X35746259Y-73422148D01*
X35741513Y-73418221D01*
X35556843Y-73318370D01*
X35464297Y-73289722D01*
X35376002Y-73262390D01*
X35316842Y-73223139D01*
X35288295Y-73158134D01*
X35299424Y-73088015D01*
X35346695Y-73035044D01*
X35380650Y-73020318D01*
X35570715Y-72969391D01*
X35581007Y-72965645D01*
X35772445Y-72876376D01*
X35781931Y-72870898D01*
X35825764Y-72840207D01*
X35834139Y-72829729D01*
X35827071Y-72816281D01*
X35152812Y-72142022D01*
X35138868Y-72134408D01*
X35137035Y-72134539D01*
X35130420Y-72138790D01*
X34452207Y-72817003D01*
X34445777Y-72828777D01*
X34455074Y-72840793D01*
X34498069Y-72870898D01*
X34507555Y-72876376D01*
X34698993Y-72965645D01*
X34709285Y-72969391D01*
X34901316Y-73020845D01*
X34961939Y-73057797D01*
X34992960Y-73121657D01*
X34984532Y-73192152D01*
X34939329Y-73246899D01*
X34904280Y-73263425D01*
X34742961Y-73310904D01*
X34742950Y-73310909D01*
X34737043Y-73312647D01*
X34550997Y-73409909D01*
X34387386Y-73541456D01*
X34252442Y-73702276D01*
X34249478Y-73707668D01*
X34249475Y-73707672D01*
X34245596Y-73714728D01*
X34151304Y-73886245D01*
X34087826Y-74086354D01*
X34087140Y-74092471D01*
X34087139Y-74092475D01*
X34065112Y-74288856D01*
X34064425Y-74294981D01*
X33308500Y-74294981D01*
X33308500Y-71775475D01*
X33865628Y-71775475D01*
X33884038Y-71985896D01*
X33885941Y-71996691D01*
X33940609Y-72200715D01*
X33944355Y-72211007D01*
X34033623Y-72402441D01*
X34039103Y-72411932D01*
X34069794Y-72455765D01*
X34080271Y-72464140D01*
X34093718Y-72457072D01*
X34767978Y-71782812D01*
X34774356Y-71771132D01*
X35504408Y-71771132D01*
X35504539Y-71772965D01*
X35508790Y-71779580D01*
X36187003Y-72457793D01*
X36198777Y-72464223D01*
X36210793Y-72454926D01*
X36240897Y-72411932D01*
X36246377Y-72402441D01*
X36295805Y-72296443D01*
X36342722Y-72243158D01*
X36411000Y-72223697D01*
X36478960Y-72244239D01*
X36524195Y-72296443D01*
X36573623Y-72402441D01*
X36579103Y-72411932D01*
X36609794Y-72455765D01*
X36620271Y-72464140D01*
X36633718Y-72457072D01*
X37307978Y-71782812D01*
X37314356Y-71771132D01*
X38044408Y-71771132D01*
X38044539Y-71772965D01*
X38048790Y-71779580D01*
X38727003Y-72457793D01*
X38738777Y-72464223D01*
X38750793Y-72454926D01*
X38780897Y-72411932D01*
X38786377Y-72402441D01*
X38875645Y-72211007D01*
X38879391Y-72200715D01*
X38934059Y-71996691D01*
X38935962Y-71985896D01*
X38954372Y-71775475D01*
X38954372Y-71764525D01*
X38935962Y-71554104D01*
X38934059Y-71543309D01*
X38879391Y-71339285D01*
X38875645Y-71328993D01*
X38786377Y-71137559D01*
X38780897Y-71128068D01*
X38750206Y-71084235D01*
X38739729Y-71075860D01*
X38726282Y-71082928D01*
X38052022Y-71757188D01*
X38044408Y-71771132D01*
X37314356Y-71771132D01*
X37315592Y-71768868D01*
X37315461Y-71767035D01*
X37311210Y-71760420D01*
X36632997Y-71082207D01*
X36621223Y-71075777D01*
X36609207Y-71085074D01*
X36579103Y-71128068D01*
X36573623Y-71137559D01*
X36524195Y-71243557D01*
X36477278Y-71296842D01*
X36409000Y-71316303D01*
X36341040Y-71295761D01*
X36295805Y-71243557D01*
X36246377Y-71137559D01*
X36240897Y-71128068D01*
X36210206Y-71084235D01*
X36199729Y-71075860D01*
X36186282Y-71082928D01*
X35512022Y-71757188D01*
X35504408Y-71771132D01*
X34774356Y-71771132D01*
X34775592Y-71768868D01*
X34775461Y-71767035D01*
X34771210Y-71760420D01*
X34092997Y-71082207D01*
X34081223Y-71075777D01*
X34069207Y-71085074D01*
X34039103Y-71128068D01*
X34033623Y-71137559D01*
X33944355Y-71328993D01*
X33940609Y-71339285D01*
X33885941Y-71543309D01*
X33884038Y-71554104D01*
X33865628Y-71764525D01*
X33865628Y-71775475D01*
X33308500Y-71775475D01*
X33308500Y-69214981D01*
X34064425Y-69214981D01*
X34064941Y-69221125D01*
X34078390Y-69381281D01*
X34081992Y-69424181D01*
X34139858Y-69625984D01*
X34142673Y-69631461D01*
X34142674Y-69631464D01*
X34214767Y-69771742D01*
X34235819Y-69812705D01*
X34239642Y-69817529D01*
X34239645Y-69817533D01*
X34327069Y-69927833D01*
X34366221Y-69977230D01*
X34370915Y-69981225D01*
X34487310Y-70080285D01*
X34526095Y-70113294D01*
X34531473Y-70116300D01*
X34531475Y-70116301D01*
X34575680Y-70141006D01*
X34709353Y-70215713D01*
X34903381Y-70278757D01*
X34961986Y-70318829D01*
X34989623Y-70384226D01*
X34977516Y-70454183D01*
X34929510Y-70506489D01*
X34897055Y-70520296D01*
X34709285Y-70570609D01*
X34698993Y-70574355D01*
X34507559Y-70663623D01*
X34498068Y-70669103D01*
X34454235Y-70699794D01*
X34445860Y-70710271D01*
X34452928Y-70723718D01*
X35127188Y-71397978D01*
X35141132Y-71405592D01*
X35142965Y-71405461D01*
X35149580Y-71401210D01*
X35827793Y-70722997D01*
X35834223Y-70711223D01*
X35824926Y-70699207D01*
X35781931Y-70669102D01*
X35772445Y-70663624D01*
X35581007Y-70574355D01*
X35570715Y-70570609D01*
X35377066Y-70518721D01*
X35316443Y-70481769D01*
X35285422Y-70417909D01*
X35293850Y-70347414D01*
X35339053Y-70292667D01*
X35375793Y-70275656D01*
X35528992Y-70232882D01*
X35534496Y-70230102D01*
X35534498Y-70230101D01*
X35710877Y-70141006D01*
X35710879Y-70141005D01*
X35716378Y-70138227D01*
X35881810Y-70008977D01*
X36018986Y-69850057D01*
X36122683Y-69667518D01*
X36188949Y-69468315D01*
X36199944Y-69381281D01*
X36214819Y-69263538D01*
X36214820Y-69263529D01*
X36215261Y-69260035D01*
X36215680Y-69230000D01*
X36214207Y-69214981D01*
X36604425Y-69214981D01*
X36604941Y-69221125D01*
X36618390Y-69381281D01*
X36621992Y-69424181D01*
X36679858Y-69625984D01*
X36682673Y-69631461D01*
X36682674Y-69631464D01*
X36754767Y-69771742D01*
X36775819Y-69812705D01*
X36779642Y-69817529D01*
X36779645Y-69817533D01*
X36867069Y-69927833D01*
X36906221Y-69977230D01*
X36910915Y-69981225D01*
X37027310Y-70080285D01*
X37066095Y-70113294D01*
X37071473Y-70116300D01*
X37071475Y-70116301D01*
X37115680Y-70141006D01*
X37249353Y-70215713D01*
X37443381Y-70278757D01*
X37501986Y-70318829D01*
X37529623Y-70384226D01*
X37517516Y-70454183D01*
X37469510Y-70506489D01*
X37437055Y-70520296D01*
X37249285Y-70570609D01*
X37238993Y-70574355D01*
X37047559Y-70663623D01*
X37038068Y-70669103D01*
X36994235Y-70699794D01*
X36985860Y-70710271D01*
X36992928Y-70723718D01*
X37667188Y-71397978D01*
X37681132Y-71405592D01*
X37682965Y-71405461D01*
X37689580Y-71401210D01*
X38367793Y-70722997D01*
X38374223Y-70711223D01*
X38364926Y-70699207D01*
X38321931Y-70669102D01*
X38312445Y-70663624D01*
X38121007Y-70574355D01*
X38110715Y-70570609D01*
X37917066Y-70518721D01*
X37856443Y-70481769D01*
X37825422Y-70417909D01*
X37833850Y-70347414D01*
X37879053Y-70292667D01*
X37915793Y-70275656D01*
X38068992Y-70232882D01*
X38074496Y-70230102D01*
X38074498Y-70230101D01*
X38250877Y-70141006D01*
X38250879Y-70141005D01*
X38256378Y-70138227D01*
X38421810Y-70008977D01*
X38558986Y-69850057D01*
X38662683Y-69667518D01*
X38728949Y-69468315D01*
X38739944Y-69381281D01*
X38754819Y-69263538D01*
X38754820Y-69263529D01*
X38755261Y-69260035D01*
X38755680Y-69230000D01*
X38735194Y-69021066D01*
X38674516Y-68820090D01*
X38670277Y-68812118D01*
X38578853Y-68640174D01*
X38578851Y-68640172D01*
X38575957Y-68634728D01*
X38526993Y-68574692D01*
X38447166Y-68476814D01*
X38447163Y-68476811D01*
X38443271Y-68472039D01*
X38436185Y-68466177D01*
X38286263Y-68342150D01*
X38286259Y-68342148D01*
X38281513Y-68338221D01*
X38096843Y-68238370D01*
X37896295Y-68176290D01*
X37890170Y-68175646D01*
X37890169Y-68175646D01*
X37693638Y-68154990D01*
X37693637Y-68154990D01*
X37687510Y-68154346D01*
X37599999Y-68162310D01*
X37484577Y-68172814D01*
X37484574Y-68172815D01*
X37478438Y-68173373D01*
X37472532Y-68175111D01*
X37472528Y-68175112D01*
X37325522Y-68218379D01*
X37277043Y-68232647D01*
X37090997Y-68329909D01*
X36927386Y-68461456D01*
X36792442Y-68622276D01*
X36789478Y-68627668D01*
X36789475Y-68627672D01*
X36785596Y-68634728D01*
X36691304Y-68806245D01*
X36627826Y-69006354D01*
X36627140Y-69012471D01*
X36627139Y-69012475D01*
X36605112Y-69208856D01*
X36604425Y-69214981D01*
X36214207Y-69214981D01*
X36195194Y-69021066D01*
X36134516Y-68820090D01*
X36130277Y-68812118D01*
X36038853Y-68640174D01*
X36038851Y-68640172D01*
X36035957Y-68634728D01*
X35986993Y-68574692D01*
X35907166Y-68476814D01*
X35907163Y-68476811D01*
X35903271Y-68472039D01*
X35896185Y-68466177D01*
X35746263Y-68342150D01*
X35746259Y-68342148D01*
X35741513Y-68338221D01*
X35556843Y-68238370D01*
X35356295Y-68176290D01*
X35350170Y-68175646D01*
X35350169Y-68175646D01*
X35153638Y-68154990D01*
X35153637Y-68154990D01*
X35147510Y-68154346D01*
X35059999Y-68162310D01*
X34944577Y-68172814D01*
X34944574Y-68172815D01*
X34938438Y-68173373D01*
X34932532Y-68175111D01*
X34932528Y-68175112D01*
X34785522Y-68218379D01*
X34737043Y-68232647D01*
X34550997Y-68329909D01*
X34387386Y-68461456D01*
X34252442Y-68622276D01*
X34249478Y-68627668D01*
X34249475Y-68627672D01*
X34245596Y-68634728D01*
X34151304Y-68806245D01*
X34087826Y-69006354D01*
X34087140Y-69012471D01*
X34087139Y-69012475D01*
X34065112Y-69208856D01*
X34064425Y-69214981D01*
X33308500Y-69214981D01*
X33308500Y-66674981D01*
X34064425Y-66674981D01*
X34064941Y-66681125D01*
X34080147Y-66862205D01*
X34081992Y-66884181D01*
X34139858Y-67085984D01*
X34142673Y-67091461D01*
X34142674Y-67091464D01*
X34203896Y-67210589D01*
X34235819Y-67272705D01*
X34239642Y-67277529D01*
X34239645Y-67277533D01*
X34356110Y-67424473D01*
X34366221Y-67437230D01*
X34526095Y-67573294D01*
X34531473Y-67576300D01*
X34531475Y-67576301D01*
X34575680Y-67601006D01*
X34709353Y-67675713D01*
X34909014Y-67740587D01*
X35117473Y-67765444D01*
X35123608Y-67764972D01*
X35123610Y-67764972D01*
X35320648Y-67749811D01*
X35320652Y-67749810D01*
X35326790Y-67749338D01*
X35528992Y-67692882D01*
X35534496Y-67690102D01*
X35534498Y-67690101D01*
X35710877Y-67601006D01*
X35710879Y-67601005D01*
X35716378Y-67598227D01*
X35881810Y-67468977D01*
X36018986Y-67310057D01*
X36122683Y-67127518D01*
X36188949Y-66928315D01*
X36214276Y-66727833D01*
X36214819Y-66723538D01*
X36214820Y-66723529D01*
X36215261Y-66720035D01*
X36215680Y-66690000D01*
X36214207Y-66674981D01*
X36604425Y-66674981D01*
X36604941Y-66681125D01*
X36620147Y-66862205D01*
X36621992Y-66884181D01*
X36679858Y-67085984D01*
X36682673Y-67091461D01*
X36682674Y-67091464D01*
X36743896Y-67210589D01*
X36775819Y-67272705D01*
X36779642Y-67277529D01*
X36779645Y-67277533D01*
X36896110Y-67424473D01*
X36906221Y-67437230D01*
X37066095Y-67573294D01*
X37071473Y-67576300D01*
X37071475Y-67576301D01*
X37115680Y-67601006D01*
X37249353Y-67675713D01*
X37449014Y-67740587D01*
X37657473Y-67765444D01*
X37663608Y-67764972D01*
X37663610Y-67764972D01*
X37860648Y-67749811D01*
X37860652Y-67749810D01*
X37866790Y-67749338D01*
X38068992Y-67692882D01*
X38074496Y-67690102D01*
X38074498Y-67690101D01*
X38250877Y-67601006D01*
X38250879Y-67601005D01*
X38256378Y-67598227D01*
X38421810Y-67468977D01*
X38558986Y-67310057D01*
X38662683Y-67127518D01*
X38728949Y-66928315D01*
X38754276Y-66727833D01*
X38754819Y-66723538D01*
X38754820Y-66723529D01*
X38755261Y-66720035D01*
X38755680Y-66690000D01*
X38735194Y-66481066D01*
X38674516Y-66280090D01*
X38670277Y-66272118D01*
X38578853Y-66100174D01*
X38578851Y-66100172D01*
X38575957Y-66094728D01*
X38515235Y-66020275D01*
X38447166Y-65936814D01*
X38447163Y-65936811D01*
X38443271Y-65932039D01*
X38436185Y-65926177D01*
X38286263Y-65802150D01*
X38286259Y-65802148D01*
X38281513Y-65798221D01*
X38096843Y-65698370D01*
X37896295Y-65636290D01*
X37890170Y-65635646D01*
X37890169Y-65635646D01*
X37693638Y-65614990D01*
X37693637Y-65614990D01*
X37687510Y-65614346D01*
X37599999Y-65622310D01*
X37484577Y-65632814D01*
X37484574Y-65632815D01*
X37478438Y-65633373D01*
X37472532Y-65635111D01*
X37472528Y-65635112D01*
X37325522Y-65678379D01*
X37277043Y-65692647D01*
X37090997Y-65789909D01*
X36927386Y-65921456D01*
X36792442Y-66082276D01*
X36789478Y-66087668D01*
X36789475Y-66087672D01*
X36701480Y-66247735D01*
X36691304Y-66266245D01*
X36627826Y-66466354D01*
X36627140Y-66472471D01*
X36627139Y-66472475D01*
X36616005Y-66571742D01*
X36604425Y-66674981D01*
X36214207Y-66674981D01*
X36195194Y-66481066D01*
X36134516Y-66280090D01*
X36130277Y-66272118D01*
X36038853Y-66100174D01*
X36038851Y-66100172D01*
X36035957Y-66094728D01*
X35975235Y-66020275D01*
X35907166Y-65936814D01*
X35907163Y-65936811D01*
X35903271Y-65932039D01*
X35896185Y-65926177D01*
X35746263Y-65802150D01*
X35746259Y-65802148D01*
X35741513Y-65798221D01*
X35556843Y-65698370D01*
X35356295Y-65636290D01*
X35350170Y-65635646D01*
X35350169Y-65635646D01*
X35153638Y-65614990D01*
X35153637Y-65614990D01*
X35147510Y-65614346D01*
X35059999Y-65622310D01*
X34944577Y-65632814D01*
X34944574Y-65632815D01*
X34938438Y-65633373D01*
X34932532Y-65635111D01*
X34932528Y-65635112D01*
X34785522Y-65678379D01*
X34737043Y-65692647D01*
X34550997Y-65789909D01*
X34387386Y-65921456D01*
X34252442Y-66082276D01*
X34249478Y-66087668D01*
X34249475Y-66087672D01*
X34161480Y-66247735D01*
X34151304Y-66266245D01*
X34087826Y-66466354D01*
X34087140Y-66472471D01*
X34087139Y-66472475D01*
X34076005Y-66571742D01*
X34064425Y-66674981D01*
X33308500Y-66674981D01*
X33308500Y-64134981D01*
X34064425Y-64134981D01*
X34067383Y-64170205D01*
X34079549Y-64315085D01*
X34081992Y-64344181D01*
X34102575Y-64415962D01*
X34132003Y-64518589D01*
X34139858Y-64545984D01*
X34142673Y-64551461D01*
X34142674Y-64551464D01*
X34233004Y-64727228D01*
X34235819Y-64732705D01*
X34239642Y-64737529D01*
X34239645Y-64737533D01*
X34356110Y-64884473D01*
X34366221Y-64897230D01*
X34526095Y-65033294D01*
X34531473Y-65036300D01*
X34531475Y-65036301D01*
X34575680Y-65061006D01*
X34709353Y-65135713D01*
X34909014Y-65200587D01*
X35117473Y-65225444D01*
X35123608Y-65224972D01*
X35123610Y-65224972D01*
X35320648Y-65209811D01*
X35320652Y-65209810D01*
X35326790Y-65209338D01*
X35528992Y-65152882D01*
X35534496Y-65150102D01*
X35534498Y-65150101D01*
X35710877Y-65061006D01*
X35710879Y-65061005D01*
X35716378Y-65058227D01*
X35881810Y-64928977D01*
X36018986Y-64770057D01*
X36122683Y-64587518D01*
X36188949Y-64388315D01*
X36214219Y-64188285D01*
X36214819Y-64183538D01*
X36214820Y-64183529D01*
X36215261Y-64180035D01*
X36215680Y-64150000D01*
X36214207Y-64134981D01*
X36604425Y-64134981D01*
X36607383Y-64170205D01*
X36619549Y-64315085D01*
X36621992Y-64344181D01*
X36642575Y-64415962D01*
X36672003Y-64518589D01*
X36679858Y-64545984D01*
X36682673Y-64551461D01*
X36682674Y-64551464D01*
X36773004Y-64727228D01*
X36775819Y-64732705D01*
X36779642Y-64737529D01*
X36779645Y-64737533D01*
X36896110Y-64884473D01*
X36906221Y-64897230D01*
X37066095Y-65033294D01*
X37071473Y-65036300D01*
X37071475Y-65036301D01*
X37115680Y-65061006D01*
X37249353Y-65135713D01*
X37449014Y-65200587D01*
X37657473Y-65225444D01*
X37663608Y-65224972D01*
X37663610Y-65224972D01*
X37860648Y-65209811D01*
X37860652Y-65209810D01*
X37866790Y-65209338D01*
X38068992Y-65152882D01*
X38074496Y-65150102D01*
X38074498Y-65150101D01*
X38250877Y-65061006D01*
X38250879Y-65061005D01*
X38256378Y-65058227D01*
X38421810Y-64928977D01*
X38558986Y-64770057D01*
X38662683Y-64587518D01*
X38728949Y-64388315D01*
X38754219Y-64188285D01*
X38754819Y-64183538D01*
X38754820Y-64183529D01*
X38755261Y-64180035D01*
X38755680Y-64150000D01*
X38735194Y-63941066D01*
X38674516Y-63740090D01*
X38670277Y-63732118D01*
X38578853Y-63560174D01*
X38578851Y-63560172D01*
X38575957Y-63554728D01*
X38526993Y-63494692D01*
X38447166Y-63396814D01*
X38447163Y-63396811D01*
X38443271Y-63392039D01*
X38436185Y-63386177D01*
X38286263Y-63262150D01*
X38286259Y-63262148D01*
X38281513Y-63258221D01*
X38096843Y-63158370D01*
X37896295Y-63096290D01*
X37890170Y-63095646D01*
X37890169Y-63095646D01*
X37693638Y-63074990D01*
X37693637Y-63074990D01*
X37687510Y-63074346D01*
X37599999Y-63082310D01*
X37484577Y-63092814D01*
X37484574Y-63092815D01*
X37478438Y-63093373D01*
X37472532Y-63095111D01*
X37472528Y-63095112D01*
X37325522Y-63138379D01*
X37277043Y-63152647D01*
X37271583Y-63155501D01*
X37271584Y-63155501D01*
X37154251Y-63216841D01*
X37090997Y-63249909D01*
X36927386Y-63381456D01*
X36792442Y-63542276D01*
X36789478Y-63547668D01*
X36789475Y-63547672D01*
X36704427Y-63702375D01*
X36691304Y-63726245D01*
X36627826Y-63926354D01*
X36627140Y-63932471D01*
X36627139Y-63932475D01*
X36605112Y-64128856D01*
X36604425Y-64134981D01*
X36214207Y-64134981D01*
X36195194Y-63941066D01*
X36134516Y-63740090D01*
X36130277Y-63732118D01*
X36038853Y-63560174D01*
X36038851Y-63560172D01*
X36035957Y-63554728D01*
X35986993Y-63494692D01*
X35907166Y-63396814D01*
X35907163Y-63396811D01*
X35903271Y-63392039D01*
X35896185Y-63386177D01*
X35746263Y-63262150D01*
X35746259Y-63262148D01*
X35741513Y-63258221D01*
X35556843Y-63158370D01*
X35356295Y-63096290D01*
X35350170Y-63095646D01*
X35350169Y-63095646D01*
X35153638Y-63074990D01*
X35153637Y-63074990D01*
X35147510Y-63074346D01*
X35059999Y-63082310D01*
X34944577Y-63092814D01*
X34944574Y-63092815D01*
X34938438Y-63093373D01*
X34932532Y-63095111D01*
X34932528Y-63095112D01*
X34785522Y-63138379D01*
X34737043Y-63152647D01*
X34731583Y-63155501D01*
X34731584Y-63155501D01*
X34614251Y-63216841D01*
X34550997Y-63249909D01*
X34387386Y-63381456D01*
X34252442Y-63542276D01*
X34249478Y-63547668D01*
X34249475Y-63547672D01*
X34164427Y-63702375D01*
X34151304Y-63726245D01*
X34087826Y-63926354D01*
X34087140Y-63932471D01*
X34087139Y-63932475D01*
X34065112Y-64128856D01*
X34064425Y-64134981D01*
X33308500Y-64134981D01*
X33308500Y-61594981D01*
X34064425Y-61594981D01*
X34081992Y-61804181D01*
X34139858Y-62005984D01*
X34142673Y-62011461D01*
X34142674Y-62011464D01*
X34233004Y-62187228D01*
X34235819Y-62192705D01*
X34239642Y-62197529D01*
X34239645Y-62197533D01*
X34356110Y-62344473D01*
X34366221Y-62357230D01*
X34370915Y-62361225D01*
X34458000Y-62435340D01*
X34526095Y-62493294D01*
X34531473Y-62496300D01*
X34531475Y-62496301D01*
X34575680Y-62521006D01*
X34709353Y-62595713D01*
X34909014Y-62660587D01*
X35117473Y-62685444D01*
X35123608Y-62684972D01*
X35123610Y-62684972D01*
X35320648Y-62669811D01*
X35320652Y-62669810D01*
X35326790Y-62669338D01*
X35528992Y-62612882D01*
X35534496Y-62610102D01*
X35534498Y-62610101D01*
X35710877Y-62521006D01*
X35710879Y-62521005D01*
X35716378Y-62518227D01*
X35881810Y-62388977D01*
X36018986Y-62230057D01*
X36122683Y-62047518D01*
X36188949Y-61848315D01*
X36195300Y-61798040D01*
X36214819Y-61643538D01*
X36214820Y-61643529D01*
X36215261Y-61640035D01*
X36215680Y-61610000D01*
X36195194Y-61401066D01*
X36134516Y-61200090D01*
X36130277Y-61192118D01*
X36038853Y-61020174D01*
X36038851Y-61020172D01*
X36035957Y-61014728D01*
X35941398Y-60898787D01*
X35907166Y-60856814D01*
X35907163Y-60856811D01*
X35903271Y-60852039D01*
X35896185Y-60846177D01*
X35842984Y-60802165D01*
X36609500Y-60802165D01*
X36609501Y-62417834D01*
X36612700Y-62444733D01*
X36659353Y-62549763D01*
X36740688Y-62630957D01*
X36845800Y-62677426D01*
X36862836Y-62679412D01*
X36868526Y-62680076D01*
X36868531Y-62680076D01*
X36872165Y-62680500D01*
X37672893Y-62680500D01*
X38487834Y-62680499D01*
X38491531Y-62680059D01*
X38491537Y-62680059D01*
X38504449Y-62678523D01*
X38514733Y-62677300D01*
X38619763Y-62630647D01*
X38700957Y-62549312D01*
X38747426Y-62444200D01*
X38749412Y-62427164D01*
X38750076Y-62421474D01*
X38750076Y-62421469D01*
X38750500Y-62417835D01*
X38750499Y-60802166D01*
X38747300Y-60775267D01*
X38700647Y-60670237D01*
X38619312Y-60589043D01*
X38514200Y-60542574D01*
X38497164Y-60540588D01*
X38491474Y-60539924D01*
X38491469Y-60539924D01*
X38487835Y-60539500D01*
X37687107Y-60539500D01*
X36872166Y-60539501D01*
X36868469Y-60539941D01*
X36868463Y-60539941D01*
X36856920Y-60541314D01*
X36845267Y-60542700D01*
X36740237Y-60589353D01*
X36659043Y-60670688D01*
X36612574Y-60775800D01*
X36610659Y-60792228D01*
X36609932Y-60798463D01*
X36609500Y-60802165D01*
X35842984Y-60802165D01*
X35746263Y-60722150D01*
X35746259Y-60722148D01*
X35741513Y-60718221D01*
X35556843Y-60618370D01*
X35356295Y-60556290D01*
X35350170Y-60555646D01*
X35350169Y-60555646D01*
X35153638Y-60534990D01*
X35153637Y-60534990D01*
X35147510Y-60534346D01*
X35067989Y-60541583D01*
X34944577Y-60552814D01*
X34944574Y-60552815D01*
X34938438Y-60553373D01*
X34932532Y-60555111D01*
X34932528Y-60555112D01*
X34817242Y-60589043D01*
X34737043Y-60612647D01*
X34731583Y-60615501D01*
X34731584Y-60615501D01*
X34605672Y-60681326D01*
X34550997Y-60709909D01*
X34387386Y-60841456D01*
X34252442Y-61002276D01*
X34249478Y-61007668D01*
X34249475Y-61007672D01*
X34164427Y-61162375D01*
X34151304Y-61186245D01*
X34087826Y-61386354D01*
X34087140Y-61392471D01*
X34087139Y-61392475D01*
X34081758Y-61440448D01*
X34064425Y-61594981D01*
X33308500Y-61594981D01*
X33308500Y-53576129D01*
X37993852Y-53576129D01*
X38011153Y-53732840D01*
X38065336Y-53880901D01*
X38070080Y-53887961D01*
X38070262Y-53888558D01*
X38073021Y-53893972D01*
X38072061Y-53894461D01*
X38091500Y-53958238D01*
X38091500Y-58990852D01*
X38091389Y-58996128D01*
X38088751Y-59059068D01*
X38094576Y-59083901D01*
X38098851Y-59102128D01*
X38101013Y-59113797D01*
X38107016Y-59157618D01*
X38110428Y-59165501D01*
X38110428Y-59165503D01*
X38113139Y-59171768D01*
X38120174Y-59193040D01*
X38121731Y-59199681D01*
X38121732Y-59199685D01*
X38123693Y-59208044D01*
X38132460Y-59223991D01*
X38145003Y-59246807D01*
X38150225Y-59257467D01*
X38167788Y-59298052D01*
X38173191Y-59304725D01*
X38173194Y-59304729D01*
X38177489Y-59310033D01*
X38189981Y-59328623D01*
X38194016Y-59335962D01*
X38197411Y-59342137D01*
X38201723Y-59347132D01*
X38201726Y-59347136D01*
X38203009Y-59348622D01*
X38204522Y-59350374D01*
X38229471Y-59375323D01*
X38238296Y-59385123D01*
X38264086Y-59416971D01*
X38271088Y-59421947D01*
X38271089Y-59421948D01*
X38279770Y-59428117D01*
X38295876Y-59441728D01*
X41504595Y-62650448D01*
X41538621Y-62712760D01*
X41541500Y-62739543D01*
X41541500Y-69381281D01*
X41526544Y-69440823D01*
X41526072Y-69441704D01*
X41521703Y-69447920D01*
X41464431Y-69594814D01*
X41443852Y-69751129D01*
X41461153Y-69907840D01*
X41471049Y-69934881D01*
X41499553Y-70012771D01*
X41515336Y-70055901D01*
X41519572Y-70062204D01*
X41519572Y-70062205D01*
X41527578Y-70074119D01*
X41603272Y-70186764D01*
X41608884Y-70191871D01*
X41608887Y-70191874D01*
X41655778Y-70234541D01*
X41719885Y-70292874D01*
X41726562Y-70296499D01*
X41726563Y-70296500D01*
X41743036Y-70305444D01*
X41858443Y-70368104D01*
X42010946Y-70408113D01*
X42091323Y-70409375D01*
X42160991Y-70410470D01*
X42160994Y-70410470D01*
X42168590Y-70410589D01*
X42175995Y-70408893D01*
X42175996Y-70408893D01*
X42232561Y-70395938D01*
X42322274Y-70375391D01*
X42377901Y-70347414D01*
X42456344Y-70307962D01*
X42456347Y-70307960D01*
X42463127Y-70304550D01*
X42550295Y-70230101D01*
X42577243Y-70207085D01*
X42577244Y-70207084D01*
X42583015Y-70202155D01*
X42675018Y-70074119D01*
X42677851Y-70067072D01*
X42730992Y-69934881D01*
X42730993Y-69934879D01*
X42733825Y-69927833D01*
X42756040Y-69771742D01*
X42756184Y-69758000D01*
X42737243Y-69601478D01*
X42681513Y-69453993D01*
X42677212Y-69447735D01*
X42673692Y-69441002D01*
X42676549Y-69439508D01*
X42658500Y-69381385D01*
X42658500Y-66551129D01*
X47968852Y-66551129D01*
X47986153Y-66707840D01*
X48040336Y-66855901D01*
X48044572Y-66862204D01*
X48044572Y-66862205D01*
X48052578Y-66874119D01*
X48128272Y-66986764D01*
X48133884Y-66991871D01*
X48133887Y-66991874D01*
X48138412Y-66995991D01*
X48244885Y-67092874D01*
X48251562Y-67096499D01*
X48251563Y-67096500D01*
X48272674Y-67107962D01*
X48383443Y-67168104D01*
X48535946Y-67208113D01*
X48616323Y-67209375D01*
X48685991Y-67210470D01*
X48685994Y-67210470D01*
X48693590Y-67210589D01*
X48700995Y-67208893D01*
X48700996Y-67208893D01*
X48757561Y-67195938D01*
X48847274Y-67175391D01*
X48931797Y-67132881D01*
X48981344Y-67107962D01*
X48981347Y-67107960D01*
X48988127Y-67104550D01*
X49108015Y-67002155D01*
X49200018Y-66874119D01*
X49202851Y-66867072D01*
X49255992Y-66734881D01*
X49255993Y-66734879D01*
X49258825Y-66727833D01*
X49281040Y-66571742D01*
X49281184Y-66558000D01*
X49262243Y-66401478D01*
X49206513Y-66253993D01*
X49117211Y-66124058D01*
X49105845Y-66113931D01*
X49005165Y-66024228D01*
X49005162Y-66024226D01*
X48999493Y-66019175D01*
X48992143Y-66015283D01*
X48866867Y-65948953D01*
X48866868Y-65948953D01*
X48860155Y-65945399D01*
X48825977Y-65936814D01*
X48714612Y-65908841D01*
X48714610Y-65908841D01*
X48707242Y-65906990D01*
X48699644Y-65906950D01*
X48699642Y-65906950D01*
X48632220Y-65906597D01*
X48549580Y-65906165D01*
X48542201Y-65907937D01*
X48542197Y-65907937D01*
X48458173Y-65928110D01*
X48396273Y-65942971D01*
X48256170Y-66015283D01*
X48250449Y-66020273D01*
X48250447Y-66020275D01*
X48245916Y-66024228D01*
X48137360Y-66118927D01*
X48046703Y-66247920D01*
X48043944Y-66254995D01*
X48043943Y-66254998D01*
X48036282Y-66274649D01*
X47989431Y-66394814D01*
X47988439Y-66402347D01*
X47988439Y-66402348D01*
X47980013Y-66466354D01*
X47968852Y-66551129D01*
X42658500Y-66551129D01*
X42658500Y-62842396D01*
X42678502Y-62774275D01*
X42732158Y-62727782D01*
X42802432Y-62717678D01*
X42867012Y-62747172D01*
X42873593Y-62753299D01*
X43373692Y-63253399D01*
X43872241Y-63751948D01*
X43906267Y-63814260D01*
X43907505Y-63843987D01*
X43908923Y-63844002D01*
X43908844Y-63851597D01*
X43907852Y-63859129D01*
X43925153Y-64015840D01*
X43935049Y-64042881D01*
X43975532Y-64153505D01*
X43979336Y-64163901D01*
X43983572Y-64170204D01*
X43983572Y-64170205D01*
X43990178Y-64180035D01*
X44067272Y-64294764D01*
X44072884Y-64299871D01*
X44072887Y-64299874D01*
X44163357Y-64382195D01*
X44183885Y-64400874D01*
X44190562Y-64404499D01*
X44190563Y-64404500D01*
X44211674Y-64415962D01*
X44322443Y-64476104D01*
X44474946Y-64516113D01*
X44555323Y-64517375D01*
X44624991Y-64518470D01*
X44624994Y-64518470D01*
X44632590Y-64518589D01*
X44639995Y-64516893D01*
X44639996Y-64516893D01*
X44696561Y-64503938D01*
X44786274Y-64483391D01*
X44807974Y-64472477D01*
X44920344Y-64415962D01*
X44920347Y-64415960D01*
X44927127Y-64412550D01*
X45047015Y-64310155D01*
X45139018Y-64182119D01*
X45141851Y-64175072D01*
X45194992Y-64042881D01*
X45194993Y-64042879D01*
X45197825Y-64035833D01*
X45220040Y-63879742D01*
X45220184Y-63866000D01*
X45201243Y-63709478D01*
X45145513Y-63561993D01*
X45056211Y-63432058D01*
X45006885Y-63388110D01*
X44944165Y-63332228D01*
X44944162Y-63332226D01*
X44938493Y-63327175D01*
X44799155Y-63253399D01*
X44785261Y-63249909D01*
X44653612Y-63216841D01*
X44653610Y-63216841D01*
X44646242Y-63214990D01*
X44638644Y-63214950D01*
X44638642Y-63214950D01*
X44541683Y-63214443D01*
X44473668Y-63194085D01*
X44453247Y-63177540D01*
X42716155Y-61440448D01*
X42682129Y-61378136D01*
X42679657Y-61342432D01*
X42680040Y-61339742D01*
X42680184Y-61326000D01*
X42661243Y-61169478D01*
X42605513Y-61021993D01*
X42588719Y-60997558D01*
X42520513Y-60898317D01*
X42520512Y-60898315D01*
X42516211Y-60892058D01*
X42466885Y-60848110D01*
X42404165Y-60792228D01*
X42404162Y-60792226D01*
X42398493Y-60787175D01*
X42391143Y-60783283D01*
X42342699Y-60757634D01*
X42259155Y-60713399D01*
X42242430Y-60709198D01*
X42113612Y-60676841D01*
X42113610Y-60676841D01*
X42106242Y-60674990D01*
X42098644Y-60674950D01*
X42098642Y-60674950D01*
X42031220Y-60674597D01*
X41948580Y-60674165D01*
X41941201Y-60675937D01*
X41941197Y-60675937D01*
X41845981Y-60698797D01*
X41795273Y-60710971D01*
X41655170Y-60783283D01*
X41649449Y-60788273D01*
X41649447Y-60788275D01*
X41583073Y-60846177D01*
X41536360Y-60886927D01*
X41531990Y-60893145D01*
X41526910Y-60898787D01*
X41525389Y-60897418D01*
X41478032Y-60935140D01*
X41407401Y-60942329D01*
X41341379Y-60907555D01*
X39245405Y-58811581D01*
X39211379Y-58749269D01*
X39208500Y-58722486D01*
X39208500Y-54392088D01*
X42020112Y-54392088D01*
X42037413Y-54548799D01*
X42048808Y-54579937D01*
X42088215Y-54687620D01*
X42091596Y-54696860D01*
X42179532Y-54827723D01*
X42185144Y-54832830D01*
X42185147Y-54832833D01*
X42279230Y-54918442D01*
X42296145Y-54933833D01*
X42434703Y-55009063D01*
X42587206Y-55049072D01*
X42667583Y-55050334D01*
X42737251Y-55051429D01*
X42737254Y-55051429D01*
X42744850Y-55051548D01*
X42752255Y-55049852D01*
X42752256Y-55049852D01*
X42891125Y-55018047D01*
X42891126Y-55018047D01*
X42898534Y-55016350D01*
X42905117Y-55013039D01*
X42975887Y-55008789D01*
X43036795Y-55042501D01*
X45142241Y-57147948D01*
X45176267Y-57210260D01*
X45177505Y-57239987D01*
X45178923Y-57240002D01*
X45178844Y-57247597D01*
X45177852Y-57255129D01*
X45195153Y-57411840D01*
X45249336Y-57559901D01*
X45337272Y-57690764D01*
X45342884Y-57695871D01*
X45342887Y-57695874D01*
X45408523Y-57755598D01*
X45453885Y-57796874D01*
X45460562Y-57800499D01*
X45460563Y-57800500D01*
X45481674Y-57811962D01*
X45592443Y-57872104D01*
X45744946Y-57912113D01*
X45825323Y-57913375D01*
X45894991Y-57914470D01*
X45894994Y-57914470D01*
X45902590Y-57914589D01*
X45909995Y-57912893D01*
X45909996Y-57912893D01*
X45966561Y-57899938D01*
X46056274Y-57879391D01*
X46077974Y-57868477D01*
X46190344Y-57811962D01*
X46190347Y-57811960D01*
X46197127Y-57808550D01*
X46228976Y-57781348D01*
X46293765Y-57752317D01*
X46363965Y-57762922D01*
X46417288Y-57809796D01*
X46436807Y-57877159D01*
X46436807Y-58723907D01*
X46416805Y-58792028D01*
X46393639Y-58818854D01*
X46357667Y-58850234D01*
X46267010Y-58979227D01*
X46264251Y-58986302D01*
X46264250Y-58986305D01*
X46216838Y-59107911D01*
X46209738Y-59126121D01*
X46208746Y-59133654D01*
X46208746Y-59133655D01*
X46193850Y-59246807D01*
X46189159Y-59282436D01*
X46206460Y-59439147D01*
X46260643Y-59587208D01*
X46264879Y-59593511D01*
X46264879Y-59593512D01*
X46272885Y-59605426D01*
X46348579Y-59718071D01*
X46354191Y-59723178D01*
X46354194Y-59723181D01*
X46358719Y-59727298D01*
X46465192Y-59824181D01*
X46471869Y-59827806D01*
X46471870Y-59827807D01*
X46492981Y-59839269D01*
X46603750Y-59899411D01*
X46756253Y-59939420D01*
X46836630Y-59940682D01*
X46906298Y-59941777D01*
X46906301Y-59941777D01*
X46913897Y-59941896D01*
X46921302Y-59940200D01*
X46921303Y-59940200D01*
X46977868Y-59927245D01*
X47067581Y-59906698D01*
X47089281Y-59895784D01*
X47201651Y-59839269D01*
X47201654Y-59839267D01*
X47208434Y-59835857D01*
X47328322Y-59733462D01*
X47420325Y-59605426D01*
X47423158Y-59598379D01*
X47476299Y-59466188D01*
X47476300Y-59466186D01*
X47479132Y-59459140D01*
X47492920Y-59362261D01*
X47522321Y-59297639D01*
X47581992Y-59259170D01*
X47652989Y-59259068D01*
X47702462Y-59286821D01*
X47739885Y-59320874D01*
X47746562Y-59324499D01*
X47746563Y-59324500D01*
X47767674Y-59335962D01*
X47878443Y-59396104D01*
X48030946Y-59436113D01*
X48111323Y-59437375D01*
X48180991Y-59438470D01*
X48180994Y-59438470D01*
X48188590Y-59438589D01*
X48195995Y-59436893D01*
X48195996Y-59436893D01*
X48282980Y-59416971D01*
X48342274Y-59403391D01*
X48378594Y-59385124D01*
X48476344Y-59335962D01*
X48476347Y-59335960D01*
X48483127Y-59332550D01*
X48603015Y-59230155D01*
X48695018Y-59102119D01*
X48715776Y-59050482D01*
X48750992Y-58962881D01*
X48750993Y-58962879D01*
X48753825Y-58955833D01*
X48776040Y-58799742D01*
X48776184Y-58786000D01*
X48775553Y-58780781D01*
X48768454Y-58722120D01*
X48757243Y-58629478D01*
X48747253Y-58603040D01*
X48731517Y-58561394D01*
X48726149Y-58490601D01*
X48759907Y-58428144D01*
X48821254Y-58394037D01*
X48826837Y-58392759D01*
X48842871Y-58389087D01*
X48842875Y-58389086D01*
X48850274Y-58387391D01*
X48865057Y-58379956D01*
X48984344Y-58319962D01*
X48984347Y-58319960D01*
X48991127Y-58316550D01*
X49111015Y-58214155D01*
X49203018Y-58086119D01*
X49210653Y-58067127D01*
X49258992Y-57946881D01*
X49258993Y-57946879D01*
X49261825Y-57939833D01*
X49284040Y-57783742D01*
X49284184Y-57770000D01*
X49283328Y-57762922D01*
X49275214Y-57695874D01*
X49265243Y-57613478D01*
X49209513Y-57465993D01*
X49145960Y-57373523D01*
X49123800Y-57302156D01*
X49123800Y-55760599D01*
X49116803Y-55739065D01*
X49112190Y-55719848D01*
X49112089Y-55719208D01*
X49108649Y-55697493D01*
X49098373Y-55677325D01*
X49090807Y-55659060D01*
X49088664Y-55652464D01*
X49083813Y-55637533D01*
X49070506Y-55619217D01*
X49060178Y-55602363D01*
X49054405Y-55591033D01*
X49049903Y-55582197D01*
X49026889Y-55559183D01*
X49026886Y-55559179D01*
X48812155Y-55344448D01*
X48778129Y-55282136D01*
X48775657Y-55246432D01*
X48776040Y-55243742D01*
X48776184Y-55230000D01*
X48757243Y-55073478D01*
X48701513Y-54925993D01*
X48653842Y-54856631D01*
X48616513Y-54802317D01*
X48616512Y-54802315D01*
X48612211Y-54796058D01*
X48559253Y-54748874D01*
X48500165Y-54696228D01*
X48500162Y-54696226D01*
X48494493Y-54691175D01*
X48487143Y-54687283D01*
X48391162Y-54636464D01*
X48355155Y-54617399D01*
X48325738Y-54610010D01*
X48209612Y-54580841D01*
X48209610Y-54580841D01*
X48202242Y-54578990D01*
X48194644Y-54578950D01*
X48194642Y-54578950D01*
X48127220Y-54578597D01*
X48044580Y-54578165D01*
X48037201Y-54579937D01*
X48037197Y-54579937D01*
X47941981Y-54602797D01*
X47891273Y-54614971D01*
X47881471Y-54620030D01*
X47879009Y-54620506D01*
X47877406Y-54621102D01*
X47877307Y-54620835D01*
X47811765Y-54633498D01*
X47745842Y-54607142D01*
X47704633Y-54549329D01*
X47701222Y-54478414D01*
X47706777Y-54461066D01*
X47734992Y-54390880D01*
X47737825Y-54383833D01*
X47760040Y-54227742D01*
X47760184Y-54214000D01*
X47741243Y-54057478D01*
X47685513Y-53909993D01*
X47681212Y-53903735D01*
X47600513Y-53786317D01*
X47600512Y-53786315D01*
X47596211Y-53780058D01*
X47573565Y-53759881D01*
X47484165Y-53680228D01*
X47484162Y-53680226D01*
X47478493Y-53675175D01*
X47471143Y-53671283D01*
X47345867Y-53604953D01*
X47345868Y-53604953D01*
X47339155Y-53601399D01*
X47320615Y-53596742D01*
X47193612Y-53564841D01*
X47193610Y-53564841D01*
X47186242Y-53562990D01*
X47178644Y-53562950D01*
X47178642Y-53562950D01*
X47081683Y-53562443D01*
X47013668Y-53542085D01*
X46993247Y-53525540D01*
X45846120Y-52378414D01*
X45823103Y-52355397D01*
X45802936Y-52345122D01*
X45786082Y-52334793D01*
X45775792Y-52327317D01*
X45775789Y-52327316D01*
X45767767Y-52321487D01*
X45758337Y-52318423D01*
X45758333Y-52318421D01*
X45746235Y-52314490D01*
X45727974Y-52306926D01*
X45716641Y-52301152D01*
X45707807Y-52296651D01*
X45698017Y-52295100D01*
X45698013Y-52295099D01*
X45685445Y-52293108D01*
X45666233Y-52288497D01*
X45644700Y-52281500D01*
X44212196Y-52281500D01*
X44144075Y-52261498D01*
X44123101Y-52244595D01*
X43920955Y-52042449D01*
X43886929Y-51980137D01*
X43884457Y-51944433D01*
X43884840Y-51941742D01*
X43884984Y-51928000D01*
X43866043Y-51771478D01*
X43810313Y-51623993D01*
X43721011Y-51494058D01*
X43701317Y-51476511D01*
X43608965Y-51394228D01*
X43608962Y-51394226D01*
X43603293Y-51389175D01*
X43595943Y-51385283D01*
X43470667Y-51318953D01*
X43470668Y-51318953D01*
X43463955Y-51315399D01*
X43447230Y-51311198D01*
X43318412Y-51278841D01*
X43318410Y-51278841D01*
X43311042Y-51276990D01*
X43303444Y-51276950D01*
X43303442Y-51276950D01*
X43236020Y-51276597D01*
X43153380Y-51276165D01*
X43146001Y-51277937D01*
X43145997Y-51277937D01*
X43050781Y-51300797D01*
X43000073Y-51312971D01*
X42859970Y-51385283D01*
X42854249Y-51390273D01*
X42854247Y-51390275D01*
X42789781Y-51446512D01*
X42741160Y-51488927D01*
X42650503Y-51617920D01*
X42647744Y-51624995D01*
X42647743Y-51624998D01*
X42637955Y-51650105D01*
X42593231Y-51764814D01*
X42592239Y-51772347D01*
X42592239Y-51772348D01*
X42576371Y-51892881D01*
X42572652Y-51921129D01*
X42589953Y-52077840D01*
X42644136Y-52225901D01*
X42732072Y-52356764D01*
X42737684Y-52361871D01*
X42737687Y-52361874D01*
X42814726Y-52431974D01*
X42848685Y-52462874D01*
X42848834Y-52462955D01*
X42890815Y-52516231D01*
X42897632Y-52586899D01*
X42865161Y-52650035D01*
X42856721Y-52658117D01*
X42741160Y-52758927D01*
X42650503Y-52887920D01*
X42647744Y-52894995D01*
X42647743Y-52894998D01*
X42616960Y-52973953D01*
X42593231Y-53034814D01*
X42592239Y-53042347D01*
X42592239Y-53042348D01*
X42574056Y-53180468D01*
X42572652Y-53191129D01*
X42589953Y-53347840D01*
X42644136Y-53495901D01*
X42648372Y-53502204D01*
X42648372Y-53502205D01*
X42682865Y-53553536D01*
X42704257Y-53621233D01*
X42685653Y-53689749D01*
X42632960Y-53737330D01*
X42600731Y-53746668D01*
X42600840Y-53747124D01*
X42447533Y-53783930D01*
X42307430Y-53856242D01*
X42301709Y-53861232D01*
X42301707Y-53861234D01*
X42237671Y-53917096D01*
X42188620Y-53959886D01*
X42097963Y-54088879D01*
X42095204Y-54095954D01*
X42095203Y-54095957D01*
X42047574Y-54218120D01*
X42040691Y-54235773D01*
X42039699Y-54243306D01*
X42039699Y-54243307D01*
X42021199Y-54383833D01*
X42020112Y-54392088D01*
X39208500Y-54392088D01*
X39208500Y-53959622D01*
X39223487Y-53901249D01*
X39225018Y-53899119D01*
X39231451Y-53883118D01*
X39280992Y-53759881D01*
X39280993Y-53759879D01*
X39283825Y-53752833D01*
X39306040Y-53596742D01*
X39306184Y-53583000D01*
X39303697Y-53562443D01*
X39288155Y-53434018D01*
X39287243Y-53426478D01*
X39231513Y-53278993D01*
X39142211Y-53149058D01*
X39130845Y-53138931D01*
X39030165Y-53049228D01*
X39030162Y-53049226D01*
X39024493Y-53044175D01*
X39017143Y-53040283D01*
X38891867Y-52973953D01*
X38891868Y-52973953D01*
X38885155Y-52970399D01*
X38868430Y-52966198D01*
X38739612Y-52933841D01*
X38739610Y-52933841D01*
X38732242Y-52931990D01*
X38724644Y-52931950D01*
X38724642Y-52931950D01*
X38657220Y-52931597D01*
X38574580Y-52931165D01*
X38567201Y-52932937D01*
X38567197Y-52932937D01*
X38471981Y-52955797D01*
X38421273Y-52967971D01*
X38281170Y-53040283D01*
X38275449Y-53045273D01*
X38275447Y-53045275D01*
X38270916Y-53049228D01*
X38162360Y-53143927D01*
X38071703Y-53272920D01*
X38068944Y-53279995D01*
X38068943Y-53279998D01*
X38042493Y-53347840D01*
X38014431Y-53419814D01*
X38013439Y-53427347D01*
X38013439Y-53427348D01*
X37995582Y-53562990D01*
X37993852Y-53576129D01*
X33308500Y-53576129D01*
X33308500Y-51434981D01*
X34064425Y-51434981D01*
X34064941Y-51441125D01*
X34080297Y-51623993D01*
X34081992Y-51644181D01*
X34139858Y-51845984D01*
X34142673Y-51851461D01*
X34142674Y-51851464D01*
X34233004Y-52027228D01*
X34235819Y-52032705D01*
X34239642Y-52037529D01*
X34239645Y-52037533D01*
X34356110Y-52184473D01*
X34366221Y-52197230D01*
X34370915Y-52201225D01*
X34500403Y-52311428D01*
X34526095Y-52333294D01*
X34531473Y-52336300D01*
X34531475Y-52336301D01*
X34575680Y-52361006D01*
X34709353Y-52435713D01*
X34909014Y-52500587D01*
X35117473Y-52525444D01*
X35123608Y-52524972D01*
X35123610Y-52524972D01*
X35320648Y-52509811D01*
X35320652Y-52509810D01*
X35326790Y-52509338D01*
X35528992Y-52452882D01*
X35534496Y-52450102D01*
X35534498Y-52450101D01*
X35710877Y-52361006D01*
X35710879Y-52361005D01*
X35716378Y-52358227D01*
X35881810Y-52228977D01*
X36018986Y-52070057D01*
X36122683Y-51887518D01*
X36188949Y-51688315D01*
X36195300Y-51638040D01*
X36214819Y-51483538D01*
X36214820Y-51483529D01*
X36215261Y-51480035D01*
X36215680Y-51450000D01*
X36214207Y-51434981D01*
X36604425Y-51434981D01*
X36604941Y-51441125D01*
X36620297Y-51623993D01*
X36621992Y-51644181D01*
X36679858Y-51845984D01*
X36682673Y-51851461D01*
X36682674Y-51851464D01*
X36773004Y-52027228D01*
X36775819Y-52032705D01*
X36779642Y-52037529D01*
X36779645Y-52037533D01*
X36896110Y-52184473D01*
X36906221Y-52197230D01*
X36910915Y-52201225D01*
X37040403Y-52311428D01*
X37066095Y-52333294D01*
X37071473Y-52336300D01*
X37071475Y-52336301D01*
X37115680Y-52361006D01*
X37249353Y-52435713D01*
X37449014Y-52500587D01*
X37657473Y-52525444D01*
X37663608Y-52524972D01*
X37663610Y-52524972D01*
X37860648Y-52509811D01*
X37860652Y-52509810D01*
X37866790Y-52509338D01*
X38068992Y-52452882D01*
X38074496Y-52450102D01*
X38074498Y-52450101D01*
X38250877Y-52361006D01*
X38250879Y-52361005D01*
X38256378Y-52358227D01*
X38421810Y-52228977D01*
X38558986Y-52070057D01*
X38662683Y-51887518D01*
X38728949Y-51688315D01*
X38735300Y-51638040D01*
X38754819Y-51483538D01*
X38754820Y-51483529D01*
X38755261Y-51480035D01*
X38755680Y-51450000D01*
X38735194Y-51241066D01*
X38674516Y-51040090D01*
X38670277Y-51032118D01*
X38578853Y-50860174D01*
X38578851Y-50860172D01*
X38575957Y-50854728D01*
X38526993Y-50794692D01*
X38447166Y-50696814D01*
X38447163Y-50696811D01*
X38443271Y-50692039D01*
X38436185Y-50686177D01*
X38286263Y-50562150D01*
X38286259Y-50562148D01*
X38281513Y-50558221D01*
X38096843Y-50458370D01*
X38004297Y-50429722D01*
X37916002Y-50402390D01*
X37856842Y-50363139D01*
X37828295Y-50298134D01*
X37839424Y-50228015D01*
X37886695Y-50175044D01*
X37920650Y-50160318D01*
X38110715Y-50109391D01*
X38121007Y-50105645D01*
X38312445Y-50016376D01*
X38321931Y-50010898D01*
X38365764Y-49980207D01*
X38374139Y-49969729D01*
X38367071Y-49956281D01*
X37692812Y-49282022D01*
X37678868Y-49274408D01*
X37677035Y-49274539D01*
X37670420Y-49278790D01*
X36992207Y-49957003D01*
X36985777Y-49968777D01*
X36995074Y-49980793D01*
X37038069Y-50010898D01*
X37047555Y-50016376D01*
X37238993Y-50105645D01*
X37249285Y-50109391D01*
X37441316Y-50160845D01*
X37501939Y-50197797D01*
X37532960Y-50261657D01*
X37524532Y-50332152D01*
X37479329Y-50386899D01*
X37444280Y-50403425D01*
X37282961Y-50450904D01*
X37282950Y-50450909D01*
X37277043Y-50452647D01*
X37090997Y-50549909D01*
X36927386Y-50681456D01*
X36792442Y-50842276D01*
X36789478Y-50847668D01*
X36789475Y-50847672D01*
X36785596Y-50854728D01*
X36691304Y-51026245D01*
X36627826Y-51226354D01*
X36627140Y-51232471D01*
X36627139Y-51232475D01*
X36608996Y-51394228D01*
X36604425Y-51434981D01*
X36214207Y-51434981D01*
X36195194Y-51241066D01*
X36134516Y-51040090D01*
X36130277Y-51032118D01*
X36038853Y-50860174D01*
X36038851Y-50860172D01*
X36035957Y-50854728D01*
X35986993Y-50794692D01*
X35907166Y-50696814D01*
X35907163Y-50696811D01*
X35903271Y-50692039D01*
X35896185Y-50686177D01*
X35746263Y-50562150D01*
X35746259Y-50562148D01*
X35741513Y-50558221D01*
X35556843Y-50458370D01*
X35464297Y-50429722D01*
X35376002Y-50402390D01*
X35316842Y-50363139D01*
X35288295Y-50298134D01*
X35299424Y-50228015D01*
X35346695Y-50175044D01*
X35380650Y-50160318D01*
X35570715Y-50109391D01*
X35581007Y-50105645D01*
X35772445Y-50016376D01*
X35781931Y-50010898D01*
X35825764Y-49980207D01*
X35834139Y-49969729D01*
X35827071Y-49956281D01*
X35152812Y-49282022D01*
X35138868Y-49274408D01*
X35137035Y-49274539D01*
X35130420Y-49278790D01*
X34452207Y-49957003D01*
X34445777Y-49968777D01*
X34455074Y-49980793D01*
X34498069Y-50010898D01*
X34507555Y-50016376D01*
X34698993Y-50105645D01*
X34709285Y-50109391D01*
X34901316Y-50160845D01*
X34961939Y-50197797D01*
X34992960Y-50261657D01*
X34984532Y-50332152D01*
X34939329Y-50386899D01*
X34904280Y-50403425D01*
X34742961Y-50450904D01*
X34742950Y-50450909D01*
X34737043Y-50452647D01*
X34550997Y-50549909D01*
X34387386Y-50681456D01*
X34252442Y-50842276D01*
X34249478Y-50847668D01*
X34249475Y-50847672D01*
X34245596Y-50854728D01*
X34151304Y-51026245D01*
X34087826Y-51226354D01*
X34087140Y-51232471D01*
X34087139Y-51232475D01*
X34068996Y-51394228D01*
X34064425Y-51434981D01*
X33308500Y-51434981D01*
X33308500Y-48915475D01*
X33865628Y-48915475D01*
X33884038Y-49125896D01*
X33885941Y-49136691D01*
X33940609Y-49340715D01*
X33944355Y-49351007D01*
X34033623Y-49542441D01*
X34039103Y-49551932D01*
X34069794Y-49595765D01*
X34080271Y-49604140D01*
X34093718Y-49597072D01*
X34767978Y-48922812D01*
X34774356Y-48911132D01*
X35504408Y-48911132D01*
X35504539Y-48912965D01*
X35508790Y-48919580D01*
X36187003Y-49597793D01*
X36198777Y-49604223D01*
X36210793Y-49594926D01*
X36240897Y-49551932D01*
X36246377Y-49542441D01*
X36295805Y-49436443D01*
X36342722Y-49383158D01*
X36411000Y-49363697D01*
X36478960Y-49384239D01*
X36524195Y-49436443D01*
X36573623Y-49542441D01*
X36579103Y-49551932D01*
X36609794Y-49595765D01*
X36620271Y-49604140D01*
X36633718Y-49597072D01*
X37307978Y-48922812D01*
X37314356Y-48911132D01*
X38044408Y-48911132D01*
X38044539Y-48912965D01*
X38048790Y-48919580D01*
X38727003Y-49597793D01*
X38738777Y-49604223D01*
X38750793Y-49594926D01*
X38780897Y-49551932D01*
X38786377Y-49542441D01*
X38875645Y-49351007D01*
X38879391Y-49340715D01*
X38934059Y-49136691D01*
X38935962Y-49125896D01*
X38954372Y-48915475D01*
X38954372Y-48904525D01*
X38935962Y-48694104D01*
X38934059Y-48683309D01*
X38879391Y-48479285D01*
X38875645Y-48468993D01*
X38786377Y-48277559D01*
X38780897Y-48268068D01*
X38750206Y-48224235D01*
X38739729Y-48215860D01*
X38726282Y-48222928D01*
X38052022Y-48897188D01*
X38044408Y-48911132D01*
X37314356Y-48911132D01*
X37315592Y-48908868D01*
X37315461Y-48907035D01*
X37311210Y-48900420D01*
X36632997Y-48222207D01*
X36621223Y-48215777D01*
X36609207Y-48225074D01*
X36579103Y-48268068D01*
X36573623Y-48277559D01*
X36524195Y-48383557D01*
X36477278Y-48436842D01*
X36409000Y-48456303D01*
X36341040Y-48435761D01*
X36295805Y-48383557D01*
X36246377Y-48277559D01*
X36240897Y-48268068D01*
X36210206Y-48224235D01*
X36199729Y-48215860D01*
X36186282Y-48222928D01*
X35512022Y-48897188D01*
X35504408Y-48911132D01*
X34774356Y-48911132D01*
X34775592Y-48908868D01*
X34775461Y-48907035D01*
X34771210Y-48900420D01*
X34092997Y-48222207D01*
X34081223Y-48215777D01*
X34069207Y-48225074D01*
X34039103Y-48268068D01*
X34033623Y-48277559D01*
X33944355Y-48468993D01*
X33940609Y-48479285D01*
X33885941Y-48683309D01*
X33884038Y-48694104D01*
X33865628Y-48904525D01*
X33865628Y-48915475D01*
X33308500Y-48915475D01*
X33308500Y-46354981D01*
X34064425Y-46354981D01*
X34081992Y-46564181D01*
X34139858Y-46765984D01*
X34142673Y-46771461D01*
X34142674Y-46771464D01*
X34233004Y-46947228D01*
X34235819Y-46952705D01*
X34239642Y-46957529D01*
X34239645Y-46957533D01*
X34356110Y-47104473D01*
X34366221Y-47117230D01*
X34526095Y-47253294D01*
X34531473Y-47256300D01*
X34531475Y-47256301D01*
X34575680Y-47281006D01*
X34709353Y-47355713D01*
X34903381Y-47418757D01*
X34961986Y-47458829D01*
X34989623Y-47524226D01*
X34977516Y-47594183D01*
X34929510Y-47646489D01*
X34897055Y-47660296D01*
X34709285Y-47710609D01*
X34698993Y-47714355D01*
X34507559Y-47803623D01*
X34498068Y-47809103D01*
X34454235Y-47839794D01*
X34445860Y-47850271D01*
X34452928Y-47863718D01*
X35127188Y-48537978D01*
X35141132Y-48545592D01*
X35142965Y-48545461D01*
X35149580Y-48541210D01*
X35827793Y-47862997D01*
X35834223Y-47851223D01*
X35824926Y-47839207D01*
X35781931Y-47809102D01*
X35772445Y-47803624D01*
X35581007Y-47714355D01*
X35570715Y-47710609D01*
X35377066Y-47658721D01*
X35316443Y-47621769D01*
X35285422Y-47557909D01*
X35293850Y-47487414D01*
X35339053Y-47432667D01*
X35375793Y-47415656D01*
X35528992Y-47372882D01*
X35534496Y-47370102D01*
X35534498Y-47370101D01*
X35710877Y-47281006D01*
X35710879Y-47281005D01*
X35716378Y-47278227D01*
X35881810Y-47148977D01*
X36018986Y-46990057D01*
X36122683Y-46807518D01*
X36188949Y-46608315D01*
X36195300Y-46558040D01*
X36214819Y-46403538D01*
X36214820Y-46403529D01*
X36215261Y-46400035D01*
X36215680Y-46370000D01*
X36214207Y-46354981D01*
X36604425Y-46354981D01*
X36621992Y-46564181D01*
X36679858Y-46765984D01*
X36682673Y-46771461D01*
X36682674Y-46771464D01*
X36773004Y-46947228D01*
X36775819Y-46952705D01*
X36779642Y-46957529D01*
X36779645Y-46957533D01*
X36896110Y-47104473D01*
X36906221Y-47117230D01*
X37066095Y-47253294D01*
X37071473Y-47256300D01*
X37071475Y-47256301D01*
X37115680Y-47281006D01*
X37249353Y-47355713D01*
X37443381Y-47418757D01*
X37501986Y-47458829D01*
X37529623Y-47524226D01*
X37517516Y-47594183D01*
X37469510Y-47646489D01*
X37437055Y-47660296D01*
X37249285Y-47710609D01*
X37238993Y-47714355D01*
X37047559Y-47803623D01*
X37038068Y-47809103D01*
X36994235Y-47839794D01*
X36985860Y-47850271D01*
X36992928Y-47863718D01*
X37667188Y-48537978D01*
X37681132Y-48545592D01*
X37682965Y-48545461D01*
X37689580Y-48541210D01*
X38367793Y-47862997D01*
X38374223Y-47851223D01*
X38364926Y-47839207D01*
X38321931Y-47809102D01*
X38312445Y-47803624D01*
X38121007Y-47714355D01*
X38110715Y-47710609D01*
X37917066Y-47658721D01*
X37856443Y-47621769D01*
X37825422Y-47557909D01*
X37833850Y-47487414D01*
X37879053Y-47432667D01*
X37915793Y-47415656D01*
X38068992Y-47372882D01*
X38074496Y-47370102D01*
X38074498Y-47370101D01*
X38250877Y-47281006D01*
X38250879Y-47281005D01*
X38256378Y-47278227D01*
X38421810Y-47148977D01*
X38558986Y-46990057D01*
X38662683Y-46807518D01*
X38728949Y-46608315D01*
X38735300Y-46558040D01*
X38754819Y-46403538D01*
X38754820Y-46403529D01*
X38755261Y-46400035D01*
X38755680Y-46370000D01*
X38735194Y-46161066D01*
X38674516Y-45960090D01*
X38670277Y-45952118D01*
X38578853Y-45780174D01*
X38578851Y-45780172D01*
X38575957Y-45774728D01*
X38526993Y-45714692D01*
X38447166Y-45616814D01*
X38447163Y-45616811D01*
X38443271Y-45612039D01*
X38436185Y-45606177D01*
X38286263Y-45482150D01*
X38286259Y-45482148D01*
X38281513Y-45478221D01*
X38096843Y-45378370D01*
X37896295Y-45316290D01*
X37890170Y-45315646D01*
X37890169Y-45315646D01*
X37693638Y-45294990D01*
X37693637Y-45294990D01*
X37687510Y-45294346D01*
X37599999Y-45302310D01*
X37484577Y-45312814D01*
X37484574Y-45312815D01*
X37478438Y-45313373D01*
X37472532Y-45315111D01*
X37472528Y-45315112D01*
X37325522Y-45358379D01*
X37277043Y-45372647D01*
X37090997Y-45469909D01*
X36927386Y-45601456D01*
X36792442Y-45762276D01*
X36789478Y-45767668D01*
X36789475Y-45767672D01*
X36785596Y-45774728D01*
X36691304Y-45946245D01*
X36627826Y-46146354D01*
X36627140Y-46152471D01*
X36627139Y-46152475D01*
X36605112Y-46348856D01*
X36604425Y-46354981D01*
X36214207Y-46354981D01*
X36195194Y-46161066D01*
X36134516Y-45960090D01*
X36130277Y-45952118D01*
X36038853Y-45780174D01*
X36038851Y-45780172D01*
X36035957Y-45774728D01*
X35986993Y-45714692D01*
X35907166Y-45616814D01*
X35907163Y-45616811D01*
X35903271Y-45612039D01*
X35896185Y-45606177D01*
X35746263Y-45482150D01*
X35746259Y-45482148D01*
X35741513Y-45478221D01*
X35556843Y-45378370D01*
X35356295Y-45316290D01*
X35350170Y-45315646D01*
X35350169Y-45315646D01*
X35153638Y-45294990D01*
X35153637Y-45294990D01*
X35147510Y-45294346D01*
X35059999Y-45302310D01*
X34944577Y-45312814D01*
X34944574Y-45312815D01*
X34938438Y-45313373D01*
X34932532Y-45315111D01*
X34932528Y-45315112D01*
X34785522Y-45358379D01*
X34737043Y-45372647D01*
X34550997Y-45469909D01*
X34387386Y-45601456D01*
X34252442Y-45762276D01*
X34249478Y-45767668D01*
X34249475Y-45767672D01*
X34245596Y-45774728D01*
X34151304Y-45946245D01*
X34087826Y-46146354D01*
X34087140Y-46152471D01*
X34087139Y-46152475D01*
X34065112Y-46348856D01*
X34064425Y-46354981D01*
X33308500Y-46354981D01*
X33308500Y-43814981D01*
X34064425Y-43814981D01*
X34081992Y-44024181D01*
X34139858Y-44225984D01*
X34142673Y-44231461D01*
X34142674Y-44231464D01*
X34233004Y-44407228D01*
X34235819Y-44412705D01*
X34239642Y-44417529D01*
X34239645Y-44417533D01*
X34356110Y-44564473D01*
X34366221Y-44577230D01*
X34526095Y-44713294D01*
X34531473Y-44716300D01*
X34531475Y-44716301D01*
X34575680Y-44741006D01*
X34709353Y-44815713D01*
X34909014Y-44880587D01*
X35117473Y-44905444D01*
X35123608Y-44904972D01*
X35123610Y-44904972D01*
X35320648Y-44889811D01*
X35320652Y-44889810D01*
X35326790Y-44889338D01*
X35528992Y-44832882D01*
X35534496Y-44830102D01*
X35534498Y-44830101D01*
X35710877Y-44741006D01*
X35710879Y-44741005D01*
X35716378Y-44738227D01*
X35881810Y-44608977D01*
X36018986Y-44450057D01*
X36122683Y-44267518D01*
X36188949Y-44068315D01*
X36195300Y-44018040D01*
X36214819Y-43863538D01*
X36214820Y-43863529D01*
X36215261Y-43860035D01*
X36215680Y-43830000D01*
X36214207Y-43814981D01*
X36604425Y-43814981D01*
X36621992Y-44024181D01*
X36679858Y-44225984D01*
X36682673Y-44231461D01*
X36682674Y-44231464D01*
X36773004Y-44407228D01*
X36775819Y-44412705D01*
X36779642Y-44417529D01*
X36779645Y-44417533D01*
X36896110Y-44564473D01*
X36906221Y-44577230D01*
X37066095Y-44713294D01*
X37071473Y-44716300D01*
X37071475Y-44716301D01*
X37115680Y-44741006D01*
X37249353Y-44815713D01*
X37449014Y-44880587D01*
X37657473Y-44905444D01*
X37663608Y-44904972D01*
X37663610Y-44904972D01*
X37860648Y-44889811D01*
X37860652Y-44889810D01*
X37866790Y-44889338D01*
X38068992Y-44832882D01*
X38074496Y-44830102D01*
X38074498Y-44830101D01*
X38250877Y-44741006D01*
X38250879Y-44741005D01*
X38256378Y-44738227D01*
X38421810Y-44608977D01*
X38558986Y-44450057D01*
X38662683Y-44267518D01*
X38728949Y-44068315D01*
X38735300Y-44018040D01*
X38754819Y-43863538D01*
X38754820Y-43863529D01*
X38755261Y-43860035D01*
X38755680Y-43830000D01*
X38735194Y-43621066D01*
X38674516Y-43420090D01*
X38670277Y-43412118D01*
X38578853Y-43240174D01*
X38578851Y-43240172D01*
X38575957Y-43234728D01*
X38526993Y-43174692D01*
X38447166Y-43076814D01*
X38447163Y-43076811D01*
X38443271Y-43072039D01*
X38436185Y-43066177D01*
X38286263Y-42942150D01*
X38286259Y-42942148D01*
X38281513Y-42938221D01*
X38096843Y-42838370D01*
X37896295Y-42776290D01*
X37890170Y-42775646D01*
X37890169Y-42775646D01*
X37693638Y-42754990D01*
X37693637Y-42754990D01*
X37687510Y-42754346D01*
X37599999Y-42762310D01*
X37484577Y-42772814D01*
X37484574Y-42772815D01*
X37478438Y-42773373D01*
X37472532Y-42775111D01*
X37472528Y-42775112D01*
X37325522Y-42818379D01*
X37277043Y-42832647D01*
X37090997Y-42929909D01*
X36927386Y-43061456D01*
X36792442Y-43222276D01*
X36789478Y-43227668D01*
X36789475Y-43227672D01*
X36785596Y-43234728D01*
X36691304Y-43406245D01*
X36627826Y-43606354D01*
X36627140Y-43612471D01*
X36627139Y-43612475D01*
X36605112Y-43808856D01*
X36604425Y-43814981D01*
X36214207Y-43814981D01*
X36195194Y-43621066D01*
X36134516Y-43420090D01*
X36130277Y-43412118D01*
X36038853Y-43240174D01*
X36038851Y-43240172D01*
X36035957Y-43234728D01*
X35986993Y-43174692D01*
X35907166Y-43076814D01*
X35907163Y-43076811D01*
X35903271Y-43072039D01*
X35896185Y-43066177D01*
X35746263Y-42942150D01*
X35746259Y-42942148D01*
X35741513Y-42938221D01*
X35556843Y-42838370D01*
X35356295Y-42776290D01*
X35350170Y-42775646D01*
X35350169Y-42775646D01*
X35153638Y-42754990D01*
X35153637Y-42754990D01*
X35147510Y-42754346D01*
X35059999Y-42762310D01*
X34944577Y-42772814D01*
X34944574Y-42772815D01*
X34938438Y-42773373D01*
X34932532Y-42775111D01*
X34932528Y-42775112D01*
X34785522Y-42818379D01*
X34737043Y-42832647D01*
X34550997Y-42929909D01*
X34387386Y-43061456D01*
X34252442Y-43222276D01*
X34249478Y-43227668D01*
X34249475Y-43227672D01*
X34245596Y-43234728D01*
X34151304Y-43406245D01*
X34087826Y-43606354D01*
X34087140Y-43612471D01*
X34087139Y-43612475D01*
X34065112Y-43808856D01*
X34064425Y-43814981D01*
X33308500Y-43814981D01*
X33308500Y-41274981D01*
X34064425Y-41274981D01*
X34081992Y-41484181D01*
X34139858Y-41685984D01*
X34142673Y-41691461D01*
X34142674Y-41691464D01*
X34233004Y-41867228D01*
X34235819Y-41872705D01*
X34239642Y-41877529D01*
X34239645Y-41877533D01*
X34356110Y-42024473D01*
X34366221Y-42037230D01*
X34526095Y-42173294D01*
X34531473Y-42176300D01*
X34531475Y-42176301D01*
X34575680Y-42201006D01*
X34709353Y-42275713D01*
X34909014Y-42340587D01*
X35117473Y-42365444D01*
X35123608Y-42364972D01*
X35123610Y-42364972D01*
X35320648Y-42349811D01*
X35320652Y-42349810D01*
X35326790Y-42349338D01*
X35528992Y-42292882D01*
X35534496Y-42290102D01*
X35534498Y-42290101D01*
X35710877Y-42201006D01*
X35710879Y-42201005D01*
X35716378Y-42198227D01*
X35881810Y-42068977D01*
X36018986Y-41910057D01*
X36122683Y-41727518D01*
X36188949Y-41528315D01*
X36195300Y-41478040D01*
X36214819Y-41323538D01*
X36214820Y-41323529D01*
X36215261Y-41320035D01*
X36215680Y-41290000D01*
X36214207Y-41274981D01*
X36604425Y-41274981D01*
X36621992Y-41484181D01*
X36679858Y-41685984D01*
X36682673Y-41691461D01*
X36682674Y-41691464D01*
X36773004Y-41867228D01*
X36775819Y-41872705D01*
X36779642Y-41877529D01*
X36779645Y-41877533D01*
X36896110Y-42024473D01*
X36906221Y-42037230D01*
X37066095Y-42173294D01*
X37071473Y-42176300D01*
X37071475Y-42176301D01*
X37115680Y-42201006D01*
X37249353Y-42275713D01*
X37449014Y-42340587D01*
X37657473Y-42365444D01*
X37663608Y-42364972D01*
X37663610Y-42364972D01*
X37860648Y-42349811D01*
X37860652Y-42349810D01*
X37866790Y-42349338D01*
X38068992Y-42292882D01*
X38074496Y-42290102D01*
X38074498Y-42290101D01*
X38250877Y-42201006D01*
X38250879Y-42201005D01*
X38256378Y-42198227D01*
X38421810Y-42068977D01*
X38558986Y-41910057D01*
X38662683Y-41727518D01*
X38728949Y-41528315D01*
X38735300Y-41478040D01*
X38754819Y-41323538D01*
X38754820Y-41323529D01*
X38755261Y-41320035D01*
X38755680Y-41290000D01*
X38735194Y-41081066D01*
X38674516Y-40880090D01*
X38670277Y-40872118D01*
X38578853Y-40700174D01*
X38578851Y-40700172D01*
X38575957Y-40694728D01*
X38526993Y-40634692D01*
X38447166Y-40536814D01*
X38447163Y-40536811D01*
X38443271Y-40532039D01*
X38436185Y-40526177D01*
X38286263Y-40402150D01*
X38286259Y-40402148D01*
X38281513Y-40398221D01*
X38096843Y-40298370D01*
X37896295Y-40236290D01*
X37890170Y-40235646D01*
X37890169Y-40235646D01*
X37693638Y-40214990D01*
X37693637Y-40214990D01*
X37687510Y-40214346D01*
X37599999Y-40222310D01*
X37484577Y-40232814D01*
X37484574Y-40232815D01*
X37478438Y-40233373D01*
X37472532Y-40235111D01*
X37472528Y-40235112D01*
X37325522Y-40278379D01*
X37277043Y-40292647D01*
X37090997Y-40389909D01*
X36927386Y-40521456D01*
X36792442Y-40682276D01*
X36789478Y-40687668D01*
X36789475Y-40687672D01*
X36785596Y-40694728D01*
X36691304Y-40866245D01*
X36627826Y-41066354D01*
X36627140Y-41072471D01*
X36627139Y-41072475D01*
X36605112Y-41268856D01*
X36604425Y-41274981D01*
X36214207Y-41274981D01*
X36195194Y-41081066D01*
X36134516Y-40880090D01*
X36130277Y-40872118D01*
X36038853Y-40700174D01*
X36038851Y-40700172D01*
X36035957Y-40694728D01*
X35986993Y-40634692D01*
X35907166Y-40536814D01*
X35907163Y-40536811D01*
X35903271Y-40532039D01*
X35896185Y-40526177D01*
X35746263Y-40402150D01*
X35746259Y-40402148D01*
X35741513Y-40398221D01*
X35556843Y-40298370D01*
X35356295Y-40236290D01*
X35350170Y-40235646D01*
X35350169Y-40235646D01*
X35153638Y-40214990D01*
X35153637Y-40214990D01*
X35147510Y-40214346D01*
X35059999Y-40222310D01*
X34944577Y-40232814D01*
X34944574Y-40232815D01*
X34938438Y-40233373D01*
X34932532Y-40235111D01*
X34932528Y-40235112D01*
X34785522Y-40278379D01*
X34737043Y-40292647D01*
X34550997Y-40389909D01*
X34387386Y-40521456D01*
X34252442Y-40682276D01*
X34249478Y-40687668D01*
X34249475Y-40687672D01*
X34245596Y-40694728D01*
X34151304Y-40866245D01*
X34087826Y-41066354D01*
X34087140Y-41072471D01*
X34087139Y-41072475D01*
X34065112Y-41268856D01*
X34064425Y-41274981D01*
X33308500Y-41274981D01*
X33308500Y-38734981D01*
X34064425Y-38734981D01*
X34064941Y-38741125D01*
X34077208Y-38887205D01*
X34081992Y-38944181D01*
X34094647Y-38988315D01*
X34135146Y-39129550D01*
X34139858Y-39145984D01*
X34142673Y-39151461D01*
X34142674Y-39151464D01*
X34167819Y-39200391D01*
X34235819Y-39332705D01*
X34239642Y-39337529D01*
X34239645Y-39337533D01*
X34356110Y-39484473D01*
X34366221Y-39497230D01*
X34370915Y-39501225D01*
X34458000Y-39575340D01*
X34526095Y-39633294D01*
X34531473Y-39636300D01*
X34531475Y-39636301D01*
X34575680Y-39661006D01*
X34709353Y-39735713D01*
X34909014Y-39800587D01*
X35117473Y-39825444D01*
X35123608Y-39824972D01*
X35123610Y-39824972D01*
X35320648Y-39809811D01*
X35320652Y-39809810D01*
X35326790Y-39809338D01*
X35528992Y-39752882D01*
X35534496Y-39750102D01*
X35534498Y-39750101D01*
X35710877Y-39661006D01*
X35710879Y-39661005D01*
X35716378Y-39658227D01*
X35881810Y-39528977D01*
X36018986Y-39370057D01*
X36122683Y-39187518D01*
X36188949Y-38988315D01*
X36200217Y-38899119D01*
X36214819Y-38783538D01*
X36214820Y-38783529D01*
X36215261Y-38780035D01*
X36215680Y-38750000D01*
X36195194Y-38541066D01*
X36134516Y-38340090D01*
X36130277Y-38332118D01*
X36038853Y-38160174D01*
X36038851Y-38160172D01*
X36035957Y-38154728D01*
X35986993Y-38094692D01*
X35907166Y-37996814D01*
X35907163Y-37996811D01*
X35903271Y-37992039D01*
X35896185Y-37986177D01*
X35842984Y-37942165D01*
X36609500Y-37942165D01*
X36609501Y-39557834D01*
X36612700Y-39584733D01*
X36659353Y-39689763D01*
X36740688Y-39770957D01*
X36845800Y-39817426D01*
X36862836Y-39819412D01*
X36868526Y-39820076D01*
X36868531Y-39820076D01*
X36872165Y-39820500D01*
X37672893Y-39820500D01*
X38487834Y-39820499D01*
X38491531Y-39820059D01*
X38491537Y-39820059D01*
X38504449Y-39818523D01*
X38514733Y-39817300D01*
X38619763Y-39770647D01*
X38700957Y-39689312D01*
X38747426Y-39584200D01*
X38749412Y-39567164D01*
X38750076Y-39561474D01*
X38750076Y-39561469D01*
X38750500Y-39557835D01*
X38750499Y-38576129D01*
X43968852Y-38576129D01*
X43986153Y-38732840D01*
X44040336Y-38880901D01*
X44044572Y-38887204D01*
X44044572Y-38887205D01*
X44052578Y-38899119D01*
X44128272Y-39011764D01*
X44133884Y-39016871D01*
X44133887Y-39016874D01*
X44138412Y-39020991D01*
X44244885Y-39117874D01*
X44251562Y-39121499D01*
X44251563Y-39121500D01*
X44272674Y-39132962D01*
X44383443Y-39193104D01*
X44535946Y-39233113D01*
X44616323Y-39234375D01*
X44685991Y-39235470D01*
X44685994Y-39235470D01*
X44693590Y-39235589D01*
X44700995Y-39233893D01*
X44700996Y-39233893D01*
X44757561Y-39220938D01*
X44847274Y-39200391D01*
X44884507Y-39181665D01*
X44981344Y-39132962D01*
X44981347Y-39132960D01*
X44988127Y-39129550D01*
X45108015Y-39027155D01*
X45200018Y-38899119D01*
X45202851Y-38892072D01*
X45255992Y-38759881D01*
X45255993Y-38759879D01*
X45258825Y-38752833D01*
X45281040Y-38596742D01*
X45281184Y-38583000D01*
X45276110Y-38541066D01*
X45263155Y-38434018D01*
X45262243Y-38426478D01*
X45206513Y-38278993D01*
X45117211Y-38149058D01*
X45104304Y-38137558D01*
X45005165Y-38049228D01*
X45005162Y-38049226D01*
X44999493Y-38044175D01*
X44992143Y-38040283D01*
X44910044Y-37996814D01*
X44860155Y-37970399D01*
X44843430Y-37966198D01*
X44714612Y-37933841D01*
X44714610Y-37933841D01*
X44707242Y-37931990D01*
X44699644Y-37931950D01*
X44699642Y-37931950D01*
X44632220Y-37931597D01*
X44549580Y-37931165D01*
X44542201Y-37932937D01*
X44542197Y-37932937D01*
X44446981Y-37955797D01*
X44396273Y-37967971D01*
X44256170Y-38040283D01*
X44250449Y-38045273D01*
X44250447Y-38045275D01*
X44245916Y-38049228D01*
X44137360Y-38143927D01*
X44046703Y-38272920D01*
X44043944Y-38279995D01*
X44043943Y-38279998D01*
X44022636Y-38334649D01*
X43989431Y-38419814D01*
X43988439Y-38427347D01*
X43988439Y-38427348D01*
X43972661Y-38547199D01*
X43968852Y-38576129D01*
X38750499Y-38576129D01*
X38750499Y-37942166D01*
X38749402Y-37932937D01*
X38748417Y-37924660D01*
X38747300Y-37915267D01*
X38700647Y-37810237D01*
X38619312Y-37729043D01*
X38514200Y-37682574D01*
X38497164Y-37680588D01*
X38491474Y-37679924D01*
X38491469Y-37679924D01*
X38487835Y-37679500D01*
X37687107Y-37679500D01*
X36872166Y-37679501D01*
X36868469Y-37679941D01*
X36868463Y-37679941D01*
X36856920Y-37681314D01*
X36845267Y-37682700D01*
X36740237Y-37729353D01*
X36659043Y-37810688D01*
X36612574Y-37915800D01*
X36611477Y-37925212D01*
X36609932Y-37938463D01*
X36609500Y-37942165D01*
X35842984Y-37942165D01*
X35746263Y-37862150D01*
X35746259Y-37862148D01*
X35741513Y-37858221D01*
X35556843Y-37758370D01*
X35356295Y-37696290D01*
X35350170Y-37695646D01*
X35350169Y-37695646D01*
X35153638Y-37674990D01*
X35153637Y-37674990D01*
X35147510Y-37674346D01*
X35067989Y-37681583D01*
X34944577Y-37692814D01*
X34944574Y-37692815D01*
X34938438Y-37693373D01*
X34932532Y-37695111D01*
X34932528Y-37695112D01*
X34817242Y-37729043D01*
X34737043Y-37752647D01*
X34731583Y-37755501D01*
X34731584Y-37755501D01*
X34605672Y-37821326D01*
X34550997Y-37849909D01*
X34387386Y-37981456D01*
X34252442Y-38142276D01*
X34249478Y-38147668D01*
X34249475Y-38147672D01*
X34173376Y-38286096D01*
X34151304Y-38326245D01*
X34087826Y-38526354D01*
X34087140Y-38532471D01*
X34087139Y-38532475D01*
X34082243Y-38576129D01*
X34064425Y-38734981D01*
X33308500Y-38734981D01*
X33308500Y-35434500D01*
X33328502Y-35366379D01*
X33382158Y-35319886D01*
X33434500Y-35308500D01*
X53032500Y-35308500D01*
X53100621Y-35328502D01*
G37*
%TD.AperFunction*%
%TA.AperFunction,Conductor*%
G36*
X45426725Y-53118502D02*
G01*
X45447695Y-53135401D01*
X46412243Y-54099950D01*
X46446267Y-54162260D01*
X46447505Y-54191987D01*
X46448923Y-54192002D01*
X46448844Y-54199597D01*
X46447852Y-54207129D01*
X46465153Y-54363840D01*
X46519336Y-54511901D01*
X46607272Y-54642764D01*
X46612884Y-54647871D01*
X46612887Y-54647874D01*
X46706970Y-54733483D01*
X46723885Y-54748874D01*
X46730562Y-54752499D01*
X46730563Y-54752500D01*
X46810788Y-54796058D01*
X46862443Y-54824104D01*
X47014946Y-54864113D01*
X47095323Y-54865375D01*
X47164991Y-54866470D01*
X47164994Y-54866470D01*
X47172590Y-54866589D01*
X47179995Y-54864893D01*
X47179996Y-54864893D01*
X47302604Y-54836812D01*
X47326274Y-54831391D01*
X47333567Y-54827723D01*
X47343948Y-54822503D01*
X47413793Y-54809766D01*
X47479436Y-54836812D01*
X47520036Y-54895054D01*
X47522703Y-54966000D01*
X47517956Y-54980827D01*
X47484431Y-55066814D01*
X47463852Y-55223129D01*
X47481153Y-55379840D01*
X47535336Y-55527901D01*
X47623272Y-55658764D01*
X47628884Y-55663871D01*
X47628887Y-55663874D01*
X47665834Y-55697493D01*
X47739885Y-55764874D01*
X47878443Y-55840104D01*
X48030946Y-55880113D01*
X48128060Y-55881638D01*
X48143954Y-55881888D01*
X48211752Y-55902957D01*
X48231072Y-55918778D01*
X48269897Y-55957604D01*
X48303921Y-56019916D01*
X48306800Y-56046698D01*
X48306800Y-57129304D01*
X48286798Y-57197425D01*
X48258474Y-57226485D01*
X48259170Y-57227283D01*
X48140360Y-57330927D01*
X48049703Y-57459920D01*
X48046944Y-57466995D01*
X48046943Y-57466998D01*
X48003619Y-57578119D01*
X47992431Y-57606814D01*
X47991439Y-57614347D01*
X47991439Y-57614348D01*
X47979353Y-57706155D01*
X47971852Y-57763129D01*
X47989153Y-57919840D01*
X47999049Y-57946881D01*
X48017127Y-57996282D01*
X48021753Y-58067127D01*
X47987344Y-58129228D01*
X47928215Y-58162102D01*
X47891273Y-58170971D01*
X47751170Y-58243283D01*
X47745449Y-58248273D01*
X47745447Y-58248275D01*
X47667182Y-58316550D01*
X47632360Y-58346927D01*
X47541703Y-58475920D01*
X47538944Y-58482995D01*
X47538943Y-58482998D01*
X47497200Y-58590063D01*
X47453819Y-58646265D01*
X47386940Y-58670091D01*
X47317796Y-58653977D01*
X47268340Y-58603040D01*
X47253807Y-58544293D01*
X47253807Y-56684607D01*
X47250741Y-56675170D01*
X47246813Y-56663079D01*
X47242198Y-56643856D01*
X47240209Y-56631296D01*
X47240206Y-56631287D01*
X47238656Y-56621500D01*
X47228379Y-56601330D01*
X47220813Y-56583065D01*
X47213820Y-56561541D01*
X47207531Y-56552884D01*
X47200515Y-56543227D01*
X47190187Y-56526374D01*
X47189642Y-56525304D01*
X47179910Y-56506204D01*
X46585103Y-55911397D01*
X46564936Y-55901122D01*
X46548082Y-55890793D01*
X46537792Y-55883317D01*
X46537789Y-55883316D01*
X46529767Y-55877487D01*
X46520337Y-55874423D01*
X46520333Y-55874421D01*
X46508235Y-55870490D01*
X46489974Y-55862926D01*
X46478641Y-55857152D01*
X46469807Y-55852651D01*
X46460017Y-55851100D01*
X46460013Y-55851099D01*
X46447445Y-55849108D01*
X46428233Y-55844497D01*
X46406700Y-55837500D01*
X45975514Y-55837500D01*
X45907393Y-55817498D01*
X45886419Y-55800595D01*
X45684105Y-55598281D01*
X45650079Y-55535969D01*
X45647200Y-55509186D01*
X45647200Y-53873200D01*
X45643312Y-53861234D01*
X45640206Y-53851672D01*
X45635591Y-53832449D01*
X45633602Y-53819889D01*
X45633599Y-53819880D01*
X45632049Y-53810093D01*
X45621772Y-53789923D01*
X45614206Y-53771658D01*
X45607213Y-53750134D01*
X45599829Y-53739971D01*
X45593908Y-53731820D01*
X45583580Y-53714967D01*
X45583035Y-53713897D01*
X45573303Y-53694797D01*
X45192101Y-53313595D01*
X45158075Y-53251283D01*
X45163140Y-53180468D01*
X45205687Y-53123632D01*
X45272207Y-53098821D01*
X45281196Y-53098500D01*
X45358604Y-53098500D01*
X45426725Y-53118502D01*
G37*
%TD.AperFunction*%
%TD*%
M02*
