%TF.GenerationSoftware,KiCad,Pcbnew,(6.0.10)*%
%TF.CreationDate,2023-02-16T13:15:27+00:00*%
%TF.ProjectId,hyperram-sm-x1,68797065-7272-4616-9d2d-736d2d78312e,1.0*%
%TF.SameCoordinates,Original*%
%TF.FileFunction,Legend,Top*%
%TF.FilePolarity,Positive*%
%FSLAX46Y46*%
G04 Gerber Fmt 4.6, Leading zero omitted, Abs format (unit mm)*
G04 Created by KiCad (PCBNEW (6.0.10)) date 2023-02-16 13:15:27*
%MOMM*%
%LPD*%
G01*
G04 APERTURE LIST*
%ADD10C,0.100000*%
%ADD11C,0.150000*%
%ADD12C,0.125000*%
%ADD13C,0.120000*%
%ADD14C,0.304800*%
%ADD15C,0.250000*%
%ADD16C,0.200000*%
%ADD17R,1.524000X1.524000*%
%ADD18C,1.524000*%
G04 APERTURE END LIST*
D10*
X50501190Y-40768714D02*
X50501190Y-40459190D01*
X50691666Y-40625857D01*
X50691666Y-40554428D01*
X50715476Y-40506809D01*
X50739285Y-40483000D01*
X50786904Y-40459190D01*
X50905952Y-40459190D01*
X50953571Y-40483000D01*
X50977380Y-40506809D01*
X51001190Y-40554428D01*
X51001190Y-40697285D01*
X50977380Y-40744904D01*
X50953571Y-40768714D01*
X50501190Y-40316333D02*
X51001190Y-40149666D01*
X50501190Y-39983000D01*
X50501190Y-39863952D02*
X50501190Y-39554428D01*
X50691666Y-39721095D01*
X50691666Y-39649666D01*
X50715476Y-39602047D01*
X50739285Y-39578238D01*
X50786904Y-39554428D01*
X50905952Y-39554428D01*
X50953571Y-39578238D01*
X50977380Y-39602047D01*
X51001190Y-39649666D01*
X51001190Y-39792523D01*
X50977380Y-39840142D01*
X50953571Y-39863952D01*
X51001190Y-38959190D02*
X50501190Y-38959190D01*
X50739285Y-38959190D02*
X50739285Y-38673476D01*
X51001190Y-38673476D02*
X50501190Y-38673476D01*
X50667857Y-38483000D02*
X51001190Y-38363952D01*
X50667857Y-38244904D02*
X51001190Y-38363952D01*
X51120238Y-38411571D01*
X51144047Y-38435380D01*
X51167857Y-38483000D01*
X50667857Y-38054428D02*
X51167857Y-38054428D01*
X50691666Y-38054428D02*
X50667857Y-38006809D01*
X50667857Y-37911571D01*
X50691666Y-37863952D01*
X50715476Y-37840142D01*
X50763095Y-37816333D01*
X50905952Y-37816333D01*
X50953571Y-37840142D01*
X50977380Y-37863952D01*
X51001190Y-37911571D01*
X51001190Y-38006809D01*
X50977380Y-38054428D01*
X50977380Y-37411571D02*
X51001190Y-37459190D01*
X51001190Y-37554428D01*
X50977380Y-37602047D01*
X50929761Y-37625857D01*
X50739285Y-37625857D01*
X50691666Y-37602047D01*
X50667857Y-37554428D01*
X50667857Y-37459190D01*
X50691666Y-37411571D01*
X50739285Y-37387761D01*
X50786904Y-37387761D01*
X50834523Y-37625857D01*
X51001190Y-37173476D02*
X50667857Y-37173476D01*
X50763095Y-37173476D02*
X50715476Y-37149666D01*
X50691666Y-37125857D01*
X50667857Y-37078238D01*
X50667857Y-37030619D01*
X50739285Y-36697285D02*
X50763095Y-36625857D01*
X50786904Y-36602047D01*
X50834523Y-36578238D01*
X50905952Y-36578238D01*
X50953571Y-36602047D01*
X50977380Y-36625857D01*
X51001190Y-36673476D01*
X51001190Y-36863952D01*
X50501190Y-36863952D01*
X50501190Y-36697285D01*
X50525000Y-36649666D01*
X50548809Y-36625857D01*
X50596428Y-36602047D01*
X50644047Y-36602047D01*
X50691666Y-36625857D01*
X50715476Y-36649666D01*
X50739285Y-36697285D01*
X50739285Y-36863952D01*
X50667857Y-36149666D02*
X51001190Y-36149666D01*
X50667857Y-36363952D02*
X50929761Y-36363952D01*
X50977380Y-36340142D01*
X51001190Y-36292523D01*
X51001190Y-36221095D01*
X50977380Y-36173476D01*
X50953571Y-36149666D01*
X50977380Y-35935380D02*
X51001190Y-35887761D01*
X51001190Y-35792523D01*
X50977380Y-35744904D01*
X50929761Y-35721095D01*
X50905952Y-35721095D01*
X50858333Y-35744904D01*
X50834523Y-35792523D01*
X50834523Y-35863952D01*
X50810714Y-35911571D01*
X50763095Y-35935380D01*
X50739285Y-35935380D01*
X50691666Y-35911571D01*
X50667857Y-35863952D01*
X50667857Y-35792523D01*
X50691666Y-35744904D01*
X48397952Y-76479857D02*
X48397952Y-76979857D01*
X48397952Y-76503666D02*
X48445571Y-76479857D01*
X48540809Y-76479857D01*
X48588428Y-76503666D01*
X48612238Y-76527476D01*
X48636047Y-76575095D01*
X48636047Y-76717952D01*
X48612238Y-76765571D01*
X48588428Y-76789380D01*
X48540809Y-76813190D01*
X48445571Y-76813190D01*
X48397952Y-76789380D01*
X48850333Y-76813190D02*
X48850333Y-76479857D01*
X48850333Y-76313190D02*
X48826523Y-76337000D01*
X48850333Y-76360809D01*
X48874142Y-76337000D01*
X48850333Y-76313190D01*
X48850333Y-76360809D01*
X49302714Y-76789380D02*
X49255095Y-76813190D01*
X49159857Y-76813190D01*
X49112238Y-76789380D01*
X49088428Y-76765571D01*
X49064619Y-76717952D01*
X49064619Y-76575095D01*
X49088428Y-76527476D01*
X49112238Y-76503666D01*
X49159857Y-76479857D01*
X49255095Y-76479857D01*
X49302714Y-76503666D01*
X49588428Y-76813190D02*
X49540809Y-76789380D01*
X49517000Y-76765571D01*
X49493190Y-76717952D01*
X49493190Y-76575095D01*
X49517000Y-76527476D01*
X49540809Y-76503666D01*
X49588428Y-76479857D01*
X49659857Y-76479857D01*
X49707476Y-76503666D01*
X49731285Y-76527476D01*
X49755095Y-76575095D01*
X49755095Y-76717952D01*
X49731285Y-76765571D01*
X49707476Y-76789380D01*
X49659857Y-76813190D01*
X49588428Y-76813190D01*
X50207476Y-76813190D02*
X49969380Y-76813190D01*
X49969380Y-76313190D01*
X50564619Y-76789380D02*
X50517000Y-76813190D01*
X50421761Y-76813190D01*
X50374142Y-76789380D01*
X50350333Y-76741761D01*
X50350333Y-76551285D01*
X50374142Y-76503666D01*
X50421761Y-76479857D01*
X50517000Y-76479857D01*
X50564619Y-76503666D01*
X50588428Y-76551285D01*
X50588428Y-76598904D01*
X50350333Y-76646523D01*
X50802714Y-76813190D02*
X50802714Y-76479857D01*
X50802714Y-76527476D02*
X50826523Y-76503666D01*
X50874142Y-76479857D01*
X50945571Y-76479857D01*
X50993190Y-76503666D01*
X51017000Y-76551285D01*
X51017000Y-76813190D01*
X51017000Y-76551285D02*
X51040809Y-76503666D01*
X51088428Y-76479857D01*
X51159857Y-76479857D01*
X51207476Y-76503666D01*
X51231285Y-76551285D01*
X51231285Y-76813190D01*
X51540809Y-76813190D02*
X51493190Y-76789380D01*
X51469380Y-76765571D01*
X51445571Y-76717952D01*
X51445571Y-76575095D01*
X51469380Y-76527476D01*
X51493190Y-76503666D01*
X51540809Y-76479857D01*
X51612238Y-76479857D01*
X51659857Y-76503666D01*
X51683666Y-76527476D01*
X51707476Y-76575095D01*
X51707476Y-76717952D01*
X51683666Y-76765571D01*
X51659857Y-76789380D01*
X51612238Y-76813190D01*
X51540809Y-76813190D01*
X51921761Y-76479857D02*
X51921761Y-76813190D01*
X51921761Y-76527476D02*
X51945571Y-76503666D01*
X51993190Y-76479857D01*
X52064619Y-76479857D01*
X52112238Y-76503666D01*
X52136047Y-76551285D01*
X52136047Y-76813190D01*
X52527380Y-50659190D02*
X51527380Y-50659190D01*
X52003571Y-50659190D02*
X52003571Y-50087761D01*
X52527380Y-50087761D02*
X51527380Y-50087761D01*
X52051190Y-49421095D02*
X52527380Y-49421095D01*
X51527380Y-49754428D02*
X52051190Y-49421095D01*
X51527380Y-49087761D01*
X52527380Y-48754428D02*
X51527380Y-48754428D01*
X51527380Y-48373476D01*
X51575000Y-48278238D01*
X51622619Y-48230619D01*
X51717857Y-48183000D01*
X51860714Y-48183000D01*
X51955952Y-48230619D01*
X52003571Y-48278238D01*
X52051190Y-48373476D01*
X52051190Y-48754428D01*
X52003571Y-47754428D02*
X52003571Y-47421095D01*
X52527380Y-47278238D02*
X52527380Y-47754428D01*
X51527380Y-47754428D01*
X51527380Y-47278238D01*
X52527380Y-46278238D02*
X52051190Y-46611571D01*
X52527380Y-46849666D02*
X51527380Y-46849666D01*
X51527380Y-46468714D01*
X51575000Y-46373476D01*
X51622619Y-46325857D01*
X51717857Y-46278238D01*
X51860714Y-46278238D01*
X51955952Y-46325857D01*
X52003571Y-46373476D01*
X52051190Y-46468714D01*
X52051190Y-46849666D01*
X52527380Y-45278238D02*
X52051190Y-45611571D01*
X52527380Y-45849666D02*
X51527380Y-45849666D01*
X51527380Y-45468714D01*
X51575000Y-45373476D01*
X51622619Y-45325857D01*
X51717857Y-45278238D01*
X51860714Y-45278238D01*
X51955952Y-45325857D01*
X52003571Y-45373476D01*
X52051190Y-45468714D01*
X52051190Y-45849666D01*
X52241666Y-44897285D02*
X52241666Y-44421095D01*
X52527380Y-44992523D02*
X51527380Y-44659190D01*
X52527380Y-44325857D01*
X52527380Y-43992523D02*
X51527380Y-43992523D01*
X52241666Y-43659190D01*
X51527380Y-43325857D01*
X52527380Y-43325857D01*
X51527380Y-42183000D02*
X52527380Y-41516333D01*
X51527380Y-41516333D02*
X52527380Y-42183000D01*
X52527380Y-40611571D02*
X52527380Y-41183000D01*
X52527380Y-40897285D02*
X51527380Y-40897285D01*
X51670238Y-40992523D01*
X51765476Y-41087761D01*
X51813095Y-41183000D01*
X52527380Y-39421095D02*
X51527380Y-39421095D01*
X51527380Y-39040142D01*
X51575000Y-38944904D01*
X51622619Y-38897285D01*
X51717857Y-38849666D01*
X51860714Y-38849666D01*
X51955952Y-38897285D01*
X52003571Y-38944904D01*
X52051190Y-39040142D01*
X52051190Y-39421095D01*
X52527380Y-38421095D02*
X51527380Y-38421095D01*
X52241666Y-38087761D01*
X51527380Y-37754428D01*
X52527380Y-37754428D01*
X51527380Y-37087761D02*
X51527380Y-36897285D01*
X51575000Y-36802047D01*
X51670238Y-36706809D01*
X51860714Y-36659190D01*
X52194047Y-36659190D01*
X52384523Y-36706809D01*
X52479761Y-36802047D01*
X52527380Y-36897285D01*
X52527380Y-37087761D01*
X52479761Y-37183000D01*
X52384523Y-37278238D01*
X52194047Y-37325857D01*
X51860714Y-37325857D01*
X51670238Y-37278238D01*
X51575000Y-37183000D01*
X51527380Y-37087761D01*
X52527380Y-36230619D02*
X51527380Y-36230619D01*
X51527380Y-35992523D01*
X51575000Y-35849666D01*
X51670238Y-35754428D01*
X51765476Y-35706809D01*
X51955952Y-35659190D01*
X52098809Y-35659190D01*
X52289285Y-35706809D01*
X52384523Y-35754428D01*
X52479761Y-35849666D01*
X52527380Y-35992523D01*
X52527380Y-36230619D01*
D11*
%TO.C,C4*%
X48532142Y-71624666D02*
X48579761Y-71672285D01*
X48627380Y-71815142D01*
X48627380Y-71910380D01*
X48579761Y-72053238D01*
X48484523Y-72148476D01*
X48389285Y-72196095D01*
X48198809Y-72243714D01*
X48055952Y-72243714D01*
X47865476Y-72196095D01*
X47770238Y-72148476D01*
X47675000Y-72053238D01*
X47627380Y-71910380D01*
X47627380Y-71815142D01*
X47675000Y-71672285D01*
X47722619Y-71624666D01*
X47960714Y-70767523D02*
X48627380Y-70767523D01*
X47579761Y-71005619D02*
X48294047Y-71243714D01*
X48294047Y-70624666D01*
D12*
%TO.C,JP1*%
X49158690Y-65949666D02*
X49515833Y-65949666D01*
X49587261Y-65973476D01*
X49634880Y-66021095D01*
X49658690Y-66092523D01*
X49658690Y-66140142D01*
X49658690Y-65711571D02*
X49158690Y-65711571D01*
X49158690Y-65521095D01*
X49182500Y-65473476D01*
X49206309Y-65449666D01*
X49253928Y-65425857D01*
X49325357Y-65425857D01*
X49372976Y-65449666D01*
X49396785Y-65473476D01*
X49420595Y-65521095D01*
X49420595Y-65711571D01*
X49658690Y-64949666D02*
X49658690Y-65235380D01*
X49658690Y-65092523D02*
X49158690Y-65092523D01*
X49230119Y-65140142D01*
X49277738Y-65187761D01*
X49301547Y-65235380D01*
D11*
%TO.C,C2*%
X45921333Y-66255142D02*
X45873714Y-66302761D01*
X45730857Y-66350380D01*
X45635619Y-66350380D01*
X45492761Y-66302761D01*
X45397523Y-66207523D01*
X45349904Y-66112285D01*
X45302285Y-65921809D01*
X45302285Y-65778952D01*
X45349904Y-65588476D01*
X45397523Y-65493238D01*
X45492761Y-65398000D01*
X45635619Y-65350380D01*
X45730857Y-65350380D01*
X45873714Y-65398000D01*
X45921333Y-65445619D01*
X46302285Y-65445619D02*
X46349904Y-65398000D01*
X46445142Y-65350380D01*
X46683238Y-65350380D01*
X46778476Y-65398000D01*
X46826095Y-65445619D01*
X46873714Y-65540857D01*
X46873714Y-65636095D01*
X46826095Y-65778952D01*
X46254666Y-66350380D01*
X46873714Y-66350380D01*
%TO.C,R2*%
X45540333Y-42601380D02*
X45207000Y-42125190D01*
X44968904Y-42601380D02*
X44968904Y-41601380D01*
X45349857Y-41601380D01*
X45445095Y-41649000D01*
X45492714Y-41696619D01*
X45540333Y-41791857D01*
X45540333Y-41934714D01*
X45492714Y-42029952D01*
X45445095Y-42077571D01*
X45349857Y-42125190D01*
X44968904Y-42125190D01*
X45921285Y-41696619D02*
X45968904Y-41649000D01*
X46064142Y-41601380D01*
X46302238Y-41601380D01*
X46397476Y-41649000D01*
X46445095Y-41696619D01*
X46492714Y-41791857D01*
X46492714Y-41887095D01*
X46445095Y-42029952D01*
X45873666Y-42601380D01*
X46492714Y-42601380D01*
%TO.C,C5*%
X44258333Y-74365142D02*
X44210714Y-74412761D01*
X44067857Y-74460380D01*
X43972619Y-74460380D01*
X43829761Y-74412761D01*
X43734523Y-74317523D01*
X43686904Y-74222285D01*
X43639285Y-74031809D01*
X43639285Y-73888952D01*
X43686904Y-73698476D01*
X43734523Y-73603238D01*
X43829761Y-73508000D01*
X43972619Y-73460380D01*
X44067857Y-73460380D01*
X44210714Y-73508000D01*
X44258333Y-73555619D01*
X45163095Y-73460380D02*
X44686904Y-73460380D01*
X44639285Y-73936571D01*
X44686904Y-73888952D01*
X44782142Y-73841333D01*
X45020238Y-73841333D01*
X45115476Y-73888952D01*
X45163095Y-73936571D01*
X45210714Y-74031809D01*
X45210714Y-74269904D01*
X45163095Y-74365142D01*
X45115476Y-74412761D01*
X45020238Y-74460380D01*
X44782142Y-74460380D01*
X44686904Y-74412761D01*
X44639285Y-74365142D01*
%TO.C,C3*%
X52160142Y-60476666D02*
X52207761Y-60524285D01*
X52255380Y-60667142D01*
X52255380Y-60762380D01*
X52207761Y-60905238D01*
X52112523Y-61000476D01*
X52017285Y-61048095D01*
X51826809Y-61095714D01*
X51683952Y-61095714D01*
X51493476Y-61048095D01*
X51398238Y-61000476D01*
X51303000Y-60905238D01*
X51255380Y-60762380D01*
X51255380Y-60667142D01*
X51303000Y-60524285D01*
X51350619Y-60476666D01*
X51255380Y-60143333D02*
X51255380Y-59524285D01*
X51636333Y-59857619D01*
X51636333Y-59714761D01*
X51683952Y-59619523D01*
X51731571Y-59571904D01*
X51826809Y-59524285D01*
X52064904Y-59524285D01*
X52160142Y-59571904D01*
X52207761Y-59619523D01*
X52255380Y-59714761D01*
X52255380Y-60000476D01*
X52207761Y-60095714D01*
X52160142Y-60143333D01*
%TO.C,J2*%
X39394666Y-73762380D02*
X39728000Y-74762380D01*
X40061333Y-73762380D01*
X40966095Y-74667142D02*
X40918476Y-74714761D01*
X40775619Y-74762380D01*
X40680380Y-74762380D01*
X40537523Y-74714761D01*
X40442285Y-74619523D01*
X40394666Y-74524285D01*
X40347047Y-74333809D01*
X40347047Y-74190952D01*
X40394666Y-74000476D01*
X40442285Y-73905238D01*
X40537523Y-73810000D01*
X40680380Y-73762380D01*
X40775619Y-73762380D01*
X40918476Y-73810000D01*
X40966095Y-73857619D01*
X41966095Y-74667142D02*
X41918476Y-74714761D01*
X41775619Y-74762380D01*
X41680380Y-74762380D01*
X41537523Y-74714761D01*
X41442285Y-74619523D01*
X41394666Y-74524285D01*
X41347047Y-74333809D01*
X41347047Y-74190952D01*
X41394666Y-74000476D01*
X41442285Y-73905238D01*
X41537523Y-73810000D01*
X41680380Y-73762380D01*
X41775619Y-73762380D01*
X41918476Y-73810000D01*
X41966095Y-73857619D01*
X39966095Y-71270000D02*
X39870857Y-71222380D01*
X39728000Y-71222380D01*
X39585142Y-71270000D01*
X39489904Y-71365238D01*
X39442285Y-71460476D01*
X39394666Y-71650952D01*
X39394666Y-71793809D01*
X39442285Y-71984285D01*
X39489904Y-72079523D01*
X39585142Y-72174761D01*
X39728000Y-72222380D01*
X39823238Y-72222380D01*
X39966095Y-72174761D01*
X40013714Y-72127142D01*
X40013714Y-71793809D01*
X39823238Y-71793809D01*
X40442285Y-72222380D02*
X40442285Y-71222380D01*
X41013714Y-72222380D01*
X41013714Y-71222380D01*
X41489904Y-72222380D02*
X41489904Y-71222380D01*
X41728000Y-71222380D01*
X41870857Y-71270000D01*
X41966095Y-71365238D01*
X42013714Y-71460476D01*
X42061333Y-71650952D01*
X42061333Y-71793809D01*
X42013714Y-71984285D01*
X41966095Y-72079523D01*
X41870857Y-72174761D01*
X41728000Y-72222380D01*
X41489904Y-72222380D01*
D12*
%TO.C,IC2*%
X45460904Y-68431190D02*
X45460904Y-67931190D01*
X45984714Y-68383571D02*
X45960904Y-68407380D01*
X45889476Y-68431190D01*
X45841857Y-68431190D01*
X45770428Y-68407380D01*
X45722809Y-68359761D01*
X45699000Y-68312142D01*
X45675190Y-68216904D01*
X45675190Y-68145476D01*
X45699000Y-68050238D01*
X45722809Y-68002619D01*
X45770428Y-67955000D01*
X45841857Y-67931190D01*
X45889476Y-67931190D01*
X45960904Y-67955000D01*
X45984714Y-67978809D01*
X46175190Y-67978809D02*
X46199000Y-67955000D01*
X46246619Y-67931190D01*
X46365666Y-67931190D01*
X46413285Y-67955000D01*
X46437095Y-67978809D01*
X46460904Y-68026428D01*
X46460904Y-68074047D01*
X46437095Y-68145476D01*
X46151380Y-68431190D01*
X46460904Y-68431190D01*
D11*
%TO.C,J1*%
X39966095Y-48410000D02*
X39870857Y-48362380D01*
X39728000Y-48362380D01*
X39585142Y-48410000D01*
X39489904Y-48505238D01*
X39442285Y-48600476D01*
X39394666Y-48790952D01*
X39394666Y-48933809D01*
X39442285Y-49124285D01*
X39489904Y-49219523D01*
X39585142Y-49314761D01*
X39728000Y-49362380D01*
X39823238Y-49362380D01*
X39966095Y-49314761D01*
X40013714Y-49267142D01*
X40013714Y-48933809D01*
X39823238Y-48933809D01*
X40442285Y-49362380D02*
X40442285Y-48362380D01*
X41013714Y-49362380D01*
X41013714Y-48362380D01*
X41489904Y-49362380D02*
X41489904Y-48362380D01*
X41728000Y-48362380D01*
X41870857Y-48410000D01*
X41966095Y-48505238D01*
X42013714Y-48600476D01*
X42061333Y-48790952D01*
X42061333Y-48933809D01*
X42013714Y-49124285D01*
X41966095Y-49219523D01*
X41870857Y-49314761D01*
X41728000Y-49362380D01*
X41489904Y-49362380D01*
X39394666Y-50902380D02*
X39728000Y-51902380D01*
X40061333Y-50902380D01*
X40966095Y-51807142D02*
X40918476Y-51854761D01*
X40775619Y-51902380D01*
X40680380Y-51902380D01*
X40537523Y-51854761D01*
X40442285Y-51759523D01*
X40394666Y-51664285D01*
X40347047Y-51473809D01*
X40347047Y-51330952D01*
X40394666Y-51140476D01*
X40442285Y-51045238D01*
X40537523Y-50950000D01*
X40680380Y-50902380D01*
X40775619Y-50902380D01*
X40918476Y-50950000D01*
X40966095Y-50997619D01*
X41966095Y-51807142D02*
X41918476Y-51854761D01*
X41775619Y-51902380D01*
X41680380Y-51902380D01*
X41537523Y-51854761D01*
X41442285Y-51759523D01*
X41394666Y-51664285D01*
X41347047Y-51473809D01*
X41347047Y-51330952D01*
X41394666Y-51140476D01*
X41442285Y-51045238D01*
X41537523Y-50950000D01*
X41680380Y-50902380D01*
X41775619Y-50902380D01*
X41918476Y-50950000D01*
X41966095Y-50997619D01*
%TO.C,R1*%
X45540333Y-40569380D02*
X45207000Y-40093190D01*
X44968904Y-40569380D02*
X44968904Y-39569380D01*
X45349857Y-39569380D01*
X45445095Y-39617000D01*
X45492714Y-39664619D01*
X45540333Y-39759857D01*
X45540333Y-39902714D01*
X45492714Y-39997952D01*
X45445095Y-40045571D01*
X45349857Y-40093190D01*
X44968904Y-40093190D01*
X46492714Y-40569380D02*
X45921285Y-40569380D01*
X46207000Y-40569380D02*
X46207000Y-39569380D01*
X46111761Y-39712238D01*
X46016523Y-39807476D01*
X45921285Y-39855095D01*
%TO.C,C1*%
X45540333Y-51186142D02*
X45492714Y-51233761D01*
X45349857Y-51281380D01*
X45254619Y-51281380D01*
X45111761Y-51233761D01*
X45016523Y-51138523D01*
X44968904Y-51043285D01*
X44921285Y-50852809D01*
X44921285Y-50709952D01*
X44968904Y-50519476D01*
X45016523Y-50424238D01*
X45111761Y-50329000D01*
X45254619Y-50281380D01*
X45349857Y-50281380D01*
X45492714Y-50329000D01*
X45540333Y-50376619D01*
X46492714Y-51281380D02*
X45921285Y-51281380D01*
X46207000Y-51281380D02*
X46207000Y-50281380D01*
X46111761Y-50424238D01*
X46016523Y-50519476D01*
X45921285Y-50567095D01*
D12*
%TO.C,IC1*%
X42111190Y-55993095D02*
X41611190Y-55993095D01*
X42063571Y-55469285D02*
X42087380Y-55493095D01*
X42111190Y-55564523D01*
X42111190Y-55612142D01*
X42087380Y-55683571D01*
X42039761Y-55731190D01*
X41992142Y-55755000D01*
X41896904Y-55778809D01*
X41825476Y-55778809D01*
X41730238Y-55755000D01*
X41682619Y-55731190D01*
X41635000Y-55683571D01*
X41611190Y-55612142D01*
X41611190Y-55564523D01*
X41635000Y-55493095D01*
X41658809Y-55469285D01*
X42111190Y-54993095D02*
X42111190Y-55278809D01*
X42111190Y-55135952D02*
X41611190Y-55135952D01*
X41682619Y-55183571D01*
X41730238Y-55231190D01*
X41754047Y-55278809D01*
%TO.C,G\u002A\u002A\u002A*%
G36*
X48329233Y-74415943D02*
G01*
X48346876Y-74398869D01*
X48360447Y-74385227D01*
X48370315Y-74374670D01*
X48376849Y-74366851D01*
X48379622Y-74362844D01*
X48384721Y-74356428D01*
X48395836Y-74344105D01*
X48412990Y-74325849D01*
X48436208Y-74301636D01*
X48465514Y-74271442D01*
X48500932Y-74235242D01*
X48542488Y-74193011D01*
X48590204Y-74144725D01*
X48644106Y-74090359D01*
X48704217Y-74029888D01*
X48770562Y-73963288D01*
X48843166Y-73890534D01*
X48922052Y-73811601D01*
X48969151Y-73764522D01*
X49040068Y-73693666D01*
X49104999Y-73628815D01*
X49164220Y-73569700D01*
X49218008Y-73516049D01*
X49266641Y-73467593D01*
X49310394Y-73424063D01*
X49349544Y-73385188D01*
X49384370Y-73350699D01*
X49415146Y-73320326D01*
X49442150Y-73293798D01*
X49465659Y-73270847D01*
X49485950Y-73251202D01*
X49503299Y-73234593D01*
X49517983Y-73220751D01*
X49530279Y-73209405D01*
X49540464Y-73200286D01*
X49548814Y-73193124D01*
X49555607Y-73187648D01*
X49561119Y-73183590D01*
X49565627Y-73180680D01*
X49569407Y-73178646D01*
X49570691Y-73178056D01*
X49606513Y-73166890D01*
X49643523Y-73163769D01*
X49680094Y-73168552D01*
X49714596Y-73181096D01*
X49733623Y-73192285D01*
X49755733Y-73207494D01*
X49774868Y-73189855D01*
X49799685Y-73170464D01*
X49825901Y-73157620D01*
X49856049Y-73150286D01*
X49877016Y-73148104D01*
X49899140Y-73146661D01*
X49902064Y-73126925D01*
X49906746Y-73104649D01*
X49914532Y-73084421D01*
X49926962Y-73062351D01*
X49928747Y-73059538D01*
X49942222Y-73038484D01*
X49929362Y-73023837D01*
X49905898Y-72991147D01*
X49891026Y-72956288D01*
X49884727Y-72919208D01*
X49885135Y-72894895D01*
X49885614Y-72887764D01*
X49885955Y-72881322D01*
X49886419Y-72875287D01*
X49887267Y-72869371D01*
X49888761Y-72863292D01*
X49891161Y-72856763D01*
X49894728Y-72849501D01*
X49899723Y-72841220D01*
X49906408Y-72831636D01*
X49915043Y-72820463D01*
X49925889Y-72807417D01*
X49939208Y-72792214D01*
X49955260Y-72774568D01*
X49974306Y-72754194D01*
X49996608Y-72730808D01*
X50022426Y-72704125D01*
X50052022Y-72673860D01*
X50085656Y-72639729D01*
X50123590Y-72601446D01*
X50166084Y-72558727D01*
X50213400Y-72511287D01*
X50265798Y-72458841D01*
X50323540Y-72401104D01*
X50386887Y-72337792D01*
X50456099Y-72268620D01*
X50492053Y-72232680D01*
X50563327Y-72161439D01*
X50628615Y-72096206D01*
X50688195Y-72036713D01*
X50742342Y-71982691D01*
X50791331Y-71933869D01*
X50835438Y-71889981D01*
X50874938Y-71850755D01*
X50910108Y-71815923D01*
X50941222Y-71785216D01*
X50968556Y-71758365D01*
X50992387Y-71735100D01*
X51012989Y-71715153D01*
X51030638Y-71698255D01*
X51045609Y-71684136D01*
X51058179Y-71672527D01*
X51068623Y-71663160D01*
X51077217Y-71655764D01*
X51084235Y-71650071D01*
X51089955Y-71645813D01*
X51094650Y-71642719D01*
X51098408Y-71640616D01*
X51103943Y-71637648D01*
X51109575Y-71634156D01*
X51115740Y-71629687D01*
X51122871Y-71623786D01*
X51131404Y-71615998D01*
X51141774Y-71605869D01*
X51154416Y-71592943D01*
X51169765Y-71576767D01*
X51188256Y-71556885D01*
X51210323Y-71532842D01*
X51236401Y-71504185D01*
X51266927Y-71470458D01*
X51302334Y-71431207D01*
X51343057Y-71385976D01*
X51359800Y-71367367D01*
X51403204Y-71319154D01*
X51441134Y-71277115D01*
X51474010Y-71240804D01*
X51502255Y-71209777D01*
X51526291Y-71183589D01*
X51546540Y-71161794D01*
X51563425Y-71143946D01*
X51577367Y-71129601D01*
X51588789Y-71118313D01*
X51598114Y-71109637D01*
X51605762Y-71103128D01*
X51612157Y-71098340D01*
X51617720Y-71094828D01*
X51618750Y-71094251D01*
X51654472Y-71079316D01*
X51691012Y-71073144D01*
X51727816Y-71075734D01*
X51764331Y-71087091D01*
X51777811Y-71093596D01*
X51794358Y-71104631D01*
X51815246Y-71122193D01*
X51839797Y-71145504D01*
X51867330Y-71173784D01*
X51897165Y-71206254D01*
X51928622Y-71242137D01*
X51961022Y-71280652D01*
X51993685Y-71321021D01*
X52025930Y-71362465D01*
X52057079Y-71404206D01*
X52086450Y-71445463D01*
X52092163Y-71453751D01*
X52131337Y-71513720D01*
X52171166Y-71579908D01*
X52210438Y-71650032D01*
X52247943Y-71721810D01*
X52282469Y-71792961D01*
X52312806Y-71861203D01*
X52327409Y-71897032D01*
X52370110Y-72015409D01*
X52407841Y-72139905D01*
X52440306Y-72269107D01*
X52467209Y-72401601D01*
X52488255Y-72535973D01*
X52503148Y-72670810D01*
X52510046Y-72770295D01*
X52511352Y-72794157D01*
X52512819Y-72818441D01*
X52514223Y-72839555D01*
X52514924Y-72848978D01*
X52517300Y-72878899D01*
X52446476Y-72878899D01*
X52444104Y-72855627D01*
X52442950Y-72841844D01*
X52441606Y-72821962D01*
X52440244Y-72798735D01*
X52439134Y-72776944D01*
X52435866Y-72724233D01*
X52430836Y-72665391D01*
X52424338Y-72602911D01*
X52416667Y-72539286D01*
X52408119Y-72477009D01*
X52398989Y-72418573D01*
X52392206Y-72380208D01*
X52361029Y-72236270D01*
X52322281Y-72096779D01*
X52276003Y-71961820D01*
X52222239Y-71831476D01*
X52161030Y-71705828D01*
X52092418Y-71584962D01*
X52016446Y-71468958D01*
X51933154Y-71357902D01*
X51842586Y-71251875D01*
X51796119Y-71202357D01*
X51777638Y-71183485D01*
X51763663Y-71170003D01*
X51752714Y-71160763D01*
X51743306Y-71154620D01*
X51733959Y-71150425D01*
X51725417Y-71147670D01*
X51697324Y-71143585D01*
X51670431Y-71147488D01*
X51646500Y-71159098D01*
X51644667Y-71160426D01*
X51639593Y-71165285D01*
X51629128Y-71176197D01*
X51613783Y-71192600D01*
X51594072Y-71213936D01*
X51570507Y-71239642D01*
X51543602Y-71269159D01*
X51513869Y-71301925D01*
X51481822Y-71337381D01*
X51447972Y-71374966D01*
X51425267Y-71400249D01*
X51218773Y-71630447D01*
X51239707Y-71640146D01*
X51253971Y-71647634D01*
X51267614Y-71656972D01*
X51281876Y-71669305D01*
X51297998Y-71685776D01*
X51317222Y-71707529D01*
X51332553Y-71725748D01*
X51415101Y-71831962D01*
X51490025Y-71942605D01*
X51557200Y-72057406D01*
X51616502Y-72176093D01*
X51667805Y-72298395D01*
X51710984Y-72424039D01*
X51745913Y-72552754D01*
X51771666Y-72679527D01*
X51778492Y-72722849D01*
X51784463Y-72767203D01*
X51789346Y-72810425D01*
X51792909Y-72850354D01*
X51794919Y-72884826D01*
X51795264Y-72898847D01*
X51793595Y-72934707D01*
X51787427Y-72964683D01*
X51776194Y-72990835D01*
X51765527Y-73007280D01*
X51754555Y-73022152D01*
X51770461Y-73039758D01*
X51788330Y-73064626D01*
X51802504Y-73094369D01*
X51811217Y-73125209D01*
X51811684Y-73127975D01*
X51812876Y-73142531D01*
X51813088Y-73162806D01*
X51812335Y-73185709D01*
X51811362Y-73200201D01*
X51795942Y-73334441D01*
X51772029Y-73466245D01*
X51739719Y-73595380D01*
X51699108Y-73721612D01*
X51650291Y-73844708D01*
X51593363Y-73964432D01*
X51528420Y-74080552D01*
X51455558Y-74192833D01*
X51374872Y-74301041D01*
X51349000Y-74332861D01*
X51322674Y-74363504D01*
X51299767Y-74387395D01*
X51279079Y-74405352D01*
X51259407Y-74418189D01*
X51239552Y-74426721D01*
X51218313Y-74431764D01*
X51200384Y-74433774D01*
X51169864Y-74435958D01*
X51166941Y-74457205D01*
X51159452Y-74485840D01*
X51145596Y-74515048D01*
X51127032Y-74541638D01*
X51117803Y-74551683D01*
X51087728Y-74579556D01*
X51051014Y-74610382D01*
X51008985Y-74643219D01*
X50962966Y-74677123D01*
X50914280Y-74711149D01*
X50864251Y-74744353D01*
X50814203Y-74775792D01*
X50765460Y-74804521D01*
X50754585Y-74810640D01*
X50653243Y-74862990D01*
X50546988Y-74910068D01*
X50437156Y-74951481D01*
X50325081Y-74986833D01*
X50212101Y-75015731D01*
X50099551Y-75037782D01*
X49988767Y-75052589D01*
X49914899Y-75058333D01*
X49880961Y-75059062D01*
X49853324Y-75056861D01*
X49829768Y-75051249D01*
X49808075Y-75041744D01*
X49791396Y-75031574D01*
X49769122Y-75016584D01*
X49754365Y-75031823D01*
X49742515Y-75041791D01*
X49726235Y-75052683D01*
X49710847Y-75061209D01*
X49698743Y-75066995D01*
X49688760Y-75070918D01*
X49678740Y-75073314D01*
X49666524Y-75074520D01*
X49649954Y-75074872D01*
X49626872Y-75074706D01*
X49624407Y-75074678D01*
X49574430Y-75072493D01*
X49517981Y-75067204D01*
X49456786Y-75059077D01*
X49392573Y-75048382D01*
X49327069Y-75035384D01*
X49262000Y-75020354D01*
X49243133Y-75015568D01*
X49117905Y-74978608D01*
X48994943Y-74933316D01*
X48874991Y-74880053D01*
X48758795Y-74819179D01*
X48647101Y-74751057D01*
X48540651Y-74676046D01*
X48538316Y-74674277D01*
X48509630Y-74652097D01*
X48481240Y-74629391D01*
X48454556Y-74607337D01*
X48430986Y-74587119D01*
X48411936Y-74569918D01*
X48400098Y-74558286D01*
X48391240Y-74547222D01*
X48381677Y-74532660D01*
X48372860Y-74517173D01*
X48366239Y-74503332D01*
X48363264Y-74493707D01*
X48363220Y-74492906D01*
X48361401Y-74488222D01*
X48360654Y-74488009D01*
X48357009Y-74490899D01*
X48347334Y-74499246D01*
X48332175Y-74512560D01*
X48312080Y-74530356D01*
X48287596Y-74552144D01*
X48259271Y-74577438D01*
X48227653Y-74605750D01*
X48193287Y-74636592D01*
X48156723Y-74669477D01*
X48138531Y-74685863D01*
X48093454Y-74726497D01*
X48054513Y-74761682D01*
X48021260Y-74791906D01*
X47993245Y-74817658D01*
X47970018Y-74839423D01*
X47951132Y-74857692D01*
X47936138Y-74872949D01*
X47924586Y-74885685D01*
X47916027Y-74896386D01*
X47910013Y-74905539D01*
X47906095Y-74913634D01*
X47903824Y-74921156D01*
X47902750Y-74928594D01*
X47902425Y-74936437D01*
X47902403Y-74942372D01*
X47903811Y-74960033D01*
X47908627Y-74976355D01*
X47917739Y-74992831D01*
X47932033Y-75010958D01*
X47952397Y-75032228D01*
X47960318Y-75039921D01*
X48058741Y-75130288D01*
X48157460Y-75212691D01*
X48257681Y-75287982D01*
X48360610Y-75357018D01*
X48467450Y-75420652D01*
X48579406Y-75479739D01*
X48583389Y-75481714D01*
X48681655Y-75530337D01*
X48667612Y-75560880D01*
X48660629Y-75575479D01*
X48654924Y-75586330D01*
X48651555Y-75591443D01*
X48651269Y-75591601D01*
X48646663Y-75589884D01*
X48635471Y-75585030D01*
X48619127Y-75577681D01*
X48599064Y-75568478D01*
X48586993Y-75562872D01*
X48472186Y-75504996D01*
X48358057Y-75438933D01*
X48245566Y-75365358D01*
X48135676Y-75284945D01*
X48029345Y-75198367D01*
X47927536Y-75106300D01*
X47904037Y-75083614D01*
X47879139Y-75058073D01*
X47860626Y-75035855D01*
X47847571Y-75015272D01*
X47839049Y-74994632D01*
X47834132Y-74972244D01*
X47832206Y-74952500D01*
X47833262Y-74916350D01*
X47841477Y-74883687D01*
X47857154Y-74852519D01*
X47862778Y-74845866D01*
X47874721Y-74833662D01*
X47892651Y-74816214D01*
X47916235Y-74793835D01*
X47945142Y-74766832D01*
X47979040Y-74735517D01*
X48017595Y-74700199D01*
X48060478Y-74661187D01*
X48107354Y-74618793D01*
X48117235Y-74609885D01*
X48167047Y-74564933D01*
X48210576Y-74525495D01*
X48248190Y-74491224D01*
X48280259Y-74461773D01*
X48289950Y-74452771D01*
X48428961Y-74452771D01*
X48432427Y-74475835D01*
X48435102Y-74483606D01*
X48441092Y-74494270D01*
X48451133Y-74506825D01*
X48465898Y-74521923D01*
X48486063Y-74540218D01*
X48512304Y-74562360D01*
X48538617Y-74583678D01*
X48644062Y-74662417D01*
X48753757Y-74733477D01*
X48867388Y-74796725D01*
X48984640Y-74852024D01*
X49105197Y-74899242D01*
X49228744Y-74938244D01*
X49354966Y-74968894D01*
X49483547Y-74991059D01*
X49498413Y-74993051D01*
X49540793Y-74998387D01*
X49575454Y-75002303D01*
X49603423Y-75004827D01*
X49625726Y-75005990D01*
X49643392Y-75005820D01*
X49657447Y-75004349D01*
X49668918Y-75001604D01*
X49677548Y-74998226D01*
X49691888Y-74989626D01*
X49706391Y-74978025D01*
X49710469Y-74974033D01*
X49725658Y-74958066D01*
X49720443Y-74929760D01*
X49718939Y-74916792D01*
X49717695Y-74895556D01*
X49716708Y-74865944D01*
X49715976Y-74827846D01*
X49715496Y-74781153D01*
X49715267Y-74725757D01*
X49715244Y-74698056D01*
X49715262Y-74494658D01*
X49786152Y-74493692D01*
X49786152Y-74698114D01*
X49786246Y-74744661D01*
X49786519Y-74787311D01*
X49786956Y-74825293D01*
X49787540Y-74857837D01*
X49788258Y-74884173D01*
X49789093Y-74903532D01*
X49790031Y-74915142D01*
X49790483Y-74917635D01*
X49802224Y-74943344D01*
X49820586Y-74964267D01*
X49844158Y-74979371D01*
X49871529Y-74987624D01*
X49887869Y-74988869D01*
X49901605Y-74988373D01*
X49921629Y-74987051D01*
X49945422Y-74985094D01*
X49970465Y-74982695D01*
X49974547Y-74982270D01*
X50106356Y-74963994D01*
X50235342Y-74937337D01*
X50361320Y-74902376D01*
X50484104Y-74859189D01*
X50603510Y-74807855D01*
X50719353Y-74748452D01*
X50831449Y-74681058D01*
X50939613Y-74605752D01*
X51028319Y-74535583D01*
X51054852Y-74512077D01*
X51074324Y-74491558D01*
X51087515Y-74472874D01*
X51095203Y-74454873D01*
X51098168Y-74436402D01*
X51098264Y-74432090D01*
X51097283Y-74419241D01*
X51092963Y-74411193D01*
X51083857Y-74404356D01*
X51076894Y-74398833D01*
X51064716Y-74387930D01*
X51048318Y-74372592D01*
X51028699Y-74353762D01*
X51006855Y-74332387D01*
X50985908Y-74311544D01*
X50902366Y-74227749D01*
X50924957Y-74205158D01*
X50936086Y-74193297D01*
X50944153Y-74183302D01*
X50947530Y-74177206D01*
X50947548Y-74176958D01*
X50950538Y-74178501D01*
X50958988Y-74185617D01*
X50972121Y-74197578D01*
X50989157Y-74213658D01*
X51009317Y-74233131D01*
X51031825Y-74255271D01*
X51037328Y-74260739D01*
X51067282Y-74290203D01*
X51093074Y-74314826D01*
X51114277Y-74334222D01*
X51130465Y-74348005D01*
X51141214Y-74355791D01*
X51143573Y-74357011D01*
X51167548Y-74362964D01*
X51194031Y-74363038D01*
X51219003Y-74357352D01*
X51225529Y-74354575D01*
X51240715Y-74344393D01*
X51259119Y-74327267D01*
X51275523Y-74309138D01*
X51359302Y-74204162D01*
X51435008Y-74095555D01*
X51502611Y-73983388D01*
X51562079Y-73867732D01*
X51613383Y-73748657D01*
X51656490Y-73626233D01*
X51691371Y-73500532D01*
X51717994Y-73371624D01*
X51734141Y-73259290D01*
X51738387Y-73219575D01*
X51740961Y-73187484D01*
X51741854Y-73161937D01*
X51741059Y-73141850D01*
X51738569Y-73126141D01*
X51734375Y-73113727D01*
X51733090Y-73111071D01*
X51723724Y-73096553D01*
X51712218Y-73083328D01*
X51709381Y-73080758D01*
X51698544Y-73073012D01*
X51689001Y-73070725D01*
X51679265Y-73071964D01*
X51672843Y-73072398D01*
X51658126Y-73072843D01*
X51635687Y-73073295D01*
X51606097Y-73073748D01*
X51569927Y-73074197D01*
X51527750Y-73074636D01*
X51480136Y-73075060D01*
X51427658Y-73075464D01*
X51370886Y-73075842D01*
X51310392Y-73076190D01*
X51246749Y-73076502D01*
X51180526Y-73076772D01*
X51145401Y-73076894D01*
X51066674Y-73077147D01*
X50996344Y-73077359D01*
X50933941Y-73077524D01*
X50878998Y-73077636D01*
X50831045Y-73077690D01*
X50789613Y-73077681D01*
X50754234Y-73077602D01*
X50724439Y-73077448D01*
X50699760Y-73077213D01*
X50679726Y-73076892D01*
X50663870Y-73076480D01*
X50651723Y-73075970D01*
X50642816Y-73075356D01*
X50636680Y-73074634D01*
X50632846Y-73073798D01*
X50630846Y-73072842D01*
X50630210Y-73071761D01*
X50630398Y-73070725D01*
X50633514Y-73060018D01*
X50635160Y-73051779D01*
X50637042Y-73039693D01*
X50639295Y-73025261D01*
X50639470Y-73024147D01*
X50642059Y-73007597D01*
X51148320Y-73006416D01*
X51226163Y-73006229D01*
X51295634Y-73006048D01*
X51357226Y-73005862D01*
X51411431Y-73005664D01*
X51458743Y-73005444D01*
X51499655Y-73005193D01*
X51534660Y-73004902D01*
X51564251Y-73004563D01*
X51588922Y-73004166D01*
X51609165Y-73003702D01*
X51625473Y-73003163D01*
X51638340Y-73002540D01*
X51648259Y-73001823D01*
X51655723Y-73001004D01*
X51661225Y-73000073D01*
X51665258Y-72999023D01*
X51668315Y-72997843D01*
X51670096Y-72996958D01*
X51693833Y-72981249D01*
X51710271Y-72962698D01*
X51720159Y-72939941D01*
X51724244Y-72911619D01*
X51724414Y-72898034D01*
X51722017Y-72849534D01*
X51716544Y-72794528D01*
X51708305Y-72734701D01*
X51697608Y-72671742D01*
X51684762Y-72607337D01*
X51670076Y-72543174D01*
X51653860Y-72480939D01*
X51638524Y-72428969D01*
X51603035Y-72327310D01*
X51560507Y-72225398D01*
X51511745Y-72124682D01*
X51457556Y-72026610D01*
X51398747Y-71932630D01*
X51336123Y-71844190D01*
X51270491Y-71762738D01*
X51262338Y-71753372D01*
X51236721Y-71726949D01*
X51212981Y-71708617D01*
X51190223Y-71698047D01*
X51167550Y-71694910D01*
X51144066Y-71698876D01*
X51129294Y-71704492D01*
X51123555Y-71708792D01*
X51111978Y-71719019D01*
X51094949Y-71734786D01*
X51072855Y-71755707D01*
X51046082Y-71781396D01*
X51015017Y-71811467D01*
X50980045Y-71845532D01*
X50941554Y-71883207D01*
X50899930Y-71924105D01*
X50855559Y-71967839D01*
X50808828Y-72014024D01*
X50760124Y-72062272D01*
X50709832Y-72112198D01*
X50658339Y-72163416D01*
X50606032Y-72215539D01*
X50553297Y-72268181D01*
X50500520Y-72320956D01*
X50448089Y-72373478D01*
X50396389Y-72425359D01*
X50345807Y-72476215D01*
X50296730Y-72525659D01*
X50249543Y-72573304D01*
X50204634Y-72618764D01*
X50162389Y-72661653D01*
X50123194Y-72701586D01*
X50087435Y-72738174D01*
X50055500Y-72771033D01*
X50027774Y-72799776D01*
X50004645Y-72824017D01*
X49986498Y-72843369D01*
X49973720Y-72857447D01*
X49966697Y-72865863D01*
X49965576Y-72867579D01*
X49956308Y-72895048D01*
X49955654Y-72922239D01*
X49963396Y-72948120D01*
X49979315Y-72971655D01*
X49989719Y-72981748D01*
X50004420Y-72992065D01*
X50020625Y-73000182D01*
X50027746Y-73002557D01*
X50038492Y-73004060D01*
X50057404Y-73005315D01*
X50083787Y-73006301D01*
X50116943Y-73006997D01*
X50156176Y-73007380D01*
X50184245Y-73007450D01*
X50321308Y-73007450D01*
X50323679Y-73035156D01*
X50325449Y-73051179D01*
X50327623Y-73064479D01*
X50329318Y-73070944D01*
X50329825Y-73073042D01*
X50328926Y-73074734D01*
X50325795Y-73076056D01*
X50319607Y-73077043D01*
X50309537Y-73077734D01*
X50294761Y-73078164D01*
X50274452Y-73078369D01*
X50247787Y-73078388D01*
X50213940Y-73078255D01*
X50172086Y-73078008D01*
X50170210Y-73077996D01*
X50127889Y-73077747D01*
X50093539Y-73077619D01*
X50066265Y-73077651D01*
X50045172Y-73077880D01*
X50029365Y-73078346D01*
X50017949Y-73079087D01*
X50010030Y-73080142D01*
X50004714Y-73081551D01*
X50001104Y-73083351D01*
X49998475Y-73085428D01*
X49983380Y-73104689D01*
X49974128Y-73128463D01*
X49971060Y-73154314D01*
X49974514Y-73179805D01*
X49982666Y-73199095D01*
X49987235Y-73204659D01*
X49997683Y-73216059D01*
X50013601Y-73232879D01*
X50034581Y-73254703D01*
X50060216Y-73281114D01*
X50090097Y-73311697D01*
X50123817Y-73346036D01*
X50160968Y-73383714D01*
X50201141Y-73424317D01*
X50243930Y-73467427D01*
X50288925Y-73512630D01*
X50335719Y-73559509D01*
X50356933Y-73580719D01*
X50719934Y-73943428D01*
X50706144Y-73957507D01*
X50694824Y-73969912D01*
X50684421Y-73982623D01*
X50682740Y-73984885D01*
X50673125Y-73998183D01*
X50307032Y-73632477D01*
X50259275Y-73584707D01*
X50213077Y-73538371D01*
X50168849Y-73493888D01*
X50127002Y-73451678D01*
X50087949Y-73412161D01*
X50052102Y-73375756D01*
X50019872Y-73342883D01*
X49991671Y-73313961D01*
X49967912Y-73289410D01*
X49949006Y-73269650D01*
X49935364Y-73255099D01*
X49927400Y-73246178D01*
X49925712Y-73244016D01*
X49913348Y-73228666D01*
X49900331Y-73220300D01*
X49884458Y-73218183D01*
X49863524Y-73221579D01*
X49860647Y-73222301D01*
X49834044Y-73233393D01*
X49812017Y-73251174D01*
X49798301Y-73270351D01*
X49788369Y-73288934D01*
X49785983Y-74164958D01*
X49776094Y-74161773D01*
X49766205Y-74159990D01*
X49751368Y-74158815D01*
X49740596Y-74158545D01*
X49714987Y-74158503D01*
X49715356Y-73715404D01*
X49715725Y-73272304D01*
X49705502Y-73261195D01*
X49685490Y-73245669D01*
X49661180Y-73236620D01*
X49634703Y-73234420D01*
X49608193Y-73239446D01*
X49599974Y-73242675D01*
X49594339Y-73246925D01*
X49582871Y-73257092D01*
X49565956Y-73272790D01*
X49543978Y-73293636D01*
X49517323Y-73319243D01*
X49486377Y-73349227D01*
X49451524Y-73383203D01*
X49413149Y-73420785D01*
X49371639Y-73461590D01*
X49327378Y-73505231D01*
X49280751Y-73551324D01*
X49232144Y-73599484D01*
X49181941Y-73649326D01*
X49130529Y-73700465D01*
X49078292Y-73752516D01*
X49025615Y-73805093D01*
X48972884Y-73857812D01*
X48920485Y-73910289D01*
X48868801Y-73962137D01*
X48818219Y-74012972D01*
X48769123Y-74062409D01*
X48721900Y-74110062D01*
X48676933Y-74155548D01*
X48634609Y-74198480D01*
X48595313Y-74238475D01*
X48559429Y-74275146D01*
X48527344Y-74308109D01*
X48499441Y-74336979D01*
X48476108Y-74361371D01*
X48457728Y-74380900D01*
X48444687Y-74395181D01*
X48437370Y-74403829D01*
X48435942Y-74406002D01*
X48430148Y-74428088D01*
X48428961Y-74452771D01*
X48289950Y-74452771D01*
X48307150Y-74436795D01*
X48329233Y-74415943D01*
G37*
G36*
X52440294Y-73383070D02*
G01*
X52455936Y-73384947D01*
X52458028Y-73385264D01*
X52474647Y-73388100D01*
X52484308Y-73390764D01*
X52488857Y-73394127D01*
X52490139Y-73399061D01*
X52490166Y-73400422D01*
X52489437Y-73408014D01*
X52487417Y-73422683D01*
X52484355Y-73442776D01*
X52480503Y-73466639D01*
X52477045Y-73487183D01*
X52446550Y-73639189D01*
X52407706Y-73788582D01*
X52360721Y-73935060D01*
X52305805Y-74078323D01*
X52243166Y-74218068D01*
X52173014Y-74353995D01*
X52095557Y-74485803D01*
X52011005Y-74613192D01*
X51919567Y-74735858D01*
X51821451Y-74853503D01*
X51716867Y-74965824D01*
X51606024Y-75072521D01*
X51489131Y-75173292D01*
X51366397Y-75267836D01*
X51238030Y-75355853D01*
X51135943Y-75418718D01*
X51094943Y-75441915D01*
X51047734Y-75467173D01*
X50996400Y-75493478D01*
X50943020Y-75519813D01*
X50889679Y-75545163D01*
X50838457Y-75568512D01*
X50791437Y-75588845D01*
X50765803Y-75599294D01*
X50620608Y-75652549D01*
X50475426Y-75697223D01*
X50329304Y-75733551D01*
X50181288Y-75761766D01*
X50030424Y-75782100D01*
X50007063Y-75784527D01*
X49988764Y-75786130D01*
X49964951Y-75787879D01*
X49936939Y-75789709D01*
X49906043Y-75791554D01*
X49873578Y-75793349D01*
X49840857Y-75795029D01*
X49809197Y-75796528D01*
X49779911Y-75797783D01*
X49754314Y-75798727D01*
X49733720Y-75799296D01*
X49719445Y-75799424D01*
X49713011Y-75799095D01*
X49707063Y-75798664D01*
X49694158Y-75798145D01*
X49676207Y-75797602D01*
X49655384Y-75797108D01*
X49600416Y-75795293D01*
X49540091Y-75792131D01*
X49477779Y-75787850D01*
X49416847Y-75782678D01*
X49367260Y-75777594D01*
X49342419Y-75774601D01*
X49313757Y-75770821D01*
X49282751Y-75766481D01*
X49250877Y-75761811D01*
X49219610Y-75757037D01*
X49190426Y-75752387D01*
X49164803Y-75748090D01*
X49144215Y-75744373D01*
X49130140Y-75741465D01*
X49125749Y-75740305D01*
X49122318Y-75738129D01*
X49120685Y-75733151D01*
X49120707Y-75723528D01*
X49122242Y-75707417D01*
X49122805Y-75702501D01*
X49125177Y-75684637D01*
X49127498Y-75674111D01*
X49130276Y-75669411D01*
X49134020Y-75669027D01*
X49134062Y-75669039D01*
X49145562Y-75671803D01*
X49164058Y-75675529D01*
X49187771Y-75679907D01*
X49214923Y-75684629D01*
X49243736Y-75689384D01*
X49272432Y-75693864D01*
X49298543Y-75697662D01*
X49389259Y-75708569D01*
X49484538Y-75716874D01*
X49582404Y-75722531D01*
X49680878Y-75725498D01*
X49777983Y-75725727D01*
X49871741Y-75723176D01*
X49960174Y-75717798D01*
X50005405Y-75713663D01*
X50159821Y-75693300D01*
X50311972Y-75664503D01*
X50461557Y-75627398D01*
X50608274Y-75582107D01*
X50751821Y-75528754D01*
X50891895Y-75467462D01*
X51028194Y-75398356D01*
X51160417Y-75321558D01*
X51288261Y-75237192D01*
X51411423Y-75145382D01*
X51428508Y-75131754D01*
X51516113Y-75057721D01*
X51603712Y-74976825D01*
X51689543Y-74890889D01*
X51771839Y-74801740D01*
X51848838Y-74711203D01*
X51907309Y-74636508D01*
X51990816Y-74518322D01*
X52068604Y-74394043D01*
X52140164Y-74264730D01*
X52204987Y-74131441D01*
X52262562Y-73995237D01*
X52312381Y-73857175D01*
X52353933Y-73718316D01*
X52359611Y-73696752D01*
X52369470Y-73656991D01*
X52379432Y-73613904D01*
X52389072Y-73569546D01*
X52397968Y-73525977D01*
X52405697Y-73485251D01*
X52411836Y-73449426D01*
X52415229Y-73426351D01*
X52417836Y-73408378D01*
X52420386Y-73393866D01*
X52422479Y-73384982D01*
X52423188Y-73383369D01*
X52428578Y-73382500D01*
X52440294Y-73383070D01*
G37*
D13*
%TO.C,C4*%
X48960000Y-70418000D02*
X48960000Y-68108000D01*
X47390000Y-68108000D02*
X47390000Y-70418000D01*
X47390000Y-70418000D02*
X48960000Y-70418000D01*
%TO.C,JP1*%
X51532500Y-67583000D02*
X50932500Y-67583000D01*
X50932500Y-63483000D02*
X51532500Y-63483000D01*
X52357500Y-64358000D02*
X52657500Y-64058000D01*
X52657500Y-64658000D02*
X52657500Y-64058000D01*
X50232500Y-66933000D02*
X50232500Y-64133000D01*
X52232500Y-64133000D02*
X52232500Y-66933000D01*
X52357500Y-64358000D02*
X52657500Y-64658000D01*
X52232500Y-64183000D02*
G75*
G03*
X51532500Y-63483000I-700000J0D01*
G01*
X50232500Y-66883000D02*
G75*
G03*
X50932500Y-67583000I699999J-1D01*
G01*
X50932500Y-63483000D02*
G75*
G03*
X50232500Y-64183000I0J-700000D01*
G01*
X51532500Y-67583000D02*
G75*
G03*
X52232500Y-66883000I1J699999D01*
G01*
%TO.C,C2*%
X45303000Y-62812000D02*
X45303000Y-65122000D01*
X45303000Y-65122000D02*
X46873000Y-65122000D01*
X46873000Y-65122000D02*
X46873000Y-62812000D01*
%TO.C,R2*%
X42685936Y-42884000D02*
X43140064Y-42884000D01*
X42685936Y-41414000D02*
X43140064Y-41414000D01*
%TO.C,C5*%
X43090000Y-73143000D02*
X45400000Y-73143000D01*
X43090000Y-71573000D02*
X43090000Y-73143000D01*
X45400000Y-71573000D02*
X43090000Y-71573000D01*
%TO.C,C3*%
X50891000Y-59280000D02*
X52461000Y-59280000D01*
X52461000Y-59280000D02*
X52461000Y-56970000D01*
X50891000Y-56970000D02*
X50891000Y-59280000D01*
D14*
%TO.C,J2*%
X38950000Y-60340000D02*
X33870000Y-60340000D01*
X33870000Y-60340000D02*
X33870000Y-75580000D01*
X33870000Y-75580000D02*
X38950000Y-75580000D01*
X38950000Y-75580000D02*
X38950000Y-60340000D01*
X38950000Y-70500000D02*
X33870000Y-70500000D01*
D15*
%TO.C,IC2*%
X46325000Y-71033000D02*
G75*
G03*
X46325000Y-71033000I-125000J0D01*
G01*
D14*
%TO.C,J1*%
X38950000Y-37480000D02*
X33870000Y-37480000D01*
X33870000Y-37480000D02*
X33870000Y-52720000D01*
X38950000Y-47640000D02*
X33870000Y-47640000D01*
X38950000Y-52720000D02*
X38950000Y-37480000D01*
X33870000Y-52720000D02*
X38950000Y-52720000D01*
D13*
%TO.C,R1*%
X43140064Y-39382000D02*
X42685936Y-39382000D01*
X43140064Y-40852000D02*
X42685936Y-40852000D01*
%TO.C,C1*%
X44197000Y-51524000D02*
X44197000Y-53094000D01*
X44197000Y-53094000D02*
X46507000Y-53094000D01*
X46507000Y-51524000D02*
X44197000Y-51524000D01*
D16*
%TO.C,IC1*%
X47326000Y-54770000D02*
X49326000Y-56770000D01*
X41326000Y-60770000D02*
X41326000Y-54770000D01*
X49326000Y-60770000D02*
X41326000Y-60770000D01*
X49326000Y-56770000D02*
X49326000Y-60770000D01*
X41326000Y-54770000D02*
X47326000Y-54770000D01*
X49426000Y-54770000D02*
G75*
G03*
X49426000Y-54770000I-100000J0D01*
G01*
%TD*%
D17*
%TO.C,J2*%
X37680000Y-61610000D03*
D18*
X37680000Y-64150000D03*
X37680000Y-66690000D03*
X37680000Y-69230000D03*
X37680000Y-71770000D03*
X37680000Y-74310000D03*
X35140000Y-61610000D03*
X35140000Y-64150000D03*
X35140000Y-66690000D03*
X35140000Y-69230000D03*
X35140000Y-71770000D03*
X35140000Y-74310000D03*
%TD*%
D17*
%TO.C,J1*%
X37680000Y-38750000D03*
D18*
X37680000Y-41290000D03*
X37680000Y-43830000D03*
X37680000Y-46370000D03*
X37680000Y-48910000D03*
X37680000Y-51450000D03*
X35140000Y-38750000D03*
X35140000Y-41290000D03*
X35140000Y-43830000D03*
X35140000Y-46370000D03*
X35140000Y-48910000D03*
X35140000Y-51450000D03*
%TD*%
M02*
