M48
; DRILL file {KiCad (6.0.10)} date Thu Feb 16 13:15:50 2023
; FORMAT={-:-/ absolute / inch / decimal}
; #@! TF.CreationDate,2023-02-16T13:15:50+00:00
; #@! TF.GenerationSoftware,Kicad,Pcbnew,(6.0.10)
; #@! TF.FileFunction,MixedPlating,1,4
FMAT,2
INCH
; #@! TA.AperFunction,Plated,PTH,ViaDrill
T1C0.0130
; #@! TA.AperFunction,Plated,PTH,ComponentDrill
T2C0.0400
%
G90
G05
T1
X1.359Y-1.4302
X1.369Y-3.0202
X1.5217Y-2.1096
X1.549Y-1.4252
X1.549Y-3.0202
X1.574Y-1.5752
X1.579Y-2.7352
X1.584Y-1.6752
X1.604Y-1.8302
X1.6545Y-2.4144
X1.6575Y-2.7464
X1.674Y-2.8152
X1.6802Y-2.1417
X1.6845Y-2.3744
X1.7019Y-2.0444
X1.7019Y-2.0944
X1.719Y-1.9452
X1.724Y-2.5902
X1.7545Y-2.1344
X1.7545Y-2.5144
X1.7569Y-1.519
X1.7645Y-2.4744
X1.7695Y-1.7094
X1.7904Y-2.8015
X1.8045Y-2.1344
X1.8045Y-2.2544
X1.8443Y-2.3342
X1.8469Y-2.6977
X1.854Y-2.8302
X1.8545Y-2.1344
X1.874Y-2.4152
X1.8945Y-2.1744
X1.8945Y-2.2344
X1.8945Y-2.3144
X1.9144Y-2.6204
X1.9145Y-2.2744
X2.044Y-2.7252
T2
X1.3835Y-1.5256
X1.3835Y-1.6256
X1.3835Y-1.7256
X1.3835Y-1.8256
X1.3835Y-1.9256
X1.3835Y-2.0256
X1.3835Y-2.4256
X1.3835Y-2.5256
X1.3835Y-2.6256
X1.3835Y-2.7256
X1.3835Y-2.8256
X1.3835Y-2.9256
X1.4835Y-1.5256
X1.4835Y-1.6256
X1.4835Y-1.7256
X1.4835Y-1.8256
X1.4835Y-1.9256
X1.4835Y-2.0256
X1.4835Y-2.4256
X1.4835Y-2.5256
X1.4835Y-2.6256
X1.4835Y-2.7256
X1.4835Y-2.8256
X1.4835Y-2.9256
T0
M30
