%TF.GenerationSoftware,KiCad,Pcbnew,(6.0.10)*%
%TF.CreationDate,2023-02-16T13:15:27+00:00*%
%TF.ProjectId,hyperram-sm-x1,68797065-7272-4616-9d2d-736d2d78312e,1.0*%
%TF.SameCoordinates,Original*%
%TF.FileFunction,Copper,L2,Inr*%
%TF.FilePolarity,Positive*%
%FSLAX46Y46*%
G04 Gerber Fmt 4.6, Leading zero omitted, Abs format (unit mm)*
G04 Created by KiCad (PCBNEW (6.0.10)) date 2023-02-16 13:15:27*
%MOMM*%
%LPD*%
G01*
G04 APERTURE LIST*
%TA.AperFunction,ComponentPad*%
%ADD10R,1.524000X1.524000*%
%TD*%
%TA.AperFunction,ComponentPad*%
%ADD11C,1.524000*%
%TD*%
%TA.AperFunction,ViaPad*%
%ADD12C,0.685800*%
%TD*%
G04 APERTURE END LIST*
D10*
%TO.N,/DQ0*%
%TO.C,J2*%
X37680000Y-61610000D03*
D11*
%TO.N,/DQ1*%
X37680000Y-64150000D03*
%TO.N,/DQ2*%
X37680000Y-66690000D03*
%TO.N,/DQ3*%
X37680000Y-69230000D03*
%TO.N,GND*%
X37680000Y-71770000D03*
%TO.N,+3V3*%
X37680000Y-74310000D03*
%TO.N,/DQ7*%
X35140000Y-61610000D03*
%TO.N,/DQ6*%
X35140000Y-64150000D03*
%TO.N,/DQ5*%
X35140000Y-66690000D03*
%TO.N,/DQ4*%
X35140000Y-69230000D03*
%TO.N,GND*%
X35140000Y-71770000D03*
%TO.N,+3V3*%
X35140000Y-74310000D03*
%TD*%
D10*
%TO.N,unconnected-(J1-Pad1)*%
%TO.C,J1*%
X37680000Y-38750000D03*
D11*
%TO.N,~{CS0}*%
X37680000Y-41290000D03*
%TO.N,CK*%
X37680000Y-43830000D03*
%TO.N,~{CK}*%
X37680000Y-46370000D03*
%TO.N,GND*%
X37680000Y-48910000D03*
%TO.N,+3V3*%
X37680000Y-51450000D03*
%TO.N,unconnected-(J1-Pad7)*%
X35140000Y-38750000D03*
%TO.N,unconnected-(J1-Pad8)*%
X35140000Y-41290000D03*
%TO.N,~{RESET}*%
X35140000Y-43830000D03*
%TO.N,RWDS*%
X35140000Y-46370000D03*
%TO.N,GND*%
X35140000Y-48910000D03*
%TO.N,+3V3*%
X35140000Y-51450000D03*
%TD*%
D12*
%TO.N,~{CS0}*%
X48120000Y-55230000D03*
X48628000Y-57770000D03*
%TO.N,~{CK}*%
X47104000Y-54214000D03*
X43228800Y-51928000D03*
%TO.N,GND*%
X39345000Y-76714000D03*
X51918000Y-69221000D03*
X40234000Y-42551000D03*
X44945000Y-43419000D03*
X48120000Y-56754000D03*
X39345000Y-36201000D03*
X34519000Y-36328000D03*
X45834000Y-54214000D03*
X44818000Y-62850000D03*
X42786000Y-60310000D03*
X43663000Y-49409000D03*
X34773000Y-76714000D03*
X43790000Y-65792000D03*
X47600000Y-61347000D03*
X47092000Y-71888000D03*
X40742000Y-46488000D03*
X45475000Y-71158000D03*
X40107000Y-69475000D03*
X42520000Y-71507000D03*
X46912500Y-68520500D03*
X39980000Y-40011000D03*
%TO.N,+3V3*%
X38650000Y-53583000D03*
X42100000Y-69758000D03*
%TO.N,~{RESET}*%
X46845307Y-59289307D03*
X43228800Y-53198000D03*
%TO.N,RWDS*%
X45834000Y-57262000D03*
X42676260Y-54398959D03*
%TO.N,VCC*%
X42024000Y-61326000D03*
X48120000Y-58786000D03*
X44625000Y-38583000D03*
X48625000Y-66558000D03*
X44564000Y-63866000D03*
X44564000Y-54214000D03*
%TD*%
%TA.AperFunction,Conductor*%
%TO.N,GND*%
G36*
X52900621Y-35528502D02*
G01*
X52947114Y-35582158D01*
X52958500Y-35634500D01*
X52958500Y-77365500D01*
X52938498Y-77433621D01*
X52884842Y-77480114D01*
X52832500Y-77491500D01*
X33634500Y-77491500D01*
X33566379Y-77471498D01*
X33519886Y-77417842D01*
X33508500Y-77365500D01*
X33508500Y-74310000D01*
X33864647Y-74310000D01*
X33884022Y-74531463D01*
X33941560Y-74746196D01*
X33943882Y-74751177D01*
X33943883Y-74751178D01*
X34033186Y-74942689D01*
X34033189Y-74942694D01*
X34035512Y-74947676D01*
X34163023Y-75129781D01*
X34320219Y-75286977D01*
X34324727Y-75290134D01*
X34324730Y-75290136D01*
X34400495Y-75343187D01*
X34502323Y-75414488D01*
X34507305Y-75416811D01*
X34507310Y-75416814D01*
X34698822Y-75506117D01*
X34703804Y-75508440D01*
X34709112Y-75509862D01*
X34709114Y-75509863D01*
X34774949Y-75527503D01*
X34918537Y-75565978D01*
X35140000Y-75585353D01*
X35361463Y-75565978D01*
X35505051Y-75527503D01*
X35570886Y-75509863D01*
X35570888Y-75509862D01*
X35576196Y-75508440D01*
X35581178Y-75506117D01*
X35772690Y-75416814D01*
X35772695Y-75416811D01*
X35777677Y-75414488D01*
X35879505Y-75343187D01*
X35955270Y-75290136D01*
X35955273Y-75290134D01*
X35959781Y-75286977D01*
X36116977Y-75129781D01*
X36244488Y-74947676D01*
X36246811Y-74942694D01*
X36246814Y-74942689D01*
X36295805Y-74837627D01*
X36342723Y-74784342D01*
X36411000Y-74764881D01*
X36478960Y-74785423D01*
X36524195Y-74837627D01*
X36573186Y-74942689D01*
X36573189Y-74942694D01*
X36575512Y-74947676D01*
X36703023Y-75129781D01*
X36860219Y-75286977D01*
X36864727Y-75290134D01*
X36864730Y-75290136D01*
X36940495Y-75343187D01*
X37042323Y-75414488D01*
X37047305Y-75416811D01*
X37047310Y-75416814D01*
X37238822Y-75506117D01*
X37243804Y-75508440D01*
X37249112Y-75509862D01*
X37249114Y-75509863D01*
X37314949Y-75527503D01*
X37458537Y-75565978D01*
X37680000Y-75585353D01*
X37901463Y-75565978D01*
X38045051Y-75527503D01*
X38110886Y-75509863D01*
X38110888Y-75509862D01*
X38116196Y-75508440D01*
X38121178Y-75506117D01*
X38312690Y-75416814D01*
X38312695Y-75416811D01*
X38317677Y-75414488D01*
X38419505Y-75343187D01*
X38495270Y-75290136D01*
X38495273Y-75290134D01*
X38499781Y-75286977D01*
X38656977Y-75129781D01*
X38784488Y-74947676D01*
X38786811Y-74942694D01*
X38786814Y-74942689D01*
X38876117Y-74751178D01*
X38876118Y-74751177D01*
X38878440Y-74746196D01*
X38935978Y-74531463D01*
X38955353Y-74310000D01*
X38935978Y-74088537D01*
X38878440Y-73873804D01*
X38835805Y-73782373D01*
X38786814Y-73677311D01*
X38786811Y-73677306D01*
X38784488Y-73672324D01*
X38656977Y-73490219D01*
X38499781Y-73333023D01*
X38495273Y-73329866D01*
X38495270Y-73329864D01*
X38419505Y-73276813D01*
X38317677Y-73205512D01*
X38312695Y-73203189D01*
X38312690Y-73203186D01*
X38207035Y-73153919D01*
X38153750Y-73107002D01*
X38134289Y-73038725D01*
X38154831Y-72970765D01*
X38207035Y-72925529D01*
X38312445Y-72876376D01*
X38321931Y-72870898D01*
X38365764Y-72840207D01*
X38374139Y-72829729D01*
X38367071Y-72816281D01*
X37692812Y-72142022D01*
X37678868Y-72134408D01*
X37677035Y-72134539D01*
X37670420Y-72138790D01*
X36992207Y-72817003D01*
X36985777Y-72828777D01*
X36995074Y-72840793D01*
X37038069Y-72870898D01*
X37047555Y-72876376D01*
X37152965Y-72925529D01*
X37206250Y-72972446D01*
X37225711Y-73040723D01*
X37205169Y-73108683D01*
X37152965Y-73153919D01*
X37047311Y-73203186D01*
X37047306Y-73203189D01*
X37042324Y-73205512D01*
X37037817Y-73208668D01*
X37037815Y-73208669D01*
X36864730Y-73329864D01*
X36864727Y-73329866D01*
X36860219Y-73333023D01*
X36703023Y-73490219D01*
X36575512Y-73672324D01*
X36573189Y-73677306D01*
X36573186Y-73677311D01*
X36524195Y-73782373D01*
X36477277Y-73835658D01*
X36409000Y-73855119D01*
X36341040Y-73834577D01*
X36295805Y-73782373D01*
X36246814Y-73677311D01*
X36246811Y-73677306D01*
X36244488Y-73672324D01*
X36116977Y-73490219D01*
X35959781Y-73333023D01*
X35955273Y-73329866D01*
X35955270Y-73329864D01*
X35879505Y-73276813D01*
X35777677Y-73205512D01*
X35772695Y-73203189D01*
X35772690Y-73203186D01*
X35667035Y-73153919D01*
X35613750Y-73107002D01*
X35594289Y-73038725D01*
X35614831Y-72970765D01*
X35667035Y-72925529D01*
X35772445Y-72876376D01*
X35781931Y-72870898D01*
X35825764Y-72840207D01*
X35834139Y-72829729D01*
X35827071Y-72816281D01*
X35152812Y-72142022D01*
X35138868Y-72134408D01*
X35137035Y-72134539D01*
X35130420Y-72138790D01*
X34452207Y-72817003D01*
X34445777Y-72828777D01*
X34455074Y-72840793D01*
X34498069Y-72870898D01*
X34507555Y-72876376D01*
X34612965Y-72925529D01*
X34666250Y-72972446D01*
X34685711Y-73040723D01*
X34665169Y-73108683D01*
X34612965Y-73153919D01*
X34507311Y-73203186D01*
X34507306Y-73203189D01*
X34502324Y-73205512D01*
X34497817Y-73208668D01*
X34497815Y-73208669D01*
X34324730Y-73329864D01*
X34324727Y-73329866D01*
X34320219Y-73333023D01*
X34163023Y-73490219D01*
X34035512Y-73672324D01*
X34033189Y-73677306D01*
X34033186Y-73677311D01*
X33984195Y-73782373D01*
X33941560Y-73873804D01*
X33884022Y-74088537D01*
X33864647Y-74310000D01*
X33508500Y-74310000D01*
X33508500Y-71775475D01*
X33865628Y-71775475D01*
X33884038Y-71985896D01*
X33885941Y-71996691D01*
X33940609Y-72200715D01*
X33944355Y-72211007D01*
X34033623Y-72402441D01*
X34039103Y-72411932D01*
X34069794Y-72455765D01*
X34080271Y-72464140D01*
X34093718Y-72457072D01*
X34767978Y-71782812D01*
X34774356Y-71771132D01*
X35504408Y-71771132D01*
X35504539Y-71772965D01*
X35508790Y-71779580D01*
X36187003Y-72457793D01*
X36198777Y-72464223D01*
X36210793Y-72454926D01*
X36240897Y-72411932D01*
X36246377Y-72402441D01*
X36295805Y-72296443D01*
X36342722Y-72243158D01*
X36411000Y-72223697D01*
X36478960Y-72244239D01*
X36524195Y-72296443D01*
X36573623Y-72402441D01*
X36579103Y-72411932D01*
X36609794Y-72455765D01*
X36620271Y-72464140D01*
X36633718Y-72457072D01*
X37307978Y-71782812D01*
X37314356Y-71771132D01*
X38044408Y-71771132D01*
X38044539Y-71772965D01*
X38048790Y-71779580D01*
X38727003Y-72457793D01*
X38738777Y-72464223D01*
X38750793Y-72454926D01*
X38780897Y-72411932D01*
X38786377Y-72402441D01*
X38875645Y-72211007D01*
X38879391Y-72200715D01*
X38934059Y-71996691D01*
X38935962Y-71985896D01*
X38954372Y-71775475D01*
X38954372Y-71764525D01*
X38935962Y-71554104D01*
X38934059Y-71543309D01*
X38879391Y-71339285D01*
X38875645Y-71328993D01*
X38786377Y-71137559D01*
X38780897Y-71128068D01*
X38750206Y-71084235D01*
X38739729Y-71075860D01*
X38726282Y-71082928D01*
X38052022Y-71757188D01*
X38044408Y-71771132D01*
X37314356Y-71771132D01*
X37315592Y-71768868D01*
X37315461Y-71767035D01*
X37311210Y-71760420D01*
X36632997Y-71082207D01*
X36621223Y-71075777D01*
X36609207Y-71085074D01*
X36579103Y-71128068D01*
X36573623Y-71137559D01*
X36524195Y-71243557D01*
X36477278Y-71296842D01*
X36409000Y-71316303D01*
X36341040Y-71295761D01*
X36295805Y-71243557D01*
X36246377Y-71137559D01*
X36240897Y-71128068D01*
X36210206Y-71084235D01*
X36199729Y-71075860D01*
X36186282Y-71082928D01*
X35512022Y-71757188D01*
X35504408Y-71771132D01*
X34774356Y-71771132D01*
X34775592Y-71768868D01*
X34775461Y-71767035D01*
X34771210Y-71760420D01*
X34092997Y-71082207D01*
X34081223Y-71075777D01*
X34069207Y-71085074D01*
X34039103Y-71128068D01*
X34033623Y-71137559D01*
X33944355Y-71328993D01*
X33940609Y-71339285D01*
X33885941Y-71543309D01*
X33884038Y-71554104D01*
X33865628Y-71764525D01*
X33865628Y-71775475D01*
X33508500Y-71775475D01*
X33508500Y-69230000D01*
X33864647Y-69230000D01*
X33884022Y-69451463D01*
X33941560Y-69666196D01*
X33943882Y-69671177D01*
X33943883Y-69671178D01*
X34033186Y-69862689D01*
X34033189Y-69862694D01*
X34035512Y-69867676D01*
X34038668Y-69872183D01*
X34038669Y-69872185D01*
X34083347Y-69935991D01*
X34163023Y-70049781D01*
X34320219Y-70206977D01*
X34324727Y-70210134D01*
X34324730Y-70210136D01*
X34389487Y-70255479D01*
X34502323Y-70334488D01*
X34507305Y-70336811D01*
X34507310Y-70336814D01*
X34612965Y-70386081D01*
X34666250Y-70432998D01*
X34685711Y-70501275D01*
X34665169Y-70569235D01*
X34612965Y-70614471D01*
X34507559Y-70663623D01*
X34498068Y-70669103D01*
X34454235Y-70699794D01*
X34445860Y-70710271D01*
X34452928Y-70723718D01*
X35127188Y-71397978D01*
X35141132Y-71405592D01*
X35142965Y-71405461D01*
X35149580Y-71401210D01*
X35827793Y-70722997D01*
X35834223Y-70711223D01*
X35824926Y-70699207D01*
X35781931Y-70669102D01*
X35772445Y-70663624D01*
X35667035Y-70614471D01*
X35613750Y-70567554D01*
X35594289Y-70499277D01*
X35614831Y-70431317D01*
X35667035Y-70386081D01*
X35772690Y-70336814D01*
X35772695Y-70336811D01*
X35777677Y-70334488D01*
X35890513Y-70255479D01*
X35955270Y-70210136D01*
X35955273Y-70210134D01*
X35959781Y-70206977D01*
X36116977Y-70049781D01*
X36196654Y-69935991D01*
X36241331Y-69872185D01*
X36241332Y-69872183D01*
X36244488Y-69867676D01*
X36246811Y-69862694D01*
X36246814Y-69862689D01*
X36295805Y-69757627D01*
X36342723Y-69704342D01*
X36411000Y-69684881D01*
X36478960Y-69705423D01*
X36524195Y-69757627D01*
X36573186Y-69862689D01*
X36573189Y-69862694D01*
X36575512Y-69867676D01*
X36578668Y-69872183D01*
X36578669Y-69872185D01*
X36623347Y-69935991D01*
X36703023Y-70049781D01*
X36860219Y-70206977D01*
X36864727Y-70210134D01*
X36864730Y-70210136D01*
X36929487Y-70255479D01*
X37042323Y-70334488D01*
X37047305Y-70336811D01*
X37047310Y-70336814D01*
X37152965Y-70386081D01*
X37206250Y-70432998D01*
X37225711Y-70501275D01*
X37205169Y-70569235D01*
X37152965Y-70614471D01*
X37047559Y-70663623D01*
X37038068Y-70669103D01*
X36994235Y-70699794D01*
X36985860Y-70710271D01*
X36992928Y-70723718D01*
X37667188Y-71397978D01*
X37681132Y-71405592D01*
X37682965Y-71405461D01*
X37689580Y-71401210D01*
X38367793Y-70722997D01*
X38374223Y-70711223D01*
X38364926Y-70699207D01*
X38321931Y-70669102D01*
X38312445Y-70663624D01*
X38207035Y-70614471D01*
X38153750Y-70567554D01*
X38134289Y-70499277D01*
X38154831Y-70431317D01*
X38207035Y-70386081D01*
X38312690Y-70336814D01*
X38312695Y-70336811D01*
X38317677Y-70334488D01*
X38430513Y-70255479D01*
X38495270Y-70210136D01*
X38495273Y-70210134D01*
X38499781Y-70206977D01*
X38656977Y-70049781D01*
X38736654Y-69935991D01*
X38781331Y-69872185D01*
X38781332Y-69872183D01*
X38784488Y-69867676D01*
X38786811Y-69862694D01*
X38786814Y-69862689D01*
X38835631Y-69758000D01*
X41243910Y-69758000D01*
X41262618Y-69935991D01*
X41317923Y-70106203D01*
X41407409Y-70261197D01*
X41411827Y-70266104D01*
X41411828Y-70266105D01*
X41522742Y-70389288D01*
X41527164Y-70394199D01*
X41532506Y-70398080D01*
X41532508Y-70398082D01*
X41666613Y-70495515D01*
X41671955Y-70499396D01*
X41677983Y-70502080D01*
X41677985Y-70502081D01*
X41825041Y-70567554D01*
X41835454Y-70572190D01*
X41922984Y-70590795D01*
X42004057Y-70608028D01*
X42004061Y-70608028D01*
X42010514Y-70609400D01*
X42189486Y-70609400D01*
X42195939Y-70608028D01*
X42195943Y-70608028D01*
X42277016Y-70590795D01*
X42364546Y-70572190D01*
X42374959Y-70567554D01*
X42522015Y-70502081D01*
X42522017Y-70502080D01*
X42528045Y-70499396D01*
X42533387Y-70495515D01*
X42667492Y-70398082D01*
X42667494Y-70398080D01*
X42672836Y-70394199D01*
X42677258Y-70389288D01*
X42788172Y-70266105D01*
X42788173Y-70266104D01*
X42792591Y-70261197D01*
X42882077Y-70106203D01*
X42937382Y-69935991D01*
X42956090Y-69758000D01*
X42948405Y-69684881D01*
X42938072Y-69586573D01*
X42938072Y-69586572D01*
X42937382Y-69580009D01*
X42882077Y-69409797D01*
X42792591Y-69254803D01*
X42770259Y-69230000D01*
X42677258Y-69126712D01*
X42677257Y-69126711D01*
X42672836Y-69121801D01*
X42528045Y-69016604D01*
X42522017Y-69013920D01*
X42522015Y-69013919D01*
X42370577Y-68946495D01*
X42370576Y-68946495D01*
X42364546Y-68943810D01*
X42277016Y-68925205D01*
X42195943Y-68907972D01*
X42195939Y-68907972D01*
X42189486Y-68906600D01*
X42010514Y-68906600D01*
X42004061Y-68907972D01*
X42004057Y-68907972D01*
X41922984Y-68925205D01*
X41835454Y-68943810D01*
X41829424Y-68946495D01*
X41829423Y-68946495D01*
X41677985Y-69013919D01*
X41677983Y-69013920D01*
X41671955Y-69016604D01*
X41527164Y-69121801D01*
X41522743Y-69126711D01*
X41522742Y-69126712D01*
X41429742Y-69230000D01*
X41407409Y-69254803D01*
X41317923Y-69409797D01*
X41262618Y-69580009D01*
X41261928Y-69586572D01*
X41261928Y-69586573D01*
X41251595Y-69684881D01*
X41243910Y-69758000D01*
X38835631Y-69758000D01*
X38876117Y-69671178D01*
X38876118Y-69671177D01*
X38878440Y-69666196D01*
X38935978Y-69451463D01*
X38955353Y-69230000D01*
X38935978Y-69008537D01*
X38878440Y-68793804D01*
X38835805Y-68702373D01*
X38786814Y-68597311D01*
X38786811Y-68597306D01*
X38784488Y-68592324D01*
X38656977Y-68410219D01*
X38499781Y-68253023D01*
X38495273Y-68249866D01*
X38495270Y-68249864D01*
X38419505Y-68196813D01*
X38317677Y-68125512D01*
X38312695Y-68123189D01*
X38312690Y-68123186D01*
X38207627Y-68074195D01*
X38154342Y-68027278D01*
X38134881Y-67959001D01*
X38155423Y-67891041D01*
X38207627Y-67845805D01*
X38312690Y-67796814D01*
X38312695Y-67796811D01*
X38317677Y-67794488D01*
X38419505Y-67723187D01*
X38495270Y-67670136D01*
X38495273Y-67670134D01*
X38499781Y-67666977D01*
X38656977Y-67509781D01*
X38727265Y-67409400D01*
X38781331Y-67332185D01*
X38781332Y-67332183D01*
X38784488Y-67327676D01*
X38786811Y-67322694D01*
X38786814Y-67322689D01*
X38876117Y-67131178D01*
X38876118Y-67131177D01*
X38878440Y-67126196D01*
X38935978Y-66911463D01*
X38955353Y-66690000D01*
X38943805Y-66558000D01*
X47768910Y-66558000D01*
X47769600Y-66564565D01*
X47783360Y-66695475D01*
X47787618Y-66735991D01*
X47842923Y-66906203D01*
X47932409Y-67061197D01*
X48052164Y-67194199D01*
X48057506Y-67198080D01*
X48057508Y-67198082D01*
X48191613Y-67295515D01*
X48196955Y-67299396D01*
X48202983Y-67302080D01*
X48202985Y-67302081D01*
X48354423Y-67369505D01*
X48360454Y-67372190D01*
X48447984Y-67390795D01*
X48529057Y-67408028D01*
X48529061Y-67408028D01*
X48535514Y-67409400D01*
X48714486Y-67409400D01*
X48720939Y-67408028D01*
X48720943Y-67408028D01*
X48802016Y-67390795D01*
X48889546Y-67372190D01*
X48895577Y-67369505D01*
X49047015Y-67302081D01*
X49047017Y-67302080D01*
X49053045Y-67299396D01*
X49058387Y-67295515D01*
X49192492Y-67198082D01*
X49192494Y-67198080D01*
X49197836Y-67194199D01*
X49317591Y-67061197D01*
X49407077Y-66906203D01*
X49462382Y-66735991D01*
X49466641Y-66695475D01*
X49480400Y-66564565D01*
X49481090Y-66558000D01*
X49462382Y-66380009D01*
X49407077Y-66209797D01*
X49317591Y-66054803D01*
X49197836Y-65921801D01*
X49133049Y-65874730D01*
X49058387Y-65820485D01*
X49058386Y-65820484D01*
X49053045Y-65816604D01*
X49047017Y-65813920D01*
X49047015Y-65813919D01*
X48895577Y-65746495D01*
X48895576Y-65746495D01*
X48889546Y-65743810D01*
X48802016Y-65725205D01*
X48720943Y-65707972D01*
X48720939Y-65707972D01*
X48714486Y-65706600D01*
X48535514Y-65706600D01*
X48529061Y-65707972D01*
X48529057Y-65707972D01*
X48447984Y-65725205D01*
X48360454Y-65743810D01*
X48354424Y-65746495D01*
X48354423Y-65746495D01*
X48202985Y-65813919D01*
X48202983Y-65813920D01*
X48196955Y-65816604D01*
X48191614Y-65820484D01*
X48191613Y-65820485D01*
X48116952Y-65874730D01*
X48052164Y-65921801D01*
X47932409Y-66054803D01*
X47842923Y-66209797D01*
X47787618Y-66380009D01*
X47768910Y-66558000D01*
X38943805Y-66558000D01*
X38935978Y-66468537D01*
X38878440Y-66253804D01*
X38857919Y-66209797D01*
X38786814Y-66057311D01*
X38786811Y-66057306D01*
X38784488Y-66052324D01*
X38656977Y-65870219D01*
X38499781Y-65713023D01*
X38495273Y-65709866D01*
X38495270Y-65709864D01*
X38419505Y-65656813D01*
X38317677Y-65585512D01*
X38312695Y-65583189D01*
X38312690Y-65583186D01*
X38207627Y-65534195D01*
X38154342Y-65487278D01*
X38134881Y-65419001D01*
X38155423Y-65351041D01*
X38207627Y-65305805D01*
X38312690Y-65256814D01*
X38312695Y-65256811D01*
X38317677Y-65254488D01*
X38419505Y-65183187D01*
X38495270Y-65130136D01*
X38495273Y-65130134D01*
X38499781Y-65126977D01*
X38656977Y-64969781D01*
X38784488Y-64787676D01*
X38786811Y-64782694D01*
X38786814Y-64782689D01*
X38876117Y-64591178D01*
X38876118Y-64591177D01*
X38878440Y-64586196D01*
X38935978Y-64371463D01*
X38955353Y-64150000D01*
X38935978Y-63928537D01*
X38919221Y-63866000D01*
X43707910Y-63866000D01*
X43726618Y-64043991D01*
X43781923Y-64214203D01*
X43871409Y-64369197D01*
X43991164Y-64502199D01*
X43996506Y-64506080D01*
X43996508Y-64506082D01*
X44113633Y-64591178D01*
X44135955Y-64607396D01*
X44141983Y-64610080D01*
X44141985Y-64610081D01*
X44293423Y-64677505D01*
X44299454Y-64680190D01*
X44386984Y-64698795D01*
X44468057Y-64716028D01*
X44468061Y-64716028D01*
X44474514Y-64717400D01*
X44653486Y-64717400D01*
X44659939Y-64716028D01*
X44659943Y-64716028D01*
X44741016Y-64698795D01*
X44828546Y-64680190D01*
X44834577Y-64677505D01*
X44986015Y-64610081D01*
X44986017Y-64610080D01*
X44992045Y-64607396D01*
X45014367Y-64591178D01*
X45131492Y-64506082D01*
X45131494Y-64506080D01*
X45136836Y-64502199D01*
X45256591Y-64369197D01*
X45346077Y-64214203D01*
X45401382Y-64043991D01*
X45420090Y-63866000D01*
X45401382Y-63688009D01*
X45346077Y-63517797D01*
X45256591Y-63362803D01*
X45227253Y-63330219D01*
X45141258Y-63234712D01*
X45141257Y-63234711D01*
X45136836Y-63229801D01*
X44992045Y-63124604D01*
X44986017Y-63121920D01*
X44986015Y-63121919D01*
X44834577Y-63054495D01*
X44834576Y-63054495D01*
X44828546Y-63051810D01*
X44741016Y-63033205D01*
X44659943Y-63015972D01*
X44659939Y-63015972D01*
X44653486Y-63014600D01*
X44474514Y-63014600D01*
X44468061Y-63015972D01*
X44468057Y-63015972D01*
X44386984Y-63033205D01*
X44299454Y-63051810D01*
X44293424Y-63054495D01*
X44293423Y-63054495D01*
X44141985Y-63121919D01*
X44141983Y-63121920D01*
X44135955Y-63124604D01*
X43991164Y-63229801D01*
X43986743Y-63234711D01*
X43986742Y-63234712D01*
X43900748Y-63330219D01*
X43871409Y-63362803D01*
X43781923Y-63517797D01*
X43726618Y-63688009D01*
X43707910Y-63866000D01*
X38919221Y-63866000D01*
X38878440Y-63713804D01*
X38869727Y-63695119D01*
X38786814Y-63517311D01*
X38786811Y-63517306D01*
X38784488Y-63512324D01*
X38781331Y-63507815D01*
X38660136Y-63334730D01*
X38660134Y-63334727D01*
X38656977Y-63330219D01*
X38499781Y-63173023D01*
X38495273Y-63169866D01*
X38495270Y-63169864D01*
X38409365Y-63109713D01*
X38365037Y-63054256D01*
X38357728Y-62983637D01*
X38389759Y-62920276D01*
X38450960Y-62884291D01*
X38481636Y-62880500D01*
X38490134Y-62880500D01*
X38552316Y-62873745D01*
X38688705Y-62822615D01*
X38805261Y-62735261D01*
X38892615Y-62618705D01*
X38943745Y-62482316D01*
X38950500Y-62420134D01*
X38950500Y-61326000D01*
X41167910Y-61326000D01*
X41186618Y-61503991D01*
X41188658Y-61510269D01*
X41188658Y-61510270D01*
X41218989Y-61603620D01*
X41241923Y-61674203D01*
X41331409Y-61829197D01*
X41451164Y-61962199D01*
X41456506Y-61966080D01*
X41456508Y-61966082D01*
X41573633Y-62051178D01*
X41595955Y-62067396D01*
X41601983Y-62070080D01*
X41601985Y-62070081D01*
X41753423Y-62137505D01*
X41759454Y-62140190D01*
X41846984Y-62158795D01*
X41928057Y-62176028D01*
X41928061Y-62176028D01*
X41934514Y-62177400D01*
X42113486Y-62177400D01*
X42119939Y-62176028D01*
X42119943Y-62176028D01*
X42201016Y-62158795D01*
X42288546Y-62140190D01*
X42294577Y-62137505D01*
X42446015Y-62070081D01*
X42446017Y-62070080D01*
X42452045Y-62067396D01*
X42474367Y-62051178D01*
X42591492Y-61966082D01*
X42591494Y-61966080D01*
X42596836Y-61962199D01*
X42716591Y-61829197D01*
X42806077Y-61674203D01*
X42829011Y-61603620D01*
X42859342Y-61510270D01*
X42859342Y-61510269D01*
X42861382Y-61503991D01*
X42880090Y-61326000D01*
X42861382Y-61148009D01*
X42806077Y-60977797D01*
X42716591Y-60822803D01*
X42687253Y-60790219D01*
X42601258Y-60694712D01*
X42601257Y-60694711D01*
X42596836Y-60689801D01*
X42465128Y-60594109D01*
X42457387Y-60588485D01*
X42457386Y-60588484D01*
X42452045Y-60584604D01*
X42446017Y-60581920D01*
X42446015Y-60581919D01*
X42294577Y-60514495D01*
X42294576Y-60514495D01*
X42288546Y-60511810D01*
X42194966Y-60491919D01*
X42119943Y-60475972D01*
X42119939Y-60475972D01*
X42113486Y-60474600D01*
X41934514Y-60474600D01*
X41928061Y-60475972D01*
X41928057Y-60475972D01*
X41853034Y-60491919D01*
X41759454Y-60511810D01*
X41753424Y-60514495D01*
X41753423Y-60514495D01*
X41601985Y-60581919D01*
X41601983Y-60581920D01*
X41595955Y-60584604D01*
X41590614Y-60588484D01*
X41590613Y-60588485D01*
X41582873Y-60594109D01*
X41451164Y-60689801D01*
X41446743Y-60694711D01*
X41446742Y-60694712D01*
X41360748Y-60790219D01*
X41331409Y-60822803D01*
X41241923Y-60977797D01*
X41186618Y-61148009D01*
X41167910Y-61326000D01*
X38950500Y-61326000D01*
X38950500Y-60799866D01*
X38943745Y-60737684D01*
X38892615Y-60601295D01*
X38805261Y-60484739D01*
X38688705Y-60397385D01*
X38552316Y-60346255D01*
X38490134Y-60339500D01*
X36869866Y-60339500D01*
X36807684Y-60346255D01*
X36671295Y-60397385D01*
X36554739Y-60484739D01*
X36467385Y-60601295D01*
X36416255Y-60737684D01*
X36409500Y-60799866D01*
X36409500Y-60808364D01*
X36389498Y-60876485D01*
X36335842Y-60922978D01*
X36265568Y-60933082D01*
X36200988Y-60903588D01*
X36180287Y-60880635D01*
X36120136Y-60794730D01*
X36120134Y-60794727D01*
X36116977Y-60790219D01*
X35959781Y-60633023D01*
X35955273Y-60629866D01*
X35955270Y-60629864D01*
X35879505Y-60576813D01*
X35777677Y-60505512D01*
X35772695Y-60503189D01*
X35772690Y-60503186D01*
X35581178Y-60413883D01*
X35581177Y-60413882D01*
X35576196Y-60411560D01*
X35570888Y-60410138D01*
X35570886Y-60410137D01*
X35505051Y-60392497D01*
X35361463Y-60354022D01*
X35140000Y-60334647D01*
X34918537Y-60354022D01*
X34774949Y-60392497D01*
X34709114Y-60410137D01*
X34709112Y-60410138D01*
X34703804Y-60411560D01*
X34698823Y-60413882D01*
X34698822Y-60413883D01*
X34507311Y-60503186D01*
X34507306Y-60503189D01*
X34502324Y-60505512D01*
X34497817Y-60508668D01*
X34497815Y-60508669D01*
X34324730Y-60629864D01*
X34324727Y-60629866D01*
X34320219Y-60633023D01*
X34163023Y-60790219D01*
X34159866Y-60794727D01*
X34159864Y-60794730D01*
X34102619Y-60876485D01*
X34035512Y-60972324D01*
X34033189Y-60977306D01*
X34033186Y-60977311D01*
X33943883Y-61168822D01*
X33941560Y-61173804D01*
X33884022Y-61388537D01*
X33864647Y-61610000D01*
X33884022Y-61831463D01*
X33941560Y-62046196D01*
X33943882Y-62051177D01*
X33943883Y-62051178D01*
X34033186Y-62242689D01*
X34033189Y-62242694D01*
X34035512Y-62247676D01*
X34038668Y-62252183D01*
X34038669Y-62252185D01*
X34158647Y-62423531D01*
X34163023Y-62429781D01*
X34320219Y-62586977D01*
X34324727Y-62590134D01*
X34324730Y-62590136D01*
X34353523Y-62610297D01*
X34502323Y-62714488D01*
X34507305Y-62716811D01*
X34507310Y-62716814D01*
X34612373Y-62765805D01*
X34665658Y-62812722D01*
X34685119Y-62880999D01*
X34664577Y-62948959D01*
X34612373Y-62994195D01*
X34507311Y-63043186D01*
X34507306Y-63043189D01*
X34502324Y-63045512D01*
X34497817Y-63048668D01*
X34497815Y-63048669D01*
X34324730Y-63169864D01*
X34324727Y-63169866D01*
X34320219Y-63173023D01*
X34163023Y-63330219D01*
X34159866Y-63334727D01*
X34159864Y-63334730D01*
X34038669Y-63507815D01*
X34035512Y-63512324D01*
X34033189Y-63517306D01*
X34033186Y-63517311D01*
X33950273Y-63695119D01*
X33941560Y-63713804D01*
X33884022Y-63928537D01*
X33864647Y-64150000D01*
X33884022Y-64371463D01*
X33941560Y-64586196D01*
X33943882Y-64591177D01*
X33943883Y-64591178D01*
X34033186Y-64782689D01*
X34033189Y-64782694D01*
X34035512Y-64787676D01*
X34163023Y-64969781D01*
X34320219Y-65126977D01*
X34324727Y-65130134D01*
X34324730Y-65130136D01*
X34400495Y-65183187D01*
X34502323Y-65254488D01*
X34507305Y-65256811D01*
X34507310Y-65256814D01*
X34612373Y-65305805D01*
X34665658Y-65352722D01*
X34685119Y-65420999D01*
X34664577Y-65488959D01*
X34612373Y-65534195D01*
X34507311Y-65583186D01*
X34507306Y-65583189D01*
X34502324Y-65585512D01*
X34497817Y-65588668D01*
X34497815Y-65588669D01*
X34324730Y-65709864D01*
X34324727Y-65709866D01*
X34320219Y-65713023D01*
X34163023Y-65870219D01*
X34035512Y-66052324D01*
X34033189Y-66057306D01*
X34033186Y-66057311D01*
X33962081Y-66209797D01*
X33941560Y-66253804D01*
X33884022Y-66468537D01*
X33864647Y-66690000D01*
X33884022Y-66911463D01*
X33941560Y-67126196D01*
X33943882Y-67131177D01*
X33943883Y-67131178D01*
X34033186Y-67322689D01*
X34033189Y-67322694D01*
X34035512Y-67327676D01*
X34038668Y-67332183D01*
X34038669Y-67332185D01*
X34092736Y-67409400D01*
X34163023Y-67509781D01*
X34320219Y-67666977D01*
X34324727Y-67670134D01*
X34324730Y-67670136D01*
X34400495Y-67723187D01*
X34502323Y-67794488D01*
X34507305Y-67796811D01*
X34507310Y-67796814D01*
X34612373Y-67845805D01*
X34665658Y-67892722D01*
X34685119Y-67960999D01*
X34664577Y-68028959D01*
X34612373Y-68074195D01*
X34507311Y-68123186D01*
X34507306Y-68123189D01*
X34502324Y-68125512D01*
X34497817Y-68128668D01*
X34497815Y-68128669D01*
X34324730Y-68249864D01*
X34324727Y-68249866D01*
X34320219Y-68253023D01*
X34163023Y-68410219D01*
X34035512Y-68592324D01*
X34033189Y-68597306D01*
X34033186Y-68597311D01*
X33984195Y-68702373D01*
X33941560Y-68793804D01*
X33884022Y-69008537D01*
X33864647Y-69230000D01*
X33508500Y-69230000D01*
X33508500Y-59289307D01*
X45989217Y-59289307D01*
X46007925Y-59467298D01*
X46063230Y-59637510D01*
X46152716Y-59792504D01*
X46272471Y-59925506D01*
X46417262Y-60030703D01*
X46423290Y-60033387D01*
X46423292Y-60033388D01*
X46574730Y-60100812D01*
X46580761Y-60103497D01*
X46668291Y-60122102D01*
X46749364Y-60139335D01*
X46749368Y-60139335D01*
X46755821Y-60140707D01*
X46934793Y-60140707D01*
X46941246Y-60139335D01*
X46941250Y-60139335D01*
X47022323Y-60122102D01*
X47109853Y-60103497D01*
X47115884Y-60100812D01*
X47267322Y-60033388D01*
X47267324Y-60033387D01*
X47273352Y-60030703D01*
X47418143Y-59925506D01*
X47537898Y-59792504D01*
X47627384Y-59637510D01*
X47628118Y-59635250D01*
X47673085Y-59582349D01*
X47741013Y-59561701D01*
X47793457Y-59572588D01*
X47849419Y-59597504D01*
X47849427Y-59597507D01*
X47855454Y-59600190D01*
X47942984Y-59618795D01*
X48024057Y-59636028D01*
X48024061Y-59636028D01*
X48030514Y-59637400D01*
X48209486Y-59637400D01*
X48215939Y-59636028D01*
X48215943Y-59636028D01*
X48297016Y-59618795D01*
X48384546Y-59600190D01*
X48424618Y-59582349D01*
X48542015Y-59530081D01*
X48542017Y-59530080D01*
X48548045Y-59527396D01*
X48571339Y-59510472D01*
X48687492Y-59426082D01*
X48687494Y-59426080D01*
X48692836Y-59422199D01*
X48812591Y-59289197D01*
X48902077Y-59134203D01*
X48957382Y-58963991D01*
X48976090Y-58786000D01*
X48961661Y-58648721D01*
X48974433Y-58578884D01*
X49022935Y-58527037D01*
X49035717Y-58520447D01*
X49056045Y-58511396D01*
X49107867Y-58473745D01*
X49195492Y-58410082D01*
X49195494Y-58410080D01*
X49200836Y-58406199D01*
X49320591Y-58273197D01*
X49375168Y-58178668D01*
X49406773Y-58123926D01*
X49406774Y-58123925D01*
X49410077Y-58118203D01*
X49439073Y-58028963D01*
X49463342Y-57954270D01*
X49463342Y-57954269D01*
X49465382Y-57947991D01*
X49470616Y-57898199D01*
X49483400Y-57776565D01*
X49484090Y-57770000D01*
X49465382Y-57592009D01*
X49410077Y-57421797D01*
X49320591Y-57266803D01*
X49200836Y-57133801D01*
X49132304Y-57084009D01*
X49061387Y-57032485D01*
X49061386Y-57032484D01*
X49056045Y-57028604D01*
X49050017Y-57025920D01*
X49050015Y-57025919D01*
X48898577Y-56958495D01*
X48898576Y-56958495D01*
X48892546Y-56955810D01*
X48805016Y-56937205D01*
X48723943Y-56919972D01*
X48723939Y-56919972D01*
X48717486Y-56918600D01*
X48538514Y-56918600D01*
X48532061Y-56919972D01*
X48532057Y-56919972D01*
X48450984Y-56937205D01*
X48363454Y-56955810D01*
X48357424Y-56958495D01*
X48357423Y-56958495D01*
X48205985Y-57025919D01*
X48205983Y-57025920D01*
X48199955Y-57028604D01*
X48194614Y-57032484D01*
X48194613Y-57032485D01*
X48123697Y-57084009D01*
X48055164Y-57133801D01*
X47935409Y-57266803D01*
X47845923Y-57421797D01*
X47790618Y-57592009D01*
X47771910Y-57770000D01*
X47784869Y-57893288D01*
X47786339Y-57907278D01*
X47773567Y-57977116D01*
X47725065Y-58028963D01*
X47712283Y-58035553D01*
X47691955Y-58044604D01*
X47686614Y-58048484D01*
X47686613Y-58048485D01*
X47582778Y-58123926D01*
X47547164Y-58149801D01*
X47427409Y-58282803D01*
X47424108Y-58288521D01*
X47359002Y-58401288D01*
X47337923Y-58437797D01*
X47337189Y-58440057D01*
X47292222Y-58492958D01*
X47224294Y-58513606D01*
X47171850Y-58502719D01*
X47115888Y-58477803D01*
X47115880Y-58477800D01*
X47109853Y-58475117D01*
X47022323Y-58456512D01*
X46941250Y-58439279D01*
X46941246Y-58439279D01*
X46934793Y-58437907D01*
X46755821Y-58437907D01*
X46749368Y-58439279D01*
X46749364Y-58439279D01*
X46668291Y-58456512D01*
X46580761Y-58475117D01*
X46574731Y-58477802D01*
X46574730Y-58477802D01*
X46423292Y-58545226D01*
X46423290Y-58545227D01*
X46417262Y-58547911D01*
X46411921Y-58551791D01*
X46411920Y-58551792D01*
X46278508Y-58648722D01*
X46272471Y-58653108D01*
X46152716Y-58786110D01*
X46063230Y-58941104D01*
X46007925Y-59111316D01*
X45989217Y-59289307D01*
X33508500Y-59289307D01*
X33508500Y-57262000D01*
X44977910Y-57262000D01*
X44996618Y-57439991D01*
X45051923Y-57610203D01*
X45141409Y-57765197D01*
X45261164Y-57898199D01*
X45266506Y-57902080D01*
X45266508Y-57902082D01*
X45393047Y-57994018D01*
X45405955Y-58003396D01*
X45411983Y-58006080D01*
X45411985Y-58006081D01*
X45498510Y-58044604D01*
X45569454Y-58076190D01*
X45656984Y-58094795D01*
X45738057Y-58112028D01*
X45738061Y-58112028D01*
X45744514Y-58113400D01*
X45923486Y-58113400D01*
X45929939Y-58112028D01*
X45929943Y-58112028D01*
X46011016Y-58094795D01*
X46098546Y-58076190D01*
X46169490Y-58044604D01*
X46256015Y-58006081D01*
X46256017Y-58006080D01*
X46262045Y-58003396D01*
X46274953Y-57994018D01*
X46401492Y-57902082D01*
X46401494Y-57902080D01*
X46406836Y-57898199D01*
X46526591Y-57765197D01*
X46616077Y-57610203D01*
X46671382Y-57439991D01*
X46690090Y-57262000D01*
X46677132Y-57138712D01*
X46672072Y-57090573D01*
X46672072Y-57090572D01*
X46671382Y-57084009D01*
X46652508Y-57025919D01*
X46618119Y-56920082D01*
X46616077Y-56913797D01*
X46526591Y-56758803D01*
X46406836Y-56625801D01*
X46262045Y-56520604D01*
X46256017Y-56517920D01*
X46256015Y-56517919D01*
X46104577Y-56450495D01*
X46104576Y-56450495D01*
X46098546Y-56447810D01*
X46011016Y-56429205D01*
X45929943Y-56411972D01*
X45929939Y-56411972D01*
X45923486Y-56410600D01*
X45744514Y-56410600D01*
X45738061Y-56411972D01*
X45738057Y-56411972D01*
X45656984Y-56429205D01*
X45569454Y-56447810D01*
X45563424Y-56450495D01*
X45563423Y-56450495D01*
X45411985Y-56517919D01*
X45411983Y-56517920D01*
X45405955Y-56520604D01*
X45261164Y-56625801D01*
X45141409Y-56758803D01*
X45051923Y-56913797D01*
X45049881Y-56920082D01*
X45015493Y-57025919D01*
X44996618Y-57084009D01*
X44995928Y-57090572D01*
X44995928Y-57090573D01*
X44990868Y-57138712D01*
X44977910Y-57262000D01*
X33508500Y-57262000D01*
X33508500Y-51450000D01*
X33864647Y-51450000D01*
X33884022Y-51671463D01*
X33941560Y-51886196D01*
X33943882Y-51891177D01*
X33943883Y-51891178D01*
X34033186Y-52082689D01*
X34033189Y-52082694D01*
X34035512Y-52087676D01*
X34163023Y-52269781D01*
X34320219Y-52426977D01*
X34324727Y-52430134D01*
X34324730Y-52430136D01*
X34394071Y-52478689D01*
X34502323Y-52554488D01*
X34507305Y-52556811D01*
X34507310Y-52556814D01*
X34628126Y-52613151D01*
X34703804Y-52648440D01*
X34709112Y-52649862D01*
X34709114Y-52649863D01*
X34771712Y-52666636D01*
X34918537Y-52705978D01*
X35140000Y-52725353D01*
X35361463Y-52705978D01*
X35508288Y-52666636D01*
X35570886Y-52649863D01*
X35570888Y-52649862D01*
X35576196Y-52648440D01*
X35651874Y-52613151D01*
X35772690Y-52556814D01*
X35772695Y-52556811D01*
X35777677Y-52554488D01*
X35885929Y-52478689D01*
X35955270Y-52430136D01*
X35955273Y-52430134D01*
X35959781Y-52426977D01*
X36116977Y-52269781D01*
X36244488Y-52087676D01*
X36246811Y-52082694D01*
X36246814Y-52082689D01*
X36295805Y-51977627D01*
X36342723Y-51924342D01*
X36411000Y-51904881D01*
X36478960Y-51925423D01*
X36524195Y-51977627D01*
X36573186Y-52082689D01*
X36573189Y-52082694D01*
X36575512Y-52087676D01*
X36703023Y-52269781D01*
X36860219Y-52426977D01*
X36864727Y-52430134D01*
X36864730Y-52430136D01*
X36934071Y-52478689D01*
X37042323Y-52554488D01*
X37047305Y-52556811D01*
X37047310Y-52556814D01*
X37168126Y-52613151D01*
X37243804Y-52648440D01*
X37249112Y-52649862D01*
X37249114Y-52649863D01*
X37311712Y-52666636D01*
X37458537Y-52705978D01*
X37680000Y-52725353D01*
X37901463Y-52705978D01*
X38048288Y-52666636D01*
X38119263Y-52668326D01*
X38178059Y-52708120D01*
X38206007Y-52773384D01*
X38194234Y-52843398D01*
X38154959Y-52890279D01*
X38112703Y-52920980D01*
X38077164Y-52946801D01*
X38072743Y-52951711D01*
X38072742Y-52951712D01*
X38011248Y-53020009D01*
X37957409Y-53079803D01*
X37867923Y-53234797D01*
X37812618Y-53405009D01*
X37811928Y-53411572D01*
X37811928Y-53411573D01*
X37805513Y-53472604D01*
X37793910Y-53583000D01*
X37812618Y-53760991D01*
X37867923Y-53931203D01*
X37957409Y-54086197D01*
X38077164Y-54219199D01*
X38082506Y-54223080D01*
X38082508Y-54223082D01*
X38195179Y-54304942D01*
X38221955Y-54324396D01*
X38227983Y-54327080D01*
X38227985Y-54327081D01*
X38374682Y-54392394D01*
X38385454Y-54397190D01*
X38466600Y-54414438D01*
X38554057Y-54433028D01*
X38554061Y-54433028D01*
X38560514Y-54434400D01*
X38739486Y-54434400D01*
X38745939Y-54433028D01*
X38745943Y-54433028D01*
X38833400Y-54414438D01*
X38906223Y-54398959D01*
X41820170Y-54398959D01*
X41820860Y-54405524D01*
X41837930Y-54567926D01*
X41838878Y-54576950D01*
X41840918Y-54583228D01*
X41840918Y-54583229D01*
X41844353Y-54593801D01*
X41894183Y-54747162D01*
X41983669Y-54902156D01*
X42103424Y-55035158D01*
X42108766Y-55039039D01*
X42108768Y-55039041D01*
X42242873Y-55136474D01*
X42248215Y-55140355D01*
X42254243Y-55143039D01*
X42254245Y-55143040D01*
X42405683Y-55210464D01*
X42411714Y-55213149D01*
X42490992Y-55230000D01*
X42580317Y-55248987D01*
X42580321Y-55248987D01*
X42586774Y-55250359D01*
X42765746Y-55250359D01*
X42772199Y-55248987D01*
X42772203Y-55248987D01*
X42861528Y-55230000D01*
X42940806Y-55213149D01*
X42946837Y-55210464D01*
X43098275Y-55143040D01*
X43098277Y-55143039D01*
X43104305Y-55140355D01*
X43109647Y-55136474D01*
X43243752Y-55039041D01*
X43243754Y-55039039D01*
X43249096Y-55035158D01*
X43368851Y-54902156D01*
X43458337Y-54747162D01*
X43508167Y-54593801D01*
X43511602Y-54583229D01*
X43511602Y-54583228D01*
X43513642Y-54576950D01*
X43518422Y-54531469D01*
X43545435Y-54465813D01*
X43603656Y-54425183D01*
X43674601Y-54422480D01*
X43735746Y-54458562D01*
X43763565Y-54505703D01*
X43781923Y-54562203D01*
X43785226Y-54567925D01*
X43785227Y-54567926D01*
X43816832Y-54622668D01*
X43871409Y-54717197D01*
X43991164Y-54850199D01*
X43996506Y-54854080D01*
X43996508Y-54854082D01*
X44130613Y-54951515D01*
X44135955Y-54955396D01*
X44141983Y-54958080D01*
X44141985Y-54958081D01*
X44293423Y-55025505D01*
X44299454Y-55028190D01*
X44381974Y-55045730D01*
X44468057Y-55064028D01*
X44468061Y-55064028D01*
X44474514Y-55065400D01*
X44653486Y-55065400D01*
X44659939Y-55064028D01*
X44659943Y-55064028D01*
X44746026Y-55045730D01*
X44828546Y-55028190D01*
X44834577Y-55025505D01*
X44986015Y-54958081D01*
X44986017Y-54958080D01*
X44992045Y-54955396D01*
X44997387Y-54951515D01*
X45131492Y-54854082D01*
X45131494Y-54854080D01*
X45136836Y-54850199D01*
X45256591Y-54717197D01*
X45311168Y-54622668D01*
X45342773Y-54567926D01*
X45342774Y-54567925D01*
X45346077Y-54562203D01*
X45401382Y-54391991D01*
X45402790Y-54378600D01*
X45419400Y-54220565D01*
X45419400Y-54220563D01*
X45420090Y-54214000D01*
X46247910Y-54214000D01*
X46248600Y-54220563D01*
X46248600Y-54220565D01*
X46265211Y-54378600D01*
X46266618Y-54391991D01*
X46321923Y-54562203D01*
X46325226Y-54567925D01*
X46325227Y-54567926D01*
X46356832Y-54622668D01*
X46411409Y-54717197D01*
X46531164Y-54850199D01*
X46536506Y-54854080D01*
X46536508Y-54854082D01*
X46670613Y-54951515D01*
X46675955Y-54955396D01*
X46681983Y-54958080D01*
X46681985Y-54958081D01*
X46833423Y-55025505D01*
X46839454Y-55028190D01*
X46921974Y-55045730D01*
X47008057Y-55064028D01*
X47008061Y-55064028D01*
X47014514Y-55065400D01*
X47141273Y-55065400D01*
X47209394Y-55085402D01*
X47255887Y-55139058D01*
X47266583Y-55204571D01*
X47263910Y-55230000D01*
X47282618Y-55407991D01*
X47337923Y-55578203D01*
X47427409Y-55733197D01*
X47547164Y-55866199D01*
X47691955Y-55971396D01*
X47697983Y-55974080D01*
X47697985Y-55974081D01*
X47849423Y-56041505D01*
X47855454Y-56044190D01*
X47942984Y-56062795D01*
X48024057Y-56080028D01*
X48024061Y-56080028D01*
X48030514Y-56081400D01*
X48209486Y-56081400D01*
X48215939Y-56080028D01*
X48215943Y-56080028D01*
X48297016Y-56062795D01*
X48384546Y-56044190D01*
X48390577Y-56041505D01*
X48542015Y-55974081D01*
X48542017Y-55974080D01*
X48548045Y-55971396D01*
X48692836Y-55866199D01*
X48812591Y-55733197D01*
X48902077Y-55578203D01*
X48957382Y-55407991D01*
X48976090Y-55230000D01*
X48960892Y-55085402D01*
X48958072Y-55058573D01*
X48958072Y-55058572D01*
X48957382Y-55052009D01*
X48953169Y-55039041D01*
X48904119Y-54888082D01*
X48902077Y-54881797D01*
X48880999Y-54845288D01*
X48824345Y-54747162D01*
X48812591Y-54726803D01*
X48692836Y-54593801D01*
X48660609Y-54570386D01*
X48553387Y-54492485D01*
X48553386Y-54492484D01*
X48548045Y-54488604D01*
X48542017Y-54485920D01*
X48542015Y-54485919D01*
X48390577Y-54418495D01*
X48390576Y-54418495D01*
X48384546Y-54415810D01*
X48296945Y-54397190D01*
X48215943Y-54379972D01*
X48215939Y-54379972D01*
X48209486Y-54378600D01*
X48082727Y-54378600D01*
X48014606Y-54358598D01*
X47968113Y-54304942D01*
X47957417Y-54239428D01*
X47958668Y-54227532D01*
X47960090Y-54214000D01*
X47942932Y-54050756D01*
X47942072Y-54042573D01*
X47942072Y-54042572D01*
X47941382Y-54036009D01*
X47886077Y-53865797D01*
X47796591Y-53710803D01*
X47676836Y-53577801D01*
X47633346Y-53546203D01*
X47537387Y-53476485D01*
X47537386Y-53476484D01*
X47532045Y-53472604D01*
X47526017Y-53469920D01*
X47526015Y-53469919D01*
X47374577Y-53402495D01*
X47374576Y-53402495D01*
X47368546Y-53399810D01*
X47281016Y-53381205D01*
X47199943Y-53363972D01*
X47199939Y-53363972D01*
X47193486Y-53362600D01*
X47014514Y-53362600D01*
X47008061Y-53363972D01*
X47008057Y-53363972D01*
X46926984Y-53381205D01*
X46839454Y-53399810D01*
X46833424Y-53402495D01*
X46833423Y-53402495D01*
X46681985Y-53469919D01*
X46681983Y-53469920D01*
X46675955Y-53472604D01*
X46670614Y-53476484D01*
X46670613Y-53476485D01*
X46574655Y-53546203D01*
X46531164Y-53577801D01*
X46411409Y-53710803D01*
X46321923Y-53865797D01*
X46266618Y-54036009D01*
X46265928Y-54042572D01*
X46265928Y-54042573D01*
X46265068Y-54050756D01*
X46247910Y-54214000D01*
X45420090Y-54214000D01*
X45402932Y-54050756D01*
X45402072Y-54042573D01*
X45402072Y-54042572D01*
X45401382Y-54036009D01*
X45346077Y-53865797D01*
X45256591Y-53710803D01*
X45136836Y-53577801D01*
X45093346Y-53546203D01*
X44997387Y-53476485D01*
X44997386Y-53476484D01*
X44992045Y-53472604D01*
X44986017Y-53469920D01*
X44986015Y-53469919D01*
X44834577Y-53402495D01*
X44834576Y-53402495D01*
X44828546Y-53399810D01*
X44741016Y-53381205D01*
X44659943Y-53363972D01*
X44659939Y-53363972D01*
X44653486Y-53362600D01*
X44474514Y-53362600D01*
X44468061Y-53363972D01*
X44468057Y-53363972D01*
X44386984Y-53381205D01*
X44299454Y-53399810D01*
X44293418Y-53402497D01*
X44293419Y-53402497D01*
X44251474Y-53421171D01*
X44181106Y-53430605D01*
X44116810Y-53400498D01*
X44078997Y-53340408D01*
X44074916Y-53292893D01*
X44084200Y-53204565D01*
X44084890Y-53198000D01*
X44066182Y-53020009D01*
X44010877Y-52849797D01*
X43966760Y-52773384D01*
X43924695Y-52700525D01*
X43924693Y-52700522D01*
X43921391Y-52694803D01*
X43878629Y-52647310D01*
X43847912Y-52583303D01*
X43856676Y-52512849D01*
X43878629Y-52478689D01*
X43916971Y-52436106D01*
X43921391Y-52431197D01*
X43926078Y-52423080D01*
X44007573Y-52281926D01*
X44007574Y-52281925D01*
X44010877Y-52276203D01*
X44066182Y-52105991D01*
X44084890Y-51928000D01*
X44066182Y-51750009D01*
X44010877Y-51579797D01*
X43921391Y-51424803D01*
X43801636Y-51291801D01*
X43656845Y-51186604D01*
X43650817Y-51183920D01*
X43650815Y-51183919D01*
X43499377Y-51116495D01*
X43499376Y-51116495D01*
X43493346Y-51113810D01*
X43405816Y-51095205D01*
X43324743Y-51077972D01*
X43324739Y-51077972D01*
X43318286Y-51076600D01*
X43139314Y-51076600D01*
X43132861Y-51077972D01*
X43132857Y-51077972D01*
X43051784Y-51095205D01*
X42964254Y-51113810D01*
X42958224Y-51116495D01*
X42958223Y-51116495D01*
X42806785Y-51183919D01*
X42806783Y-51183920D01*
X42800755Y-51186604D01*
X42655964Y-51291801D01*
X42536209Y-51424803D01*
X42446723Y-51579797D01*
X42391418Y-51750009D01*
X42372710Y-51928000D01*
X42391418Y-52105991D01*
X42446723Y-52276203D01*
X42450026Y-52281925D01*
X42450027Y-52281926D01*
X42531523Y-52423080D01*
X42536209Y-52431197D01*
X42540629Y-52436106D01*
X42578971Y-52478689D01*
X42609688Y-52542697D01*
X42600924Y-52613151D01*
X42578972Y-52647310D01*
X42536209Y-52694803D01*
X42532907Y-52700522D01*
X42532905Y-52700525D01*
X42490840Y-52773384D01*
X42446723Y-52849797D01*
X42391418Y-53020009D01*
X42372710Y-53198000D01*
X42373400Y-53204565D01*
X42390011Y-53362600D01*
X42391418Y-53375991D01*
X42393458Y-53382269D01*
X42393458Y-53382270D01*
X42418187Y-53458379D01*
X42420214Y-53529347D01*
X42383552Y-53590145D01*
X42349603Y-53612422D01*
X42254245Y-53654878D01*
X42254243Y-53654879D01*
X42248215Y-53657563D01*
X42242874Y-53661443D01*
X42242873Y-53661444D01*
X42174937Y-53710803D01*
X42103424Y-53762760D01*
X42099003Y-53767670D01*
X42099002Y-53767671D01*
X42037444Y-53836039D01*
X41983669Y-53895762D01*
X41894183Y-54050756D01*
X41838878Y-54220968D01*
X41820170Y-54398959D01*
X38906223Y-54398959D01*
X38914546Y-54397190D01*
X38925318Y-54392394D01*
X39072015Y-54327081D01*
X39072017Y-54327080D01*
X39078045Y-54324396D01*
X39104821Y-54304942D01*
X39217492Y-54223082D01*
X39217494Y-54223080D01*
X39222836Y-54219199D01*
X39342591Y-54086197D01*
X39432077Y-53931203D01*
X39487382Y-53760991D01*
X39506090Y-53583000D01*
X39494487Y-53472604D01*
X39488072Y-53411573D01*
X39488072Y-53411572D01*
X39487382Y-53405009D01*
X39432077Y-53234797D01*
X39342591Y-53079803D01*
X39288753Y-53020009D01*
X39227258Y-52951712D01*
X39227257Y-52951711D01*
X39222836Y-52946801D01*
X39145041Y-52890279D01*
X39083387Y-52845485D01*
X39083386Y-52845484D01*
X39078045Y-52841604D01*
X39072017Y-52838920D01*
X39072015Y-52838919D01*
X38920577Y-52771495D01*
X38920576Y-52771495D01*
X38914546Y-52768810D01*
X38820171Y-52748750D01*
X38745943Y-52732972D01*
X38745939Y-52732972D01*
X38739486Y-52731600D01*
X38560514Y-52731600D01*
X38554054Y-52732973D01*
X38554055Y-52732973D01*
X38454412Y-52754152D01*
X38383622Y-52748750D01*
X38326989Y-52705933D01*
X38302496Y-52639295D01*
X38317917Y-52569993D01*
X38355944Y-52527693D01*
X38427409Y-52477652D01*
X38495270Y-52430136D01*
X38495273Y-52430134D01*
X38499781Y-52426977D01*
X38656977Y-52269781D01*
X38784488Y-52087676D01*
X38786811Y-52082694D01*
X38786814Y-52082689D01*
X38876117Y-51891178D01*
X38876118Y-51891177D01*
X38878440Y-51886196D01*
X38935978Y-51671463D01*
X38955353Y-51450000D01*
X38935978Y-51228537D01*
X38878440Y-51013804D01*
X38835805Y-50922373D01*
X38786814Y-50817311D01*
X38786811Y-50817306D01*
X38784488Y-50812324D01*
X38656977Y-50630219D01*
X38499781Y-50473023D01*
X38495273Y-50469866D01*
X38495270Y-50469864D01*
X38419505Y-50416813D01*
X38317677Y-50345512D01*
X38312695Y-50343189D01*
X38312690Y-50343186D01*
X38207035Y-50293919D01*
X38153750Y-50247002D01*
X38134289Y-50178725D01*
X38154831Y-50110765D01*
X38207035Y-50065529D01*
X38312445Y-50016376D01*
X38321931Y-50010898D01*
X38365764Y-49980207D01*
X38374139Y-49969729D01*
X38367071Y-49956281D01*
X37692812Y-49282022D01*
X37678868Y-49274408D01*
X37677035Y-49274539D01*
X37670420Y-49278790D01*
X36992207Y-49957003D01*
X36985777Y-49968777D01*
X36995074Y-49980793D01*
X37038069Y-50010898D01*
X37047555Y-50016376D01*
X37152965Y-50065529D01*
X37206250Y-50112446D01*
X37225711Y-50180723D01*
X37205169Y-50248683D01*
X37152965Y-50293919D01*
X37047311Y-50343186D01*
X37047306Y-50343189D01*
X37042324Y-50345512D01*
X37037817Y-50348668D01*
X37037815Y-50348669D01*
X36864730Y-50469864D01*
X36864727Y-50469866D01*
X36860219Y-50473023D01*
X36703023Y-50630219D01*
X36575512Y-50812324D01*
X36573189Y-50817306D01*
X36573186Y-50817311D01*
X36524195Y-50922373D01*
X36477277Y-50975658D01*
X36409000Y-50995119D01*
X36341040Y-50974577D01*
X36295805Y-50922373D01*
X36246814Y-50817311D01*
X36246811Y-50817306D01*
X36244488Y-50812324D01*
X36116977Y-50630219D01*
X35959781Y-50473023D01*
X35955273Y-50469866D01*
X35955270Y-50469864D01*
X35879505Y-50416813D01*
X35777677Y-50345512D01*
X35772695Y-50343189D01*
X35772690Y-50343186D01*
X35667035Y-50293919D01*
X35613750Y-50247002D01*
X35594289Y-50178725D01*
X35614831Y-50110765D01*
X35667035Y-50065529D01*
X35772445Y-50016376D01*
X35781931Y-50010898D01*
X35825764Y-49980207D01*
X35834139Y-49969729D01*
X35827071Y-49956281D01*
X35152812Y-49282022D01*
X35138868Y-49274408D01*
X35137035Y-49274539D01*
X35130420Y-49278790D01*
X34452207Y-49957003D01*
X34445777Y-49968777D01*
X34455074Y-49980793D01*
X34498069Y-50010898D01*
X34507555Y-50016376D01*
X34612965Y-50065529D01*
X34666250Y-50112446D01*
X34685711Y-50180723D01*
X34665169Y-50248683D01*
X34612965Y-50293919D01*
X34507311Y-50343186D01*
X34507306Y-50343189D01*
X34502324Y-50345512D01*
X34497817Y-50348668D01*
X34497815Y-50348669D01*
X34324730Y-50469864D01*
X34324727Y-50469866D01*
X34320219Y-50473023D01*
X34163023Y-50630219D01*
X34035512Y-50812324D01*
X34033189Y-50817306D01*
X34033186Y-50817311D01*
X33984195Y-50922373D01*
X33941560Y-51013804D01*
X33884022Y-51228537D01*
X33864647Y-51450000D01*
X33508500Y-51450000D01*
X33508500Y-48915475D01*
X33865628Y-48915475D01*
X33884038Y-49125896D01*
X33885941Y-49136691D01*
X33940609Y-49340715D01*
X33944355Y-49351007D01*
X34033623Y-49542441D01*
X34039103Y-49551932D01*
X34069794Y-49595765D01*
X34080271Y-49604140D01*
X34093718Y-49597072D01*
X34767978Y-48922812D01*
X34774356Y-48911132D01*
X35504408Y-48911132D01*
X35504539Y-48912965D01*
X35508790Y-48919580D01*
X36187003Y-49597793D01*
X36198777Y-49604223D01*
X36210793Y-49594926D01*
X36240897Y-49551932D01*
X36246377Y-49542441D01*
X36295805Y-49436443D01*
X36342722Y-49383158D01*
X36411000Y-49363697D01*
X36478960Y-49384239D01*
X36524195Y-49436443D01*
X36573623Y-49542441D01*
X36579103Y-49551932D01*
X36609794Y-49595765D01*
X36620271Y-49604140D01*
X36633718Y-49597072D01*
X37307978Y-48922812D01*
X37314356Y-48911132D01*
X38044408Y-48911132D01*
X38044539Y-48912965D01*
X38048790Y-48919580D01*
X38727003Y-49597793D01*
X38738777Y-49604223D01*
X38750793Y-49594926D01*
X38780897Y-49551932D01*
X38786377Y-49542441D01*
X38875645Y-49351007D01*
X38879391Y-49340715D01*
X38934059Y-49136691D01*
X38935962Y-49125896D01*
X38954372Y-48915475D01*
X38954372Y-48904525D01*
X38935962Y-48694104D01*
X38934059Y-48683309D01*
X38879391Y-48479285D01*
X38875645Y-48468993D01*
X38786377Y-48277559D01*
X38780897Y-48268068D01*
X38750206Y-48224235D01*
X38739729Y-48215860D01*
X38726282Y-48222928D01*
X38052022Y-48897188D01*
X38044408Y-48911132D01*
X37314356Y-48911132D01*
X37315592Y-48908868D01*
X37315461Y-48907035D01*
X37311210Y-48900420D01*
X36632997Y-48222207D01*
X36621223Y-48215777D01*
X36609207Y-48225074D01*
X36579103Y-48268068D01*
X36573623Y-48277559D01*
X36524195Y-48383557D01*
X36477278Y-48436842D01*
X36409000Y-48456303D01*
X36341040Y-48435761D01*
X36295805Y-48383557D01*
X36246377Y-48277559D01*
X36240897Y-48268068D01*
X36210206Y-48224235D01*
X36199729Y-48215860D01*
X36186282Y-48222928D01*
X35512022Y-48897188D01*
X35504408Y-48911132D01*
X34774356Y-48911132D01*
X34775592Y-48908868D01*
X34775461Y-48907035D01*
X34771210Y-48900420D01*
X34092997Y-48222207D01*
X34081223Y-48215777D01*
X34069207Y-48225074D01*
X34039103Y-48268068D01*
X34033623Y-48277559D01*
X33944355Y-48468993D01*
X33940609Y-48479285D01*
X33885941Y-48683309D01*
X33884038Y-48694104D01*
X33865628Y-48904525D01*
X33865628Y-48915475D01*
X33508500Y-48915475D01*
X33508500Y-46370000D01*
X33864647Y-46370000D01*
X33884022Y-46591463D01*
X33941560Y-46806196D01*
X33943882Y-46811177D01*
X33943883Y-46811178D01*
X34033186Y-47002689D01*
X34033189Y-47002694D01*
X34035512Y-47007676D01*
X34163023Y-47189781D01*
X34320219Y-47346977D01*
X34324727Y-47350134D01*
X34324730Y-47350136D01*
X34400495Y-47403187D01*
X34502323Y-47474488D01*
X34507305Y-47476811D01*
X34507310Y-47476814D01*
X34612965Y-47526081D01*
X34666250Y-47572998D01*
X34685711Y-47641275D01*
X34665169Y-47709235D01*
X34612965Y-47754471D01*
X34507559Y-47803623D01*
X34498068Y-47809103D01*
X34454235Y-47839794D01*
X34445860Y-47850271D01*
X34452928Y-47863718D01*
X35127188Y-48537978D01*
X35141132Y-48545592D01*
X35142965Y-48545461D01*
X35149580Y-48541210D01*
X35827793Y-47862997D01*
X35834223Y-47851223D01*
X35824926Y-47839207D01*
X35781931Y-47809102D01*
X35772445Y-47803624D01*
X35667035Y-47754471D01*
X35613750Y-47707554D01*
X35594289Y-47639277D01*
X35614831Y-47571317D01*
X35667035Y-47526081D01*
X35772690Y-47476814D01*
X35772695Y-47476811D01*
X35777677Y-47474488D01*
X35879505Y-47403187D01*
X35955270Y-47350136D01*
X35955273Y-47350134D01*
X35959781Y-47346977D01*
X36116977Y-47189781D01*
X36244488Y-47007676D01*
X36246811Y-47002694D01*
X36246814Y-47002689D01*
X36295805Y-46897627D01*
X36342723Y-46844342D01*
X36411000Y-46824881D01*
X36478960Y-46845423D01*
X36524195Y-46897627D01*
X36573186Y-47002689D01*
X36573189Y-47002694D01*
X36575512Y-47007676D01*
X36703023Y-47189781D01*
X36860219Y-47346977D01*
X36864727Y-47350134D01*
X36864730Y-47350136D01*
X36940495Y-47403187D01*
X37042323Y-47474488D01*
X37047305Y-47476811D01*
X37047310Y-47476814D01*
X37152965Y-47526081D01*
X37206250Y-47572998D01*
X37225711Y-47641275D01*
X37205169Y-47709235D01*
X37152965Y-47754471D01*
X37047559Y-47803623D01*
X37038068Y-47809103D01*
X36994235Y-47839794D01*
X36985860Y-47850271D01*
X36992928Y-47863718D01*
X37667188Y-48537978D01*
X37681132Y-48545592D01*
X37682965Y-48545461D01*
X37689580Y-48541210D01*
X38367793Y-47862997D01*
X38374223Y-47851223D01*
X38364926Y-47839207D01*
X38321931Y-47809102D01*
X38312445Y-47803624D01*
X38207035Y-47754471D01*
X38153750Y-47707554D01*
X38134289Y-47639277D01*
X38154831Y-47571317D01*
X38207035Y-47526081D01*
X38312690Y-47476814D01*
X38312695Y-47476811D01*
X38317677Y-47474488D01*
X38419505Y-47403187D01*
X38495270Y-47350136D01*
X38495273Y-47350134D01*
X38499781Y-47346977D01*
X38656977Y-47189781D01*
X38784488Y-47007676D01*
X38786811Y-47002694D01*
X38786814Y-47002689D01*
X38876117Y-46811178D01*
X38876118Y-46811177D01*
X38878440Y-46806196D01*
X38935978Y-46591463D01*
X38955353Y-46370000D01*
X38935978Y-46148537D01*
X38878440Y-45933804D01*
X38835805Y-45842373D01*
X38786814Y-45737311D01*
X38786811Y-45737306D01*
X38784488Y-45732324D01*
X38656977Y-45550219D01*
X38499781Y-45393023D01*
X38495273Y-45389866D01*
X38495270Y-45389864D01*
X38419505Y-45336813D01*
X38317677Y-45265512D01*
X38312695Y-45263189D01*
X38312690Y-45263186D01*
X38207627Y-45214195D01*
X38154342Y-45167278D01*
X38134881Y-45099001D01*
X38155423Y-45031041D01*
X38207627Y-44985805D01*
X38312690Y-44936814D01*
X38312695Y-44936811D01*
X38317677Y-44934488D01*
X38419505Y-44863187D01*
X38495270Y-44810136D01*
X38495273Y-44810134D01*
X38499781Y-44806977D01*
X38656977Y-44649781D01*
X38784488Y-44467676D01*
X38786811Y-44462694D01*
X38786814Y-44462689D01*
X38876117Y-44271178D01*
X38876118Y-44271177D01*
X38878440Y-44266196D01*
X38935978Y-44051463D01*
X38955353Y-43830000D01*
X38935978Y-43608537D01*
X38878440Y-43393804D01*
X38835805Y-43302373D01*
X38786814Y-43197311D01*
X38786811Y-43197306D01*
X38784488Y-43192324D01*
X38656977Y-43010219D01*
X38499781Y-42853023D01*
X38495273Y-42849866D01*
X38495270Y-42849864D01*
X38419505Y-42796813D01*
X38317677Y-42725512D01*
X38312695Y-42723189D01*
X38312690Y-42723186D01*
X38207627Y-42674195D01*
X38154342Y-42627278D01*
X38134881Y-42559001D01*
X38155423Y-42491041D01*
X38207627Y-42445805D01*
X38312690Y-42396814D01*
X38312695Y-42396811D01*
X38317677Y-42394488D01*
X38419505Y-42323187D01*
X38495270Y-42270136D01*
X38495273Y-42270134D01*
X38499781Y-42266977D01*
X38656977Y-42109781D01*
X38784488Y-41927676D01*
X38786811Y-41922694D01*
X38786814Y-41922689D01*
X38876117Y-41731178D01*
X38876118Y-41731177D01*
X38878440Y-41726196D01*
X38935978Y-41511463D01*
X38955353Y-41290000D01*
X38935978Y-41068537D01*
X38878440Y-40853804D01*
X38835805Y-40762373D01*
X38786814Y-40657311D01*
X38786811Y-40657306D01*
X38784488Y-40652324D01*
X38656977Y-40470219D01*
X38499781Y-40313023D01*
X38495273Y-40309866D01*
X38495270Y-40309864D01*
X38409365Y-40249713D01*
X38365037Y-40194256D01*
X38357728Y-40123637D01*
X38389759Y-40060276D01*
X38450960Y-40024291D01*
X38481636Y-40020500D01*
X38490134Y-40020500D01*
X38552316Y-40013745D01*
X38688705Y-39962615D01*
X38805261Y-39875261D01*
X38892615Y-39758705D01*
X38943745Y-39622316D01*
X38950500Y-39560134D01*
X38950500Y-38583000D01*
X43768910Y-38583000D01*
X43787618Y-38760991D01*
X43789658Y-38767269D01*
X43789658Y-38767270D01*
X43819989Y-38860620D01*
X43842923Y-38931203D01*
X43932409Y-39086197D01*
X44052164Y-39219199D01*
X44196955Y-39324396D01*
X44202983Y-39327080D01*
X44202985Y-39327081D01*
X44354423Y-39394505D01*
X44360454Y-39397190D01*
X44447984Y-39415795D01*
X44529057Y-39433028D01*
X44529061Y-39433028D01*
X44535514Y-39434400D01*
X44714486Y-39434400D01*
X44720939Y-39433028D01*
X44720943Y-39433028D01*
X44802016Y-39415795D01*
X44889546Y-39397190D01*
X44895577Y-39394505D01*
X45047015Y-39327081D01*
X45047017Y-39327080D01*
X45053045Y-39324396D01*
X45197836Y-39219199D01*
X45317591Y-39086197D01*
X45407077Y-38931203D01*
X45430011Y-38860620D01*
X45460342Y-38767270D01*
X45460342Y-38767269D01*
X45462382Y-38760991D01*
X45481090Y-38583000D01*
X45480400Y-38576435D01*
X45463072Y-38411573D01*
X45463072Y-38411572D01*
X45462382Y-38405009D01*
X45407077Y-38234797D01*
X45317591Y-38079803D01*
X45311540Y-38073082D01*
X45202258Y-37951712D01*
X45202257Y-37951711D01*
X45197836Y-37946801D01*
X45183616Y-37936469D01*
X45058387Y-37845485D01*
X45058386Y-37845484D01*
X45053045Y-37841604D01*
X45047017Y-37838920D01*
X45047015Y-37838919D01*
X44895577Y-37771495D01*
X44895576Y-37771495D01*
X44889546Y-37768810D01*
X44799654Y-37749703D01*
X44720943Y-37732972D01*
X44720939Y-37732972D01*
X44714486Y-37731600D01*
X44535514Y-37731600D01*
X44529061Y-37732972D01*
X44529057Y-37732972D01*
X44450346Y-37749703D01*
X44360454Y-37768810D01*
X44354424Y-37771495D01*
X44354423Y-37771495D01*
X44202985Y-37838919D01*
X44202983Y-37838920D01*
X44196955Y-37841604D01*
X44191614Y-37845484D01*
X44191613Y-37845485D01*
X44066385Y-37936469D01*
X44052164Y-37946801D01*
X44047743Y-37951711D01*
X44047742Y-37951712D01*
X43938461Y-38073082D01*
X43932409Y-38079803D01*
X43842923Y-38234797D01*
X43787618Y-38405009D01*
X43786928Y-38411572D01*
X43786928Y-38411573D01*
X43769600Y-38576435D01*
X43768910Y-38583000D01*
X38950500Y-38583000D01*
X38950500Y-37939866D01*
X38943745Y-37877684D01*
X38892615Y-37741295D01*
X38805261Y-37624739D01*
X38688705Y-37537385D01*
X38552316Y-37486255D01*
X38490134Y-37479500D01*
X36869866Y-37479500D01*
X36807684Y-37486255D01*
X36671295Y-37537385D01*
X36554739Y-37624739D01*
X36467385Y-37741295D01*
X36416255Y-37877684D01*
X36409500Y-37939866D01*
X36409500Y-37948364D01*
X36389498Y-38016485D01*
X36335842Y-38062978D01*
X36265568Y-38073082D01*
X36200988Y-38043588D01*
X36180287Y-38020635D01*
X36120136Y-37934730D01*
X36120134Y-37934727D01*
X36116977Y-37930219D01*
X35959781Y-37773023D01*
X35955273Y-37769866D01*
X35955270Y-37769864D01*
X35879505Y-37716813D01*
X35777677Y-37645512D01*
X35772695Y-37643189D01*
X35772690Y-37643186D01*
X35581178Y-37553883D01*
X35581177Y-37553882D01*
X35576196Y-37551560D01*
X35570888Y-37550138D01*
X35570886Y-37550137D01*
X35505051Y-37532497D01*
X35361463Y-37494022D01*
X35140000Y-37474647D01*
X34918537Y-37494022D01*
X34774949Y-37532497D01*
X34709114Y-37550137D01*
X34709112Y-37550138D01*
X34703804Y-37551560D01*
X34698823Y-37553882D01*
X34698822Y-37553883D01*
X34507311Y-37643186D01*
X34507306Y-37643189D01*
X34502324Y-37645512D01*
X34497817Y-37648668D01*
X34497815Y-37648669D01*
X34324730Y-37769864D01*
X34324727Y-37769866D01*
X34320219Y-37773023D01*
X34163023Y-37930219D01*
X34159866Y-37934727D01*
X34159864Y-37934730D01*
X34038669Y-38107815D01*
X34035512Y-38112324D01*
X34033189Y-38117306D01*
X34033186Y-38117311D01*
X33975471Y-38241082D01*
X33941560Y-38313804D01*
X33884022Y-38528537D01*
X33864647Y-38750000D01*
X33884022Y-38971463D01*
X33941560Y-39186196D01*
X33943882Y-39191177D01*
X33943883Y-39191178D01*
X34033186Y-39382689D01*
X34033189Y-39382694D01*
X34035512Y-39387676D01*
X34038668Y-39392183D01*
X34038669Y-39392185D01*
X34158647Y-39563531D01*
X34163023Y-39569781D01*
X34320219Y-39726977D01*
X34324727Y-39730134D01*
X34324730Y-39730136D01*
X34353523Y-39750297D01*
X34502323Y-39854488D01*
X34507305Y-39856811D01*
X34507310Y-39856814D01*
X34612373Y-39905805D01*
X34665658Y-39952722D01*
X34685119Y-40020999D01*
X34664577Y-40088959D01*
X34612373Y-40134195D01*
X34507311Y-40183186D01*
X34507306Y-40183189D01*
X34502324Y-40185512D01*
X34497817Y-40188668D01*
X34497815Y-40188669D01*
X34324730Y-40309864D01*
X34324727Y-40309866D01*
X34320219Y-40313023D01*
X34163023Y-40470219D01*
X34035512Y-40652324D01*
X34033189Y-40657306D01*
X34033186Y-40657311D01*
X33984195Y-40762373D01*
X33941560Y-40853804D01*
X33884022Y-41068537D01*
X33864647Y-41290000D01*
X33884022Y-41511463D01*
X33941560Y-41726196D01*
X33943882Y-41731177D01*
X33943883Y-41731178D01*
X34033186Y-41922689D01*
X34033189Y-41922694D01*
X34035512Y-41927676D01*
X34163023Y-42109781D01*
X34320219Y-42266977D01*
X34324727Y-42270134D01*
X34324730Y-42270136D01*
X34400495Y-42323187D01*
X34502323Y-42394488D01*
X34507305Y-42396811D01*
X34507310Y-42396814D01*
X34612373Y-42445805D01*
X34665658Y-42492722D01*
X34685119Y-42560999D01*
X34664577Y-42628959D01*
X34612373Y-42674195D01*
X34507311Y-42723186D01*
X34507306Y-42723189D01*
X34502324Y-42725512D01*
X34497817Y-42728668D01*
X34497815Y-42728669D01*
X34324730Y-42849864D01*
X34324727Y-42849866D01*
X34320219Y-42853023D01*
X34163023Y-43010219D01*
X34035512Y-43192324D01*
X34033189Y-43197306D01*
X34033186Y-43197311D01*
X33984195Y-43302373D01*
X33941560Y-43393804D01*
X33884022Y-43608537D01*
X33864647Y-43830000D01*
X33884022Y-44051463D01*
X33941560Y-44266196D01*
X33943882Y-44271177D01*
X33943883Y-44271178D01*
X34033186Y-44462689D01*
X34033189Y-44462694D01*
X34035512Y-44467676D01*
X34163023Y-44649781D01*
X34320219Y-44806977D01*
X34324727Y-44810134D01*
X34324730Y-44810136D01*
X34400495Y-44863187D01*
X34502323Y-44934488D01*
X34507305Y-44936811D01*
X34507310Y-44936814D01*
X34612373Y-44985805D01*
X34665658Y-45032722D01*
X34685119Y-45100999D01*
X34664577Y-45168959D01*
X34612373Y-45214195D01*
X34507311Y-45263186D01*
X34507306Y-45263189D01*
X34502324Y-45265512D01*
X34497817Y-45268668D01*
X34497815Y-45268669D01*
X34324730Y-45389864D01*
X34324727Y-45389866D01*
X34320219Y-45393023D01*
X34163023Y-45550219D01*
X34035512Y-45732324D01*
X34033189Y-45737306D01*
X34033186Y-45737311D01*
X33984195Y-45842373D01*
X33941560Y-45933804D01*
X33884022Y-46148537D01*
X33864647Y-46370000D01*
X33508500Y-46370000D01*
X33508500Y-35634500D01*
X33528502Y-35566379D01*
X33582158Y-35519886D01*
X33634500Y-35508500D01*
X52832500Y-35508500D01*
X52900621Y-35528502D01*
G37*
%TD.AperFunction*%
%TD*%
M02*
