%TF.GenerationSoftware,KiCad,Pcbnew,(6.0.10)*%
%TF.CreationDate,2023-02-16T13:15:27+00:00*%
%TF.ProjectId,hyperram-sm-x1,68797065-7272-4616-9d2d-736d2d78312e,1.0*%
%TF.SameCoordinates,Original*%
%TF.FileFunction,Copper,L3,Inr*%
%TF.FilePolarity,Positive*%
%FSLAX46Y46*%
G04 Gerber Fmt 4.6, Leading zero omitted, Abs format (unit mm)*
G04 Created by KiCad (PCBNEW (6.0.10)) date 2023-02-16 13:15:27*
%MOMM*%
%LPD*%
G01*
G04 APERTURE LIST*
%TA.AperFunction,ComponentPad*%
%ADD10R,1.524000X1.524000*%
%TD*%
%TA.AperFunction,ComponentPad*%
%ADD11C,1.524000*%
%TD*%
%TA.AperFunction,ViaPad*%
%ADD12C,0.685800*%
%TD*%
G04 APERTURE END LIST*
D10*
%TO.N,/DQ0*%
%TO.C,J2*%
X37680000Y-61610000D03*
D11*
%TO.N,/DQ1*%
X37680000Y-64150000D03*
%TO.N,/DQ2*%
X37680000Y-66690000D03*
%TO.N,/DQ3*%
X37680000Y-69230000D03*
%TO.N,GND*%
X37680000Y-71770000D03*
%TO.N,+3V3*%
X37680000Y-74310000D03*
%TO.N,/DQ7*%
X35140000Y-61610000D03*
%TO.N,/DQ6*%
X35140000Y-64150000D03*
%TO.N,/DQ5*%
X35140000Y-66690000D03*
%TO.N,/DQ4*%
X35140000Y-69230000D03*
%TO.N,GND*%
X35140000Y-71770000D03*
%TO.N,+3V3*%
X35140000Y-74310000D03*
%TD*%
D10*
%TO.N,unconnected-(J1-Pad1)*%
%TO.C,J1*%
X37680000Y-38750000D03*
D11*
%TO.N,~{CS0}*%
X37680000Y-41290000D03*
%TO.N,CK*%
X37680000Y-43830000D03*
%TO.N,~{CK}*%
X37680000Y-46370000D03*
%TO.N,GND*%
X37680000Y-48910000D03*
%TO.N,+3V3*%
X37680000Y-51450000D03*
%TO.N,unconnected-(J1-Pad7)*%
X35140000Y-38750000D03*
%TO.N,unconnected-(J1-Pad8)*%
X35140000Y-41290000D03*
%TO.N,~{RESET}*%
X35140000Y-43830000D03*
%TO.N,RWDS*%
X35140000Y-46370000D03*
%TO.N,GND*%
X35140000Y-48910000D03*
%TO.N,+3V3*%
X35140000Y-51450000D03*
%TD*%
D12*
%TO.N,~{CS0}*%
X48120000Y-55230000D03*
X48628000Y-57770000D03*
%TO.N,~{CK}*%
X47104000Y-54214000D03*
X43228800Y-51928000D03*
%TO.N,GND*%
X39345000Y-76714000D03*
X51918000Y-69221000D03*
X40234000Y-42551000D03*
X44945000Y-43419000D03*
X48120000Y-56754000D03*
X39345000Y-36201000D03*
X34519000Y-36328000D03*
X45834000Y-54214000D03*
X44818000Y-62850000D03*
X42786000Y-60310000D03*
X43663000Y-49409000D03*
X34773000Y-76714000D03*
X43790000Y-65792000D03*
X47600000Y-61347000D03*
X47092000Y-71888000D03*
X40742000Y-46488000D03*
X45475000Y-71158000D03*
X40107000Y-69475000D03*
X42520000Y-71507000D03*
X46912500Y-68520500D03*
X39980000Y-40011000D03*
%TO.N,+3V3*%
X38650000Y-53583000D03*
X42100000Y-69758000D03*
%TO.N,~{RESET}*%
X46845307Y-59289307D03*
X43228800Y-53198000D03*
%TO.N,RWDS*%
X45834000Y-57262000D03*
X42676260Y-54398959D03*
%TO.N,VCC*%
X42024000Y-61326000D03*
X48120000Y-58786000D03*
X44625000Y-38583000D03*
X48625000Y-66558000D03*
X44564000Y-63866000D03*
X44564000Y-54214000D03*
%TD*%
%TA.AperFunction,Conductor*%
%TO.N,VCC*%
G36*
X38611631Y-35528502D02*
G01*
X38658124Y-35582158D01*
X38668228Y-35652432D01*
X38650312Y-35696592D01*
X38652409Y-35697803D01*
X38562923Y-35852797D01*
X38507618Y-36023009D01*
X38488910Y-36201000D01*
X38489600Y-36207565D01*
X38502949Y-36334565D01*
X38507618Y-36378991D01*
X38562923Y-36549203D01*
X38652409Y-36704197D01*
X38772164Y-36837199D01*
X38916955Y-36942396D01*
X38922983Y-36945080D01*
X38922985Y-36945081D01*
X38974647Y-36968082D01*
X39080454Y-37015190D01*
X39167984Y-37033795D01*
X39249057Y-37051028D01*
X39249061Y-37051028D01*
X39255514Y-37052400D01*
X39434486Y-37052400D01*
X39440939Y-37051028D01*
X39440943Y-37051028D01*
X39522016Y-37033795D01*
X39609546Y-37015190D01*
X39715353Y-36968082D01*
X39767015Y-36945081D01*
X39767017Y-36945080D01*
X39773045Y-36942396D01*
X39917836Y-36837199D01*
X40037591Y-36704197D01*
X40127077Y-36549203D01*
X40182382Y-36378991D01*
X40187052Y-36334565D01*
X40200400Y-36207565D01*
X40201090Y-36201000D01*
X40182382Y-36023009D01*
X40127077Y-35852797D01*
X40037591Y-35697803D01*
X40040175Y-35696311D01*
X40020693Y-35641654D01*
X40036795Y-35572508D01*
X40087724Y-35523043D01*
X40146490Y-35508500D01*
X52832500Y-35508500D01*
X52900621Y-35528502D01*
X52947114Y-35582158D01*
X52958500Y-35634500D01*
X52958500Y-68872609D01*
X52938498Y-68940730D01*
X52884842Y-68987223D01*
X52814568Y-68997327D01*
X52749988Y-68967833D01*
X52712667Y-68911545D01*
X52702119Y-68879082D01*
X52700077Y-68872797D01*
X52610591Y-68717803D01*
X52593203Y-68698491D01*
X52495258Y-68589712D01*
X52495257Y-68589711D01*
X52490836Y-68584801D01*
X52411370Y-68527065D01*
X52351387Y-68483485D01*
X52351386Y-68483484D01*
X52346045Y-68479604D01*
X52340017Y-68476920D01*
X52340015Y-68476919D01*
X52188577Y-68409495D01*
X52188576Y-68409495D01*
X52182546Y-68406810D01*
X52095016Y-68388205D01*
X52013943Y-68370972D01*
X52013939Y-68370972D01*
X52007486Y-68369600D01*
X51828514Y-68369600D01*
X51822061Y-68370972D01*
X51822057Y-68370972D01*
X51740984Y-68388205D01*
X51653454Y-68406810D01*
X51647424Y-68409495D01*
X51647423Y-68409495D01*
X51495985Y-68476919D01*
X51495983Y-68476920D01*
X51489955Y-68479604D01*
X51484614Y-68483484D01*
X51484613Y-68483485D01*
X51424631Y-68527065D01*
X51345164Y-68584801D01*
X51340743Y-68589711D01*
X51340742Y-68589712D01*
X51242798Y-68698491D01*
X51225409Y-68717803D01*
X51135923Y-68872797D01*
X51133881Y-68879082D01*
X51091819Y-69008537D01*
X51080618Y-69043009D01*
X51061910Y-69221000D01*
X51062600Y-69227565D01*
X51077771Y-69371900D01*
X51080618Y-69398991D01*
X51135923Y-69569203D01*
X51139226Y-69574925D01*
X51139227Y-69574926D01*
X51170832Y-69629668D01*
X51225409Y-69724197D01*
X51345164Y-69857199D01*
X51350506Y-69861080D01*
X51350508Y-69861082D01*
X51462254Y-69942270D01*
X51489955Y-69962396D01*
X51495983Y-69965080D01*
X51495985Y-69965081D01*
X51536468Y-69983105D01*
X51653454Y-70035190D01*
X51722100Y-70049781D01*
X51822057Y-70071028D01*
X51822061Y-70071028D01*
X51828514Y-70072400D01*
X52007486Y-70072400D01*
X52013939Y-70071028D01*
X52013943Y-70071028D01*
X52113900Y-70049781D01*
X52182546Y-70035190D01*
X52299532Y-69983105D01*
X52340015Y-69965081D01*
X52340017Y-69965080D01*
X52346045Y-69962396D01*
X52373746Y-69942270D01*
X52485492Y-69861082D01*
X52485494Y-69861080D01*
X52490836Y-69857199D01*
X52610591Y-69724197D01*
X52665168Y-69629668D01*
X52696773Y-69574926D01*
X52696774Y-69574925D01*
X52700077Y-69569203D01*
X52712667Y-69530455D01*
X52752740Y-69471849D01*
X52818137Y-69444212D01*
X52888094Y-69456319D01*
X52940400Y-69504325D01*
X52958500Y-69569391D01*
X52958500Y-77365500D01*
X52938498Y-77433621D01*
X52884842Y-77480114D01*
X52832500Y-77491500D01*
X40073608Y-77491500D01*
X40005487Y-77471498D01*
X39958994Y-77417842D01*
X39948890Y-77347568D01*
X39979970Y-77281192D01*
X40037591Y-77217197D01*
X40127077Y-77062203D01*
X40182382Y-76891991D01*
X40201090Y-76714000D01*
X40182382Y-76536009D01*
X40127077Y-76365797D01*
X40037591Y-76210803D01*
X39917836Y-76077801D01*
X39773045Y-75972604D01*
X39767017Y-75969920D01*
X39767015Y-75969919D01*
X39615577Y-75902495D01*
X39615576Y-75902495D01*
X39609546Y-75899810D01*
X39522016Y-75881205D01*
X39440943Y-75863972D01*
X39440939Y-75863972D01*
X39434486Y-75862600D01*
X39255514Y-75862600D01*
X39249061Y-75863972D01*
X39249057Y-75863972D01*
X39167984Y-75881205D01*
X39080454Y-75899810D01*
X39074424Y-75902495D01*
X39074423Y-75902495D01*
X38922985Y-75969919D01*
X38922983Y-75969920D01*
X38916955Y-75972604D01*
X38772164Y-76077801D01*
X38652409Y-76210803D01*
X38562923Y-76365797D01*
X38507618Y-76536009D01*
X38488910Y-76714000D01*
X38507618Y-76891991D01*
X38562923Y-77062203D01*
X38652409Y-77217197D01*
X38710030Y-77281192D01*
X38740746Y-77345198D01*
X38731981Y-77415651D01*
X38686518Y-77470182D01*
X38616392Y-77491500D01*
X35501608Y-77491500D01*
X35433487Y-77471498D01*
X35386994Y-77417842D01*
X35376890Y-77347568D01*
X35407970Y-77281192D01*
X35465591Y-77217197D01*
X35555077Y-77062203D01*
X35610382Y-76891991D01*
X35629090Y-76714000D01*
X35610382Y-76536009D01*
X35555077Y-76365797D01*
X35465591Y-76210803D01*
X35345836Y-76077801D01*
X35201045Y-75972604D01*
X35195017Y-75969920D01*
X35195015Y-75969919D01*
X35043577Y-75902495D01*
X35043576Y-75902495D01*
X35037546Y-75899810D01*
X34950016Y-75881205D01*
X34868943Y-75863972D01*
X34868939Y-75863972D01*
X34862486Y-75862600D01*
X34683514Y-75862600D01*
X34677061Y-75863972D01*
X34677057Y-75863972D01*
X34595984Y-75881205D01*
X34508454Y-75899810D01*
X34502424Y-75902495D01*
X34502423Y-75902495D01*
X34350985Y-75969919D01*
X34350983Y-75969920D01*
X34344955Y-75972604D01*
X34200164Y-76077801D01*
X34080409Y-76210803D01*
X33990923Y-76365797D01*
X33935618Y-76536009D01*
X33916910Y-76714000D01*
X33935618Y-76891991D01*
X33990923Y-77062203D01*
X34080409Y-77217197D01*
X34138030Y-77281192D01*
X34168746Y-77345198D01*
X34159981Y-77415651D01*
X34114518Y-77470182D01*
X34044392Y-77491500D01*
X33634500Y-77491500D01*
X33566379Y-77471498D01*
X33519886Y-77417842D01*
X33508500Y-77365500D01*
X33508500Y-74310000D01*
X33864647Y-74310000D01*
X33884022Y-74531463D01*
X33941560Y-74746196D01*
X33943882Y-74751177D01*
X33943883Y-74751178D01*
X34033186Y-74942689D01*
X34033189Y-74942694D01*
X34035512Y-74947676D01*
X34163023Y-75129781D01*
X34320219Y-75286977D01*
X34324727Y-75290134D01*
X34324730Y-75290136D01*
X34400495Y-75343187D01*
X34502323Y-75414488D01*
X34507305Y-75416811D01*
X34507310Y-75416814D01*
X34698822Y-75506117D01*
X34703804Y-75508440D01*
X34709112Y-75509862D01*
X34709114Y-75509863D01*
X34774949Y-75527503D01*
X34918537Y-75565978D01*
X35140000Y-75585353D01*
X35361463Y-75565978D01*
X35505051Y-75527503D01*
X35570886Y-75509863D01*
X35570888Y-75509862D01*
X35576196Y-75508440D01*
X35581178Y-75506117D01*
X35772690Y-75416814D01*
X35772695Y-75416811D01*
X35777677Y-75414488D01*
X35879505Y-75343187D01*
X35955270Y-75290136D01*
X35955273Y-75290134D01*
X35959781Y-75286977D01*
X36116977Y-75129781D01*
X36244488Y-74947676D01*
X36246811Y-74942694D01*
X36246814Y-74942689D01*
X36295805Y-74837627D01*
X36342723Y-74784342D01*
X36411000Y-74764881D01*
X36478960Y-74785423D01*
X36524195Y-74837627D01*
X36573186Y-74942689D01*
X36573189Y-74942694D01*
X36575512Y-74947676D01*
X36703023Y-75129781D01*
X36860219Y-75286977D01*
X36864727Y-75290134D01*
X36864730Y-75290136D01*
X36940495Y-75343187D01*
X37042323Y-75414488D01*
X37047305Y-75416811D01*
X37047310Y-75416814D01*
X37238822Y-75506117D01*
X37243804Y-75508440D01*
X37249112Y-75509862D01*
X37249114Y-75509863D01*
X37314949Y-75527503D01*
X37458537Y-75565978D01*
X37680000Y-75585353D01*
X37901463Y-75565978D01*
X38045051Y-75527503D01*
X38110886Y-75509863D01*
X38110888Y-75509862D01*
X38116196Y-75508440D01*
X38121178Y-75506117D01*
X38312690Y-75416814D01*
X38312695Y-75416811D01*
X38317677Y-75414488D01*
X38419505Y-75343187D01*
X38495270Y-75290136D01*
X38495273Y-75290134D01*
X38499781Y-75286977D01*
X38656977Y-75129781D01*
X38784488Y-74947676D01*
X38786811Y-74942694D01*
X38786814Y-74942689D01*
X38876117Y-74751178D01*
X38876118Y-74751177D01*
X38878440Y-74746196D01*
X38935978Y-74531463D01*
X38955353Y-74310000D01*
X38935978Y-74088537D01*
X38878440Y-73873804D01*
X38835805Y-73782373D01*
X38786814Y-73677311D01*
X38786811Y-73677306D01*
X38784488Y-73672324D01*
X38656977Y-73490219D01*
X38499781Y-73333023D01*
X38495273Y-73329866D01*
X38495270Y-73329864D01*
X38419505Y-73276813D01*
X38317677Y-73205512D01*
X38312695Y-73203189D01*
X38312690Y-73203186D01*
X38207627Y-73154195D01*
X38154342Y-73107278D01*
X38134881Y-73039001D01*
X38155423Y-72971041D01*
X38207627Y-72925805D01*
X38312690Y-72876814D01*
X38312695Y-72876811D01*
X38317677Y-72874488D01*
X38419505Y-72803187D01*
X38495270Y-72750136D01*
X38495273Y-72750134D01*
X38499781Y-72746977D01*
X38656977Y-72589781D01*
X38784488Y-72407676D01*
X38786811Y-72402694D01*
X38786814Y-72402689D01*
X38876117Y-72211178D01*
X38876118Y-72211177D01*
X38878440Y-72206196D01*
X38935978Y-71991463D01*
X38955353Y-71770000D01*
X38935978Y-71548537D01*
X38890790Y-71379895D01*
X38879863Y-71339114D01*
X38879862Y-71339112D01*
X38878440Y-71333804D01*
X38860148Y-71294577D01*
X38786814Y-71137311D01*
X38786811Y-71137306D01*
X38784488Y-71132324D01*
X38743516Y-71073810D01*
X38660136Y-70954730D01*
X38660134Y-70954727D01*
X38656977Y-70950219D01*
X38499781Y-70793023D01*
X38495273Y-70789866D01*
X38495270Y-70789864D01*
X38354703Y-70691438D01*
X38317677Y-70665512D01*
X38312695Y-70663189D01*
X38312690Y-70663186D01*
X38207627Y-70614195D01*
X38154342Y-70567278D01*
X38134881Y-70499001D01*
X38155423Y-70431041D01*
X38207627Y-70385805D01*
X38312690Y-70336814D01*
X38312695Y-70336811D01*
X38317677Y-70334488D01*
X38482495Y-70219081D01*
X38495270Y-70210136D01*
X38495273Y-70210134D01*
X38499781Y-70206977D01*
X38656977Y-70049781D01*
X38711105Y-69972479D01*
X38781331Y-69872185D01*
X38781332Y-69872183D01*
X38784488Y-69867676D01*
X38786811Y-69862694D01*
X38786814Y-69862689D01*
X38876117Y-69671178D01*
X38876118Y-69671177D01*
X38878440Y-69666196D01*
X38929671Y-69475000D01*
X39250910Y-69475000D01*
X39269618Y-69652991D01*
X39271658Y-69659269D01*
X39271658Y-69659270D01*
X39275527Y-69671178D01*
X39324923Y-69823203D01*
X39328226Y-69828925D01*
X39328227Y-69828926D01*
X39353203Y-69872185D01*
X39414409Y-69978197D01*
X39418827Y-69983104D01*
X39418828Y-69983105D01*
X39529742Y-70106288D01*
X39534164Y-70111199D01*
X39678955Y-70216396D01*
X39684983Y-70219080D01*
X39684985Y-70219081D01*
X39836423Y-70286505D01*
X39842454Y-70289190D01*
X39924362Y-70306600D01*
X40011057Y-70325028D01*
X40011061Y-70325028D01*
X40017514Y-70326400D01*
X40196486Y-70326400D01*
X40202939Y-70325028D01*
X40202943Y-70325028D01*
X40289638Y-70306600D01*
X40371546Y-70289190D01*
X40377577Y-70286505D01*
X40529015Y-70219081D01*
X40529017Y-70219080D01*
X40535045Y-70216396D01*
X40679836Y-70111199D01*
X40684258Y-70106288D01*
X40795172Y-69983105D01*
X40795173Y-69983104D01*
X40799591Y-69978197D01*
X40860797Y-69872185D01*
X40885773Y-69828926D01*
X40885774Y-69828925D01*
X40889077Y-69823203D01*
X40910263Y-69758000D01*
X41243910Y-69758000D01*
X41262618Y-69935991D01*
X41264658Y-69942269D01*
X41264658Y-69942270D01*
X41277926Y-69983105D01*
X41317923Y-70106203D01*
X41407409Y-70261197D01*
X41411827Y-70266104D01*
X41411828Y-70266105D01*
X41480558Y-70342438D01*
X41527164Y-70394199D01*
X41532506Y-70398080D01*
X41532508Y-70398082D01*
X41666613Y-70495515D01*
X41671955Y-70499396D01*
X41677983Y-70502080D01*
X41677985Y-70502081D01*
X41733308Y-70526712D01*
X41835454Y-70572190D01*
X41945183Y-70595514D01*
X41963039Y-70599309D01*
X42025512Y-70633037D01*
X42059834Y-70695187D01*
X42055106Y-70766026D01*
X42010903Y-70824492D01*
X41947164Y-70870801D01*
X41827409Y-71003803D01*
X41786990Y-71073810D01*
X41744963Y-71146604D01*
X41737923Y-71158797D01*
X41735881Y-71165082D01*
X41693806Y-71294577D01*
X41682618Y-71329009D01*
X41681928Y-71335572D01*
X41681928Y-71335573D01*
X41676754Y-71384803D01*
X41663910Y-71507000D01*
X41682618Y-71684991D01*
X41684658Y-71691269D01*
X41684658Y-71691270D01*
X41708460Y-71764525D01*
X41737923Y-71855203D01*
X41827409Y-72010197D01*
X41831827Y-72015104D01*
X41831828Y-72015105D01*
X41942742Y-72138288D01*
X41947164Y-72143199D01*
X41952506Y-72147080D01*
X41952508Y-72147082D01*
X42040729Y-72211178D01*
X42091955Y-72248396D01*
X42097983Y-72251080D01*
X42097985Y-72251081D01*
X42202530Y-72297627D01*
X42255454Y-72321190D01*
X42342984Y-72339795D01*
X42424057Y-72357028D01*
X42424061Y-72357028D01*
X42430514Y-72358400D01*
X42609486Y-72358400D01*
X42615939Y-72357028D01*
X42615943Y-72357028D01*
X42697016Y-72339795D01*
X42784546Y-72321190D01*
X42837470Y-72297627D01*
X42942015Y-72251081D01*
X42942017Y-72251080D01*
X42948045Y-72248396D01*
X42999271Y-72211178D01*
X43087492Y-72147082D01*
X43087494Y-72147080D01*
X43092836Y-72143199D01*
X43097258Y-72138288D01*
X43208172Y-72015105D01*
X43208173Y-72015104D01*
X43212591Y-72010197D01*
X43302077Y-71855203D01*
X43331540Y-71764525D01*
X43355342Y-71691270D01*
X43355342Y-71691269D01*
X43357382Y-71684991D01*
X43376090Y-71507000D01*
X43363246Y-71384803D01*
X43358072Y-71335573D01*
X43358072Y-71335572D01*
X43357382Y-71329009D01*
X43346195Y-71294577D01*
X43304119Y-71165082D01*
X43302077Y-71158797D01*
X43301617Y-71158000D01*
X44618910Y-71158000D01*
X44619600Y-71164565D01*
X44628748Y-71251596D01*
X44637618Y-71335991D01*
X44692923Y-71506203D01*
X44696226Y-71511925D01*
X44696227Y-71511926D01*
X44714297Y-71543224D01*
X44782409Y-71661197D01*
X44786827Y-71666104D01*
X44786828Y-71666105D01*
X44880375Y-71770000D01*
X44902164Y-71794199D01*
X44907506Y-71798080D01*
X44907508Y-71798082D01*
X45041613Y-71895515D01*
X45046955Y-71899396D01*
X45052983Y-71902080D01*
X45052985Y-71902081D01*
X45204423Y-71969505D01*
X45210454Y-71972190D01*
X45297984Y-71990795D01*
X45379057Y-72008028D01*
X45379061Y-72008028D01*
X45385514Y-72009400D01*
X45564486Y-72009400D01*
X45570939Y-72008028D01*
X45570943Y-72008028D01*
X45652016Y-71990795D01*
X45739546Y-71972190D01*
X45745577Y-71969505D01*
X45897015Y-71902081D01*
X45897017Y-71902080D01*
X45903045Y-71899396D01*
X45908387Y-71895515D01*
X46036849Y-71802182D01*
X46103717Y-71778323D01*
X46172869Y-71794404D01*
X46222349Y-71845318D01*
X46236220Y-71890946D01*
X46254618Y-72065991D01*
X46309923Y-72236203D01*
X46313226Y-72241925D01*
X46313227Y-72241926D01*
X46318513Y-72251081D01*
X46399409Y-72391197D01*
X46403827Y-72396104D01*
X46403828Y-72396105D01*
X46514742Y-72519288D01*
X46519164Y-72524199D01*
X46524506Y-72528080D01*
X46524508Y-72528082D01*
X46614793Y-72593678D01*
X46663955Y-72629396D01*
X46669983Y-72632080D01*
X46669985Y-72632081D01*
X46821423Y-72699505D01*
X46827454Y-72702190D01*
X46914984Y-72720795D01*
X46996057Y-72738028D01*
X46996061Y-72738028D01*
X47002514Y-72739400D01*
X47181486Y-72739400D01*
X47187939Y-72738028D01*
X47187943Y-72738028D01*
X47269016Y-72720795D01*
X47356546Y-72702190D01*
X47362577Y-72699505D01*
X47514015Y-72632081D01*
X47514017Y-72632080D01*
X47520045Y-72629396D01*
X47569207Y-72593678D01*
X47659492Y-72528082D01*
X47659494Y-72528080D01*
X47664836Y-72524199D01*
X47669258Y-72519288D01*
X47780172Y-72396105D01*
X47780173Y-72396104D01*
X47784591Y-72391197D01*
X47865487Y-72251081D01*
X47870773Y-72241926D01*
X47870774Y-72241925D01*
X47874077Y-72236203D01*
X47929382Y-72065991D01*
X47934731Y-72015105D01*
X47947400Y-71894565D01*
X47948090Y-71888000D01*
X47938639Y-71798082D01*
X47930072Y-71716573D01*
X47930072Y-71716572D01*
X47929382Y-71710009D01*
X47919121Y-71678427D01*
X47876119Y-71546082D01*
X47874077Y-71539797D01*
X47854682Y-71506203D01*
X47787892Y-71390521D01*
X47784591Y-71384803D01*
X47734731Y-71329427D01*
X47669258Y-71256712D01*
X47669257Y-71256711D01*
X47664836Y-71251801D01*
X47653849Y-71243818D01*
X47525387Y-71150485D01*
X47525386Y-71150484D01*
X47520045Y-71146604D01*
X47514017Y-71143920D01*
X47514015Y-71143919D01*
X47362577Y-71076495D01*
X47362576Y-71076495D01*
X47356546Y-71073810D01*
X47269016Y-71055205D01*
X47187943Y-71037972D01*
X47187939Y-71037972D01*
X47181486Y-71036600D01*
X47002514Y-71036600D01*
X46996061Y-71037972D01*
X46996057Y-71037972D01*
X46914984Y-71055205D01*
X46827454Y-71073810D01*
X46821424Y-71076495D01*
X46821423Y-71076495D01*
X46669985Y-71143919D01*
X46669983Y-71143920D01*
X46663955Y-71146604D01*
X46658614Y-71150484D01*
X46658613Y-71150485D01*
X46530151Y-71243818D01*
X46463283Y-71267677D01*
X46394131Y-71251596D01*
X46344651Y-71200682D01*
X46330780Y-71155053D01*
X46313072Y-70986573D01*
X46313072Y-70986572D01*
X46312382Y-70980009D01*
X46304169Y-70954730D01*
X46259119Y-70816082D01*
X46257077Y-70809797D01*
X46249643Y-70796920D01*
X46222168Y-70749332D01*
X46167591Y-70654803D01*
X46088784Y-70567278D01*
X46052258Y-70526712D01*
X46052257Y-70526711D01*
X46047836Y-70521801D01*
X46037130Y-70514022D01*
X45908387Y-70420485D01*
X45908386Y-70420484D01*
X45903045Y-70416604D01*
X45897017Y-70413920D01*
X45897015Y-70413919D01*
X45745577Y-70346495D01*
X45745576Y-70346495D01*
X45739546Y-70343810D01*
X45651183Y-70325028D01*
X45570943Y-70307972D01*
X45570939Y-70307972D01*
X45564486Y-70306600D01*
X45385514Y-70306600D01*
X45379061Y-70307972D01*
X45379057Y-70307972D01*
X45298817Y-70325028D01*
X45210454Y-70343810D01*
X45204424Y-70346495D01*
X45204423Y-70346495D01*
X45052985Y-70413919D01*
X45052983Y-70413920D01*
X45046955Y-70416604D01*
X45041614Y-70420484D01*
X45041613Y-70420485D01*
X44912871Y-70514022D01*
X44902164Y-70521801D01*
X44897743Y-70526711D01*
X44897742Y-70526712D01*
X44861217Y-70567278D01*
X44782409Y-70654803D01*
X44727832Y-70749332D01*
X44700358Y-70796920D01*
X44692923Y-70809797D01*
X44690881Y-70816082D01*
X44645832Y-70954730D01*
X44637618Y-70980009D01*
X44618910Y-71158000D01*
X43301617Y-71158000D01*
X43295038Y-71146604D01*
X43253010Y-71073810D01*
X43212591Y-71003803D01*
X43092836Y-70870801D01*
X43029098Y-70824492D01*
X42953387Y-70769485D01*
X42953386Y-70769484D01*
X42948045Y-70765604D01*
X42942017Y-70762920D01*
X42942015Y-70762919D01*
X42790577Y-70695495D01*
X42790576Y-70695495D01*
X42784546Y-70692810D01*
X42656961Y-70665691D01*
X42594488Y-70631963D01*
X42560166Y-70569813D01*
X42564894Y-70498974D01*
X42609097Y-70440508D01*
X42667492Y-70398082D01*
X42667494Y-70398080D01*
X42672836Y-70394199D01*
X42719442Y-70342438D01*
X42788172Y-70266105D01*
X42788173Y-70266104D01*
X42792591Y-70261197D01*
X42882077Y-70106203D01*
X42922074Y-69983105D01*
X42935342Y-69942270D01*
X42935342Y-69942269D01*
X42937382Y-69935991D01*
X42956090Y-69758000D01*
X42948405Y-69684881D01*
X42938072Y-69586573D01*
X42938072Y-69586572D01*
X42937382Y-69580009D01*
X42882077Y-69409797D01*
X42872049Y-69392427D01*
X42813597Y-69291187D01*
X42792591Y-69254803D01*
X42770259Y-69230000D01*
X42677258Y-69126712D01*
X42677257Y-69126711D01*
X42672836Y-69121801D01*
X42564389Y-69043009D01*
X42533387Y-69020485D01*
X42533386Y-69020484D01*
X42528045Y-69016604D01*
X42522017Y-69013920D01*
X42522015Y-69013919D01*
X42370577Y-68946495D01*
X42370576Y-68946495D01*
X42364546Y-68943810D01*
X42277016Y-68925205D01*
X42195943Y-68907972D01*
X42195939Y-68907972D01*
X42189486Y-68906600D01*
X42010514Y-68906600D01*
X42004061Y-68907972D01*
X42004057Y-68907972D01*
X41922984Y-68925205D01*
X41835454Y-68943810D01*
X41829424Y-68946495D01*
X41829423Y-68946495D01*
X41677985Y-69013919D01*
X41677983Y-69013920D01*
X41671955Y-69016604D01*
X41666614Y-69020484D01*
X41666613Y-69020485D01*
X41635612Y-69043009D01*
X41527164Y-69121801D01*
X41522743Y-69126711D01*
X41522742Y-69126712D01*
X41429742Y-69230000D01*
X41407409Y-69254803D01*
X41386403Y-69291187D01*
X41327952Y-69392427D01*
X41317923Y-69409797D01*
X41262618Y-69580009D01*
X41261928Y-69586572D01*
X41261928Y-69586573D01*
X41251595Y-69684881D01*
X41243910Y-69758000D01*
X40910263Y-69758000D01*
X40938473Y-69671178D01*
X40942342Y-69659270D01*
X40942342Y-69659269D01*
X40944382Y-69652991D01*
X40963090Y-69475000D01*
X40944382Y-69297009D01*
X40930669Y-69254803D01*
X40891119Y-69133082D01*
X40889077Y-69126797D01*
X40799591Y-68971803D01*
X40679836Y-68838801D01*
X40592186Y-68775119D01*
X40540387Y-68737485D01*
X40540386Y-68737484D01*
X40535045Y-68733604D01*
X40529017Y-68730920D01*
X40529015Y-68730919D01*
X40377577Y-68663495D01*
X40377576Y-68663495D01*
X40371546Y-68660810D01*
X40284016Y-68642205D01*
X40202943Y-68624972D01*
X40202939Y-68624972D01*
X40196486Y-68623600D01*
X40017514Y-68623600D01*
X40011061Y-68624972D01*
X40011057Y-68624972D01*
X39929984Y-68642205D01*
X39842454Y-68660810D01*
X39836424Y-68663495D01*
X39836423Y-68663495D01*
X39684985Y-68730919D01*
X39684983Y-68730920D01*
X39678955Y-68733604D01*
X39673614Y-68737484D01*
X39673613Y-68737485D01*
X39621815Y-68775119D01*
X39534164Y-68838801D01*
X39414409Y-68971803D01*
X39324923Y-69126797D01*
X39322881Y-69133082D01*
X39283332Y-69254803D01*
X39269618Y-69297009D01*
X39250910Y-69475000D01*
X38929671Y-69475000D01*
X38935978Y-69451463D01*
X38955353Y-69230000D01*
X38935978Y-69008537D01*
X38878440Y-68793804D01*
X38849116Y-68730919D01*
X38786814Y-68597311D01*
X38786811Y-68597306D01*
X38784488Y-68592324D01*
X38781331Y-68587815D01*
X38734197Y-68520500D01*
X46056410Y-68520500D01*
X46075118Y-68698491D01*
X46130423Y-68868703D01*
X46219909Y-69023697D01*
X46224327Y-69028604D01*
X46224328Y-69028605D01*
X46307587Y-69121074D01*
X46339664Y-69156699D01*
X46345006Y-69160580D01*
X46345008Y-69160582D01*
X46467937Y-69249895D01*
X46484455Y-69261896D01*
X46490483Y-69264580D01*
X46490485Y-69264581D01*
X46641923Y-69332005D01*
X46647954Y-69334690D01*
X46735484Y-69353295D01*
X46816557Y-69370528D01*
X46816561Y-69370528D01*
X46823014Y-69371900D01*
X47001986Y-69371900D01*
X47008439Y-69370528D01*
X47008443Y-69370528D01*
X47089516Y-69353295D01*
X47177046Y-69334690D01*
X47183077Y-69332005D01*
X47334515Y-69264581D01*
X47334517Y-69264580D01*
X47340545Y-69261896D01*
X47357063Y-69249895D01*
X47479992Y-69160582D01*
X47479994Y-69160580D01*
X47485336Y-69156699D01*
X47517413Y-69121074D01*
X47600672Y-69028605D01*
X47600673Y-69028604D01*
X47605091Y-69023697D01*
X47694577Y-68868703D01*
X47749882Y-68698491D01*
X47768590Y-68520500D01*
X47767900Y-68513935D01*
X47750572Y-68349073D01*
X47750572Y-68349072D01*
X47749882Y-68342509D01*
X47694577Y-68172297D01*
X47605091Y-68017303D01*
X47553496Y-67960000D01*
X47489758Y-67889212D01*
X47489757Y-67889211D01*
X47485336Y-67884301D01*
X47361720Y-67794488D01*
X47345887Y-67782985D01*
X47345886Y-67782984D01*
X47340545Y-67779104D01*
X47334517Y-67776420D01*
X47334515Y-67776419D01*
X47183077Y-67708995D01*
X47183076Y-67708995D01*
X47177046Y-67706310D01*
X47089516Y-67687705D01*
X47008443Y-67670472D01*
X47008439Y-67670472D01*
X47001986Y-67669100D01*
X46823014Y-67669100D01*
X46816561Y-67670472D01*
X46816557Y-67670472D01*
X46735484Y-67687705D01*
X46647954Y-67706310D01*
X46641924Y-67708995D01*
X46641923Y-67708995D01*
X46490485Y-67776419D01*
X46490483Y-67776420D01*
X46484455Y-67779104D01*
X46479114Y-67782984D01*
X46479113Y-67782985D01*
X46463281Y-67794488D01*
X46339664Y-67884301D01*
X46335243Y-67889211D01*
X46335242Y-67889212D01*
X46271505Y-67960000D01*
X46219909Y-68017303D01*
X46130423Y-68172297D01*
X46075118Y-68342509D01*
X46074428Y-68349072D01*
X46074428Y-68349073D01*
X46057100Y-68513935D01*
X46056410Y-68520500D01*
X38734197Y-68520500D01*
X38660136Y-68414730D01*
X38660134Y-68414727D01*
X38656977Y-68410219D01*
X38499781Y-68253023D01*
X38495273Y-68249866D01*
X38495270Y-68249864D01*
X38419505Y-68196813D01*
X38317677Y-68125512D01*
X38312695Y-68123189D01*
X38312690Y-68123186D01*
X38207627Y-68074195D01*
X38154342Y-68027278D01*
X38134881Y-67959001D01*
X38155423Y-67891041D01*
X38207627Y-67845805D01*
X38312690Y-67796814D01*
X38312695Y-67796811D01*
X38317677Y-67794488D01*
X38494790Y-67670472D01*
X38495270Y-67670136D01*
X38495273Y-67670134D01*
X38499781Y-67666977D01*
X38656977Y-67509781D01*
X38784488Y-67327676D01*
X38786811Y-67322694D01*
X38786814Y-67322689D01*
X38876117Y-67131178D01*
X38876118Y-67131177D01*
X38878440Y-67126196D01*
X38935978Y-66911463D01*
X38955353Y-66690000D01*
X38935978Y-66468537D01*
X38878440Y-66253804D01*
X38835805Y-66162373D01*
X38786814Y-66057311D01*
X38786811Y-66057306D01*
X38784488Y-66052324D01*
X38656977Y-65870219D01*
X38578758Y-65792000D01*
X42933910Y-65792000D01*
X42952618Y-65969991D01*
X42954658Y-65976269D01*
X42954658Y-65976270D01*
X42980990Y-66057311D01*
X43007923Y-66140203D01*
X43097409Y-66295197D01*
X43217164Y-66428199D01*
X43222506Y-66432080D01*
X43222508Y-66432082D01*
X43356613Y-66529515D01*
X43361955Y-66533396D01*
X43367983Y-66536080D01*
X43367985Y-66536081D01*
X43519423Y-66603505D01*
X43525454Y-66606190D01*
X43612984Y-66624795D01*
X43694057Y-66642028D01*
X43694061Y-66642028D01*
X43700514Y-66643400D01*
X43879486Y-66643400D01*
X43885939Y-66642028D01*
X43885943Y-66642028D01*
X43967016Y-66624795D01*
X44054546Y-66606190D01*
X44060577Y-66603505D01*
X44212015Y-66536081D01*
X44212017Y-66536080D01*
X44218045Y-66533396D01*
X44223387Y-66529515D01*
X44357492Y-66432082D01*
X44357494Y-66432080D01*
X44362836Y-66428199D01*
X44482591Y-66295197D01*
X44572077Y-66140203D01*
X44599010Y-66057311D01*
X44625342Y-65976270D01*
X44625342Y-65976269D01*
X44627382Y-65969991D01*
X44646090Y-65792000D01*
X44627382Y-65614009D01*
X44572077Y-65443797D01*
X44566434Y-65434022D01*
X44518524Y-65351041D01*
X44482591Y-65288803D01*
X44362836Y-65155801D01*
X44327512Y-65130136D01*
X44223387Y-65054485D01*
X44223386Y-65054484D01*
X44218045Y-65050604D01*
X44212017Y-65047920D01*
X44212015Y-65047919D01*
X44060577Y-64980495D01*
X44060576Y-64980495D01*
X44054546Y-64977810D01*
X43967016Y-64959205D01*
X43885943Y-64941972D01*
X43885939Y-64941972D01*
X43879486Y-64940600D01*
X43700514Y-64940600D01*
X43694061Y-64941972D01*
X43694057Y-64941972D01*
X43612984Y-64959205D01*
X43525454Y-64977810D01*
X43519424Y-64980495D01*
X43519423Y-64980495D01*
X43367985Y-65047919D01*
X43367983Y-65047920D01*
X43361955Y-65050604D01*
X43356614Y-65054484D01*
X43356613Y-65054485D01*
X43252489Y-65130136D01*
X43217164Y-65155801D01*
X43097409Y-65288803D01*
X43061476Y-65351041D01*
X43013567Y-65434022D01*
X43007923Y-65443797D01*
X42952618Y-65614009D01*
X42933910Y-65792000D01*
X38578758Y-65792000D01*
X38499781Y-65713023D01*
X38495273Y-65709866D01*
X38495270Y-65709864D01*
X38367749Y-65620573D01*
X38317677Y-65585512D01*
X38312695Y-65583189D01*
X38312690Y-65583186D01*
X38207627Y-65534195D01*
X38154342Y-65487278D01*
X38134881Y-65419001D01*
X38155423Y-65351041D01*
X38207627Y-65305805D01*
X38312690Y-65256814D01*
X38312695Y-65256811D01*
X38317677Y-65254488D01*
X38464162Y-65151918D01*
X38495270Y-65130136D01*
X38495273Y-65130134D01*
X38499781Y-65126977D01*
X38656977Y-64969781D01*
X38784488Y-64787676D01*
X38786811Y-64782694D01*
X38786814Y-64782689D01*
X38876117Y-64591178D01*
X38876118Y-64591177D01*
X38878440Y-64586196D01*
X38935978Y-64371463D01*
X38955353Y-64150000D01*
X38935978Y-63928537D01*
X38878440Y-63713804D01*
X38860148Y-63674577D01*
X38786814Y-63517311D01*
X38786811Y-63517306D01*
X38784488Y-63512324D01*
X38766195Y-63486199D01*
X38660136Y-63334730D01*
X38660134Y-63334727D01*
X38656977Y-63330219D01*
X38499781Y-63173023D01*
X38495273Y-63169866D01*
X38495270Y-63169864D01*
X38409365Y-63109713D01*
X38365037Y-63054256D01*
X38357728Y-62983637D01*
X38389759Y-62920276D01*
X38450960Y-62884291D01*
X38481636Y-62880500D01*
X38490134Y-62880500D01*
X38552316Y-62873745D01*
X38615656Y-62850000D01*
X43961910Y-62850000D01*
X43962600Y-62856565D01*
X43972135Y-62947278D01*
X43980618Y-63027991D01*
X44035923Y-63198203D01*
X44125409Y-63353197D01*
X44245164Y-63486199D01*
X44250506Y-63490080D01*
X44250508Y-63490082D01*
X44384613Y-63587515D01*
X44389955Y-63591396D01*
X44395983Y-63594080D01*
X44395985Y-63594081D01*
X44547423Y-63661505D01*
X44553454Y-63664190D01*
X44640984Y-63682795D01*
X44722057Y-63700028D01*
X44722061Y-63700028D01*
X44728514Y-63701400D01*
X44907486Y-63701400D01*
X44913939Y-63700028D01*
X44913943Y-63700028D01*
X44995016Y-63682795D01*
X45082546Y-63664190D01*
X45088577Y-63661505D01*
X45240015Y-63594081D01*
X45240017Y-63594080D01*
X45246045Y-63591396D01*
X45251387Y-63587515D01*
X45385492Y-63490082D01*
X45385494Y-63490080D01*
X45390836Y-63486199D01*
X45510591Y-63353197D01*
X45600077Y-63198203D01*
X45655382Y-63027991D01*
X45663866Y-62947278D01*
X45673400Y-62856565D01*
X45674090Y-62850000D01*
X45655382Y-62672009D01*
X45640398Y-62625891D01*
X45602119Y-62508082D01*
X45600077Y-62501797D01*
X45593102Y-62489715D01*
X45548022Y-62411636D01*
X45510591Y-62346803D01*
X45390836Y-62213801D01*
X45369639Y-62198400D01*
X45251387Y-62112485D01*
X45251386Y-62112484D01*
X45246045Y-62108604D01*
X45240017Y-62105920D01*
X45240015Y-62105919D01*
X45088577Y-62038495D01*
X45088576Y-62038495D01*
X45082546Y-62035810D01*
X44995016Y-62017205D01*
X44913943Y-61999972D01*
X44913939Y-61999972D01*
X44907486Y-61998600D01*
X44728514Y-61998600D01*
X44722061Y-61999972D01*
X44722057Y-61999972D01*
X44640984Y-62017205D01*
X44553454Y-62035810D01*
X44547424Y-62038495D01*
X44547423Y-62038495D01*
X44395985Y-62105919D01*
X44395983Y-62105920D01*
X44389955Y-62108604D01*
X44384614Y-62112484D01*
X44384613Y-62112485D01*
X44266362Y-62198400D01*
X44245164Y-62213801D01*
X44125409Y-62346803D01*
X44087978Y-62411636D01*
X44042899Y-62489715D01*
X44035923Y-62501797D01*
X44033881Y-62508082D01*
X43995603Y-62625891D01*
X43980618Y-62672009D01*
X43961910Y-62850000D01*
X38615656Y-62850000D01*
X38688705Y-62822615D01*
X38805261Y-62735261D01*
X38892615Y-62618705D01*
X38943745Y-62482316D01*
X38950500Y-62420134D01*
X38950500Y-61347000D01*
X46743910Y-61347000D01*
X46762618Y-61524991D01*
X46817923Y-61695203D01*
X46907409Y-61850197D01*
X47027164Y-61983199D01*
X47032506Y-61987080D01*
X47032508Y-61987082D01*
X47120729Y-62051178D01*
X47171955Y-62088396D01*
X47177983Y-62091080D01*
X47177985Y-62091081D01*
X47217343Y-62108604D01*
X47335454Y-62161190D01*
X47422984Y-62179795D01*
X47504057Y-62197028D01*
X47504061Y-62197028D01*
X47510514Y-62198400D01*
X47689486Y-62198400D01*
X47695939Y-62197028D01*
X47695943Y-62197028D01*
X47777016Y-62179795D01*
X47864546Y-62161190D01*
X47982657Y-62108604D01*
X48022015Y-62091081D01*
X48022017Y-62091080D01*
X48028045Y-62088396D01*
X48079271Y-62051178D01*
X48167492Y-61987082D01*
X48167494Y-61987080D01*
X48172836Y-61983199D01*
X48292591Y-61850197D01*
X48382077Y-61695203D01*
X48437382Y-61524991D01*
X48456090Y-61347000D01*
X48437382Y-61169009D01*
X48422820Y-61124190D01*
X48384119Y-61005082D01*
X48382077Y-60998797D01*
X48364190Y-60967815D01*
X48295892Y-60849521D01*
X48292591Y-60843803D01*
X48265034Y-60813197D01*
X48177258Y-60715712D01*
X48177257Y-60715711D01*
X48172836Y-60710801D01*
X48108319Y-60663926D01*
X48033387Y-60609485D01*
X48033386Y-60609484D01*
X48028045Y-60605604D01*
X48022017Y-60602920D01*
X48022015Y-60602919D01*
X47870577Y-60535495D01*
X47870576Y-60535495D01*
X47864546Y-60532810D01*
X47777016Y-60514205D01*
X47695943Y-60496972D01*
X47695939Y-60496972D01*
X47689486Y-60495600D01*
X47510514Y-60495600D01*
X47504061Y-60496972D01*
X47504057Y-60496972D01*
X47422984Y-60514205D01*
X47335454Y-60532810D01*
X47329424Y-60535495D01*
X47329423Y-60535495D01*
X47177985Y-60602919D01*
X47177983Y-60602920D01*
X47171955Y-60605604D01*
X47166614Y-60609484D01*
X47166613Y-60609485D01*
X47091682Y-60663926D01*
X47027164Y-60710801D01*
X47022743Y-60715711D01*
X47022742Y-60715712D01*
X46934967Y-60813197D01*
X46907409Y-60843803D01*
X46904108Y-60849521D01*
X46835811Y-60967815D01*
X46817923Y-60998797D01*
X46815881Y-61005082D01*
X46777181Y-61124190D01*
X46762618Y-61169009D01*
X46743910Y-61347000D01*
X38950500Y-61347000D01*
X38950500Y-60799866D01*
X38943745Y-60737684D01*
X38892615Y-60601295D01*
X38805261Y-60484739D01*
X38688705Y-60397385D01*
X38552316Y-60346255D01*
X38490134Y-60339500D01*
X36869866Y-60339500D01*
X36807684Y-60346255D01*
X36671295Y-60397385D01*
X36554739Y-60484739D01*
X36467385Y-60601295D01*
X36416255Y-60737684D01*
X36409500Y-60799866D01*
X36409500Y-60808364D01*
X36389498Y-60876485D01*
X36335842Y-60922978D01*
X36265568Y-60933082D01*
X36200988Y-60903588D01*
X36180287Y-60880635D01*
X36120136Y-60794730D01*
X36120134Y-60794727D01*
X36116977Y-60790219D01*
X35959781Y-60633023D01*
X35955273Y-60629866D01*
X35955270Y-60629864D01*
X35814703Y-60531438D01*
X35777677Y-60505512D01*
X35772695Y-60503189D01*
X35772690Y-60503186D01*
X35581178Y-60413883D01*
X35581177Y-60413882D01*
X35576196Y-60411560D01*
X35570888Y-60410138D01*
X35570886Y-60410137D01*
X35505051Y-60392497D01*
X35361463Y-60354022D01*
X35140000Y-60334647D01*
X34918537Y-60354022D01*
X34774949Y-60392497D01*
X34709114Y-60410137D01*
X34709112Y-60410138D01*
X34703804Y-60411560D01*
X34698823Y-60413882D01*
X34698822Y-60413883D01*
X34507311Y-60503186D01*
X34507306Y-60503189D01*
X34502324Y-60505512D01*
X34497817Y-60508668D01*
X34497815Y-60508669D01*
X34324730Y-60629864D01*
X34324727Y-60629866D01*
X34320219Y-60633023D01*
X34163023Y-60790219D01*
X34159866Y-60794727D01*
X34159864Y-60794730D01*
X34053805Y-60946199D01*
X34035512Y-60972324D01*
X34033189Y-60977306D01*
X34033186Y-60977311D01*
X33947984Y-61160028D01*
X33941560Y-61173804D01*
X33884022Y-61388537D01*
X33864647Y-61610000D01*
X33884022Y-61831463D01*
X33885446Y-61836776D01*
X33939497Y-62038495D01*
X33941560Y-62046196D01*
X33943882Y-62051177D01*
X33943883Y-62051178D01*
X34033186Y-62242689D01*
X34033189Y-62242694D01*
X34035512Y-62247676D01*
X34038668Y-62252183D01*
X34038669Y-62252185D01*
X34158647Y-62423531D01*
X34163023Y-62429781D01*
X34320219Y-62586977D01*
X34324727Y-62590134D01*
X34324730Y-62590136D01*
X34353523Y-62610297D01*
X34502323Y-62714488D01*
X34507305Y-62716811D01*
X34507310Y-62716814D01*
X34612373Y-62765805D01*
X34665658Y-62812722D01*
X34685119Y-62880999D01*
X34664577Y-62948959D01*
X34612373Y-62994195D01*
X34507311Y-63043186D01*
X34507306Y-63043189D01*
X34502324Y-63045512D01*
X34497817Y-63048668D01*
X34497815Y-63048669D01*
X34324730Y-63169864D01*
X34324727Y-63169866D01*
X34320219Y-63173023D01*
X34163023Y-63330219D01*
X34159866Y-63334727D01*
X34159864Y-63334730D01*
X34053805Y-63486199D01*
X34035512Y-63512324D01*
X34033189Y-63517306D01*
X34033186Y-63517311D01*
X33959852Y-63674577D01*
X33941560Y-63713804D01*
X33884022Y-63928537D01*
X33864647Y-64150000D01*
X33884022Y-64371463D01*
X33941560Y-64586196D01*
X33943882Y-64591177D01*
X33943883Y-64591178D01*
X34033186Y-64782689D01*
X34033189Y-64782694D01*
X34035512Y-64787676D01*
X34163023Y-64969781D01*
X34320219Y-65126977D01*
X34324727Y-65130134D01*
X34324730Y-65130136D01*
X34355838Y-65151918D01*
X34502323Y-65254488D01*
X34507305Y-65256811D01*
X34507310Y-65256814D01*
X34612373Y-65305805D01*
X34665658Y-65352722D01*
X34685119Y-65420999D01*
X34664577Y-65488959D01*
X34612373Y-65534195D01*
X34507311Y-65583186D01*
X34507306Y-65583189D01*
X34502324Y-65585512D01*
X34497817Y-65588668D01*
X34497815Y-65588669D01*
X34324730Y-65709864D01*
X34324727Y-65709866D01*
X34320219Y-65713023D01*
X34163023Y-65870219D01*
X34035512Y-66052324D01*
X34033189Y-66057306D01*
X34033186Y-66057311D01*
X33984195Y-66162373D01*
X33941560Y-66253804D01*
X33884022Y-66468537D01*
X33864647Y-66690000D01*
X33884022Y-66911463D01*
X33941560Y-67126196D01*
X33943882Y-67131177D01*
X33943883Y-67131178D01*
X34033186Y-67322689D01*
X34033189Y-67322694D01*
X34035512Y-67327676D01*
X34163023Y-67509781D01*
X34320219Y-67666977D01*
X34324727Y-67670134D01*
X34324730Y-67670136D01*
X34325210Y-67670472D01*
X34502323Y-67794488D01*
X34507305Y-67796811D01*
X34507310Y-67796814D01*
X34612373Y-67845805D01*
X34665658Y-67892722D01*
X34685119Y-67960999D01*
X34664577Y-68028959D01*
X34612373Y-68074195D01*
X34507311Y-68123186D01*
X34507306Y-68123189D01*
X34502324Y-68125512D01*
X34497817Y-68128668D01*
X34497815Y-68128669D01*
X34324730Y-68249864D01*
X34324727Y-68249866D01*
X34320219Y-68253023D01*
X34163023Y-68410219D01*
X34159866Y-68414727D01*
X34159864Y-68414730D01*
X34038669Y-68587815D01*
X34035512Y-68592324D01*
X34033189Y-68597306D01*
X34033186Y-68597311D01*
X33970884Y-68730919D01*
X33941560Y-68793804D01*
X33884022Y-69008537D01*
X33864647Y-69230000D01*
X33884022Y-69451463D01*
X33941560Y-69666196D01*
X33943882Y-69671177D01*
X33943883Y-69671178D01*
X34033186Y-69862689D01*
X34033189Y-69862694D01*
X34035512Y-69867676D01*
X34038668Y-69872183D01*
X34038669Y-69872185D01*
X34108896Y-69972479D01*
X34163023Y-70049781D01*
X34320219Y-70206977D01*
X34324727Y-70210134D01*
X34324730Y-70210136D01*
X34337505Y-70219081D01*
X34502323Y-70334488D01*
X34507305Y-70336811D01*
X34507310Y-70336814D01*
X34612373Y-70385805D01*
X34665658Y-70432722D01*
X34685119Y-70500999D01*
X34664577Y-70568959D01*
X34612373Y-70614195D01*
X34507311Y-70663186D01*
X34507306Y-70663189D01*
X34502324Y-70665512D01*
X34497817Y-70668668D01*
X34497815Y-70668669D01*
X34324730Y-70789864D01*
X34324727Y-70789866D01*
X34320219Y-70793023D01*
X34163023Y-70950219D01*
X34159866Y-70954727D01*
X34159864Y-70954730D01*
X34076484Y-71073810D01*
X34035512Y-71132324D01*
X34033189Y-71137306D01*
X34033186Y-71137311D01*
X33959852Y-71294577D01*
X33941560Y-71333804D01*
X33940138Y-71339112D01*
X33940137Y-71339114D01*
X33929210Y-71379895D01*
X33884022Y-71548537D01*
X33864647Y-71770000D01*
X33884022Y-71991463D01*
X33941560Y-72206196D01*
X33943882Y-72211177D01*
X33943883Y-72211178D01*
X34033186Y-72402689D01*
X34033189Y-72402694D01*
X34035512Y-72407676D01*
X34163023Y-72589781D01*
X34320219Y-72746977D01*
X34324727Y-72750134D01*
X34324730Y-72750136D01*
X34400495Y-72803187D01*
X34502323Y-72874488D01*
X34507305Y-72876811D01*
X34507310Y-72876814D01*
X34612373Y-72925805D01*
X34665658Y-72972722D01*
X34685119Y-73040999D01*
X34664577Y-73108959D01*
X34612373Y-73154195D01*
X34507311Y-73203186D01*
X34507306Y-73203189D01*
X34502324Y-73205512D01*
X34497817Y-73208668D01*
X34497815Y-73208669D01*
X34324730Y-73329864D01*
X34324727Y-73329866D01*
X34320219Y-73333023D01*
X34163023Y-73490219D01*
X34035512Y-73672324D01*
X34033189Y-73677306D01*
X34033186Y-73677311D01*
X33984195Y-73782373D01*
X33941560Y-73873804D01*
X33884022Y-74088537D01*
X33864647Y-74310000D01*
X33508500Y-74310000D01*
X33508500Y-60310000D01*
X41929910Y-60310000D01*
X41948618Y-60487991D01*
X41950658Y-60494269D01*
X41950658Y-60494270D01*
X41964053Y-60535495D01*
X42003923Y-60658203D01*
X42093409Y-60813197D01*
X42097827Y-60818104D01*
X42097828Y-60818105D01*
X42154130Y-60880635D01*
X42213164Y-60946199D01*
X42218506Y-60950080D01*
X42218508Y-60950082D01*
X42294209Y-61005082D01*
X42357955Y-61051396D01*
X42363983Y-61054080D01*
X42363985Y-61054081D01*
X42515423Y-61121505D01*
X42521454Y-61124190D01*
X42608984Y-61142795D01*
X42690057Y-61160028D01*
X42690061Y-61160028D01*
X42696514Y-61161400D01*
X42875486Y-61161400D01*
X42881939Y-61160028D01*
X42881943Y-61160028D01*
X42963016Y-61142795D01*
X43050546Y-61124190D01*
X43056577Y-61121505D01*
X43208015Y-61054081D01*
X43208017Y-61054080D01*
X43214045Y-61051396D01*
X43277791Y-61005082D01*
X43353492Y-60950082D01*
X43353494Y-60950080D01*
X43358836Y-60946199D01*
X43417870Y-60880635D01*
X43474172Y-60818105D01*
X43474173Y-60818104D01*
X43478591Y-60813197D01*
X43568077Y-60658203D01*
X43607947Y-60535495D01*
X43621342Y-60494270D01*
X43621342Y-60494269D01*
X43623382Y-60487991D01*
X43642090Y-60310000D01*
X43623382Y-60132009D01*
X43568077Y-59961797D01*
X43478591Y-59806803D01*
X43470136Y-59797412D01*
X43363258Y-59678712D01*
X43363257Y-59678711D01*
X43358836Y-59673801D01*
X43300236Y-59631225D01*
X43219387Y-59572485D01*
X43219386Y-59572484D01*
X43214045Y-59568604D01*
X43208017Y-59565920D01*
X43208015Y-59565919D01*
X43056577Y-59498495D01*
X43056576Y-59498495D01*
X43050546Y-59495810D01*
X42945948Y-59473577D01*
X42881943Y-59459972D01*
X42881939Y-59459972D01*
X42875486Y-59458600D01*
X42696514Y-59458600D01*
X42690061Y-59459972D01*
X42690057Y-59459972D01*
X42626052Y-59473577D01*
X42521454Y-59495810D01*
X42515424Y-59498495D01*
X42515423Y-59498495D01*
X42363985Y-59565919D01*
X42363983Y-59565920D01*
X42357955Y-59568604D01*
X42352614Y-59572484D01*
X42352613Y-59572485D01*
X42271765Y-59631225D01*
X42213164Y-59673801D01*
X42208743Y-59678711D01*
X42208742Y-59678712D01*
X42101865Y-59797412D01*
X42093409Y-59806803D01*
X42003923Y-59961797D01*
X41948618Y-60132009D01*
X41929910Y-60310000D01*
X33508500Y-60310000D01*
X33508500Y-59289307D01*
X45989217Y-59289307D01*
X46007925Y-59467298D01*
X46063230Y-59637510D01*
X46152716Y-59792504D01*
X46157134Y-59797411D01*
X46157135Y-59797412D01*
X46165591Y-59806803D01*
X46272471Y-59925506D01*
X46277813Y-59929387D01*
X46277815Y-59929389D01*
X46411920Y-60026822D01*
X46417262Y-60030703D01*
X46423290Y-60033387D01*
X46423292Y-60033388D01*
X46574730Y-60100812D01*
X46580761Y-60103497D01*
X46668291Y-60122102D01*
X46749364Y-60139335D01*
X46749368Y-60139335D01*
X46755821Y-60140707D01*
X46934793Y-60140707D01*
X46941246Y-60139335D01*
X46941250Y-60139335D01*
X47022323Y-60122102D01*
X47109853Y-60103497D01*
X47115884Y-60100812D01*
X47267322Y-60033388D01*
X47267324Y-60033387D01*
X47273352Y-60030703D01*
X47278694Y-60026822D01*
X47412799Y-59929389D01*
X47412801Y-59929387D01*
X47418143Y-59925506D01*
X47525023Y-59806803D01*
X47533479Y-59797412D01*
X47533480Y-59797411D01*
X47537898Y-59792504D01*
X47627384Y-59637510D01*
X47682689Y-59467298D01*
X47701397Y-59289307D01*
X47682689Y-59111316D01*
X47627384Y-58941104D01*
X47537898Y-58786110D01*
X47418143Y-58653108D01*
X47372613Y-58620028D01*
X47278694Y-58551792D01*
X47278693Y-58551791D01*
X47273352Y-58547911D01*
X47267324Y-58545227D01*
X47267322Y-58545226D01*
X47115884Y-58477802D01*
X47115883Y-58477802D01*
X47109853Y-58475117D01*
X47022323Y-58456512D01*
X46941250Y-58439279D01*
X46941246Y-58439279D01*
X46934793Y-58437907D01*
X46755821Y-58437907D01*
X46749368Y-58439279D01*
X46749364Y-58439279D01*
X46668291Y-58456512D01*
X46580761Y-58475117D01*
X46574731Y-58477802D01*
X46574730Y-58477802D01*
X46423292Y-58545226D01*
X46423290Y-58545227D01*
X46417262Y-58547911D01*
X46411921Y-58551791D01*
X46411920Y-58551792D01*
X46318002Y-58620028D01*
X46272471Y-58653108D01*
X46152716Y-58786110D01*
X46063230Y-58941104D01*
X46007925Y-59111316D01*
X45989217Y-59289307D01*
X33508500Y-59289307D01*
X33508500Y-57262000D01*
X44977910Y-57262000D01*
X44978600Y-57268565D01*
X44991385Y-57390199D01*
X44996618Y-57439991D01*
X45051923Y-57610203D01*
X45141409Y-57765197D01*
X45261164Y-57898199D01*
X45266506Y-57902080D01*
X45266508Y-57902082D01*
X45338339Y-57954270D01*
X45405955Y-58003396D01*
X45411983Y-58006080D01*
X45411985Y-58006081D01*
X45563423Y-58073505D01*
X45569454Y-58076190D01*
X45656984Y-58094795D01*
X45738057Y-58112028D01*
X45738061Y-58112028D01*
X45744514Y-58113400D01*
X45923486Y-58113400D01*
X45929939Y-58112028D01*
X45929943Y-58112028D01*
X46011016Y-58094795D01*
X46098546Y-58076190D01*
X46104577Y-58073505D01*
X46256015Y-58006081D01*
X46256017Y-58006080D01*
X46262045Y-58003396D01*
X46329661Y-57954270D01*
X46401492Y-57902082D01*
X46401494Y-57902080D01*
X46406836Y-57898199D01*
X46526591Y-57765197D01*
X46616077Y-57610203D01*
X46671382Y-57439991D01*
X46676616Y-57390199D01*
X46689400Y-57268565D01*
X46690090Y-57262000D01*
X46677132Y-57138712D01*
X46672072Y-57090573D01*
X46672072Y-57090572D01*
X46671382Y-57084009D01*
X46616077Y-56913797D01*
X46526591Y-56758803D01*
X46406836Y-56625801D01*
X46338304Y-56576009D01*
X46267387Y-56524485D01*
X46267386Y-56524484D01*
X46262045Y-56520604D01*
X46256017Y-56517920D01*
X46256015Y-56517919D01*
X46104577Y-56450495D01*
X46104576Y-56450495D01*
X46098546Y-56447810D01*
X46011016Y-56429205D01*
X45929943Y-56411972D01*
X45929939Y-56411972D01*
X45923486Y-56410600D01*
X45744514Y-56410600D01*
X45738061Y-56411972D01*
X45738057Y-56411972D01*
X45656984Y-56429205D01*
X45569454Y-56447810D01*
X45563424Y-56450495D01*
X45563423Y-56450495D01*
X45411985Y-56517919D01*
X45411983Y-56517920D01*
X45405955Y-56520604D01*
X45400614Y-56524484D01*
X45400613Y-56524485D01*
X45329697Y-56576009D01*
X45261164Y-56625801D01*
X45141409Y-56758803D01*
X45051923Y-56913797D01*
X44996618Y-57084009D01*
X44995928Y-57090572D01*
X44995928Y-57090573D01*
X44990868Y-57138712D01*
X44977910Y-57262000D01*
X33508500Y-57262000D01*
X33508500Y-51450000D01*
X33864647Y-51450000D01*
X33884022Y-51671463D01*
X33941560Y-51886196D01*
X33943882Y-51891177D01*
X33943883Y-51891178D01*
X34033186Y-52082689D01*
X34033189Y-52082694D01*
X34035512Y-52087676D01*
X34163023Y-52269781D01*
X34320219Y-52426977D01*
X34324727Y-52430134D01*
X34324730Y-52430136D01*
X34394071Y-52478689D01*
X34502323Y-52554488D01*
X34507305Y-52556811D01*
X34507310Y-52556814D01*
X34628126Y-52613151D01*
X34703804Y-52648440D01*
X34709112Y-52649862D01*
X34709114Y-52649863D01*
X34771712Y-52666636D01*
X34918537Y-52705978D01*
X35140000Y-52725353D01*
X35361463Y-52705978D01*
X35508288Y-52666636D01*
X35570886Y-52649863D01*
X35570888Y-52649862D01*
X35576196Y-52648440D01*
X35651874Y-52613151D01*
X35772690Y-52556814D01*
X35772695Y-52556811D01*
X35777677Y-52554488D01*
X35885929Y-52478689D01*
X35955270Y-52430136D01*
X35955273Y-52430134D01*
X35959781Y-52426977D01*
X36116977Y-52269781D01*
X36244488Y-52087676D01*
X36246811Y-52082694D01*
X36246814Y-52082689D01*
X36295805Y-51977627D01*
X36342723Y-51924342D01*
X36411000Y-51904881D01*
X36478960Y-51925423D01*
X36524195Y-51977627D01*
X36573186Y-52082689D01*
X36573189Y-52082694D01*
X36575512Y-52087676D01*
X36703023Y-52269781D01*
X36860219Y-52426977D01*
X36864727Y-52430134D01*
X36864730Y-52430136D01*
X36934071Y-52478689D01*
X37042323Y-52554488D01*
X37047305Y-52556811D01*
X37047310Y-52556814D01*
X37168126Y-52613151D01*
X37243804Y-52648440D01*
X37249112Y-52649862D01*
X37249114Y-52649863D01*
X37311712Y-52666636D01*
X37458537Y-52705978D01*
X37680000Y-52725353D01*
X37901463Y-52705978D01*
X38048288Y-52666636D01*
X38119263Y-52668326D01*
X38178059Y-52708120D01*
X38206007Y-52773384D01*
X38194234Y-52843398D01*
X38154959Y-52890279D01*
X38112703Y-52920980D01*
X38077164Y-52946801D01*
X38072743Y-52951711D01*
X38072742Y-52951712D01*
X38011248Y-53020009D01*
X37957409Y-53079803D01*
X37867923Y-53234797D01*
X37812618Y-53405009D01*
X37811928Y-53411572D01*
X37811928Y-53411573D01*
X37805513Y-53472604D01*
X37793910Y-53583000D01*
X37812618Y-53760991D01*
X37867923Y-53931203D01*
X37957409Y-54086197D01*
X38077164Y-54219199D01*
X38082506Y-54223080D01*
X38082508Y-54223082D01*
X38195179Y-54304942D01*
X38221955Y-54324396D01*
X38227983Y-54327080D01*
X38227985Y-54327081D01*
X38374682Y-54392394D01*
X38385454Y-54397190D01*
X38466600Y-54414438D01*
X38554057Y-54433028D01*
X38554061Y-54433028D01*
X38560514Y-54434400D01*
X38739486Y-54434400D01*
X38745939Y-54433028D01*
X38745943Y-54433028D01*
X38833400Y-54414438D01*
X38906223Y-54398959D01*
X41820170Y-54398959D01*
X41820860Y-54405524D01*
X41837930Y-54567926D01*
X41838878Y-54576950D01*
X41840918Y-54583228D01*
X41840918Y-54583229D01*
X41844353Y-54593801D01*
X41894183Y-54747162D01*
X41983669Y-54902156D01*
X42103424Y-55035158D01*
X42108766Y-55039039D01*
X42108768Y-55039041D01*
X42242873Y-55136474D01*
X42248215Y-55140355D01*
X42254243Y-55143039D01*
X42254245Y-55143040D01*
X42405683Y-55210464D01*
X42411714Y-55213149D01*
X42490992Y-55230000D01*
X42580317Y-55248987D01*
X42580321Y-55248987D01*
X42586774Y-55250359D01*
X42765746Y-55250359D01*
X42772199Y-55248987D01*
X42772203Y-55248987D01*
X42861528Y-55230000D01*
X42940806Y-55213149D01*
X42946837Y-55210464D01*
X43098275Y-55143040D01*
X43098277Y-55143039D01*
X43104305Y-55140355D01*
X43109647Y-55136474D01*
X43243752Y-55039041D01*
X43243754Y-55039039D01*
X43249096Y-55035158D01*
X43368851Y-54902156D01*
X43458337Y-54747162D01*
X43508167Y-54593801D01*
X43511602Y-54583229D01*
X43511602Y-54583228D01*
X43513642Y-54576950D01*
X43514591Y-54567926D01*
X43531660Y-54405524D01*
X43532350Y-54398959D01*
X43513642Y-54220968D01*
X43511378Y-54214000D01*
X44977910Y-54214000D01*
X44978600Y-54220563D01*
X44978600Y-54220565D01*
X44995211Y-54378600D01*
X44996618Y-54391991D01*
X45051923Y-54562203D01*
X45055226Y-54567925D01*
X45055227Y-54567926D01*
X45086832Y-54622668D01*
X45141409Y-54717197D01*
X45261164Y-54850199D01*
X45266506Y-54854080D01*
X45266508Y-54854082D01*
X45400613Y-54951515D01*
X45405955Y-54955396D01*
X45411983Y-54958080D01*
X45411985Y-54958081D01*
X45563423Y-55025505D01*
X45569454Y-55028190D01*
X45651974Y-55045730D01*
X45738057Y-55064028D01*
X45738061Y-55064028D01*
X45744514Y-55065400D01*
X45923486Y-55065400D01*
X45929939Y-55064028D01*
X45929943Y-55064028D01*
X46016026Y-55045730D01*
X46098546Y-55028190D01*
X46104577Y-55025505D01*
X46256015Y-54958081D01*
X46256017Y-54958080D01*
X46262045Y-54955396D01*
X46267387Y-54951515D01*
X46394939Y-54858843D01*
X46461807Y-54834984D01*
X46530958Y-54851065D01*
X46543061Y-54858843D01*
X46670613Y-54951515D01*
X46675955Y-54955396D01*
X46681983Y-54958080D01*
X46681985Y-54958081D01*
X46833423Y-55025505D01*
X46839454Y-55028190D01*
X46921974Y-55045730D01*
X47008057Y-55064028D01*
X47008061Y-55064028D01*
X47014514Y-55065400D01*
X47141273Y-55065400D01*
X47209394Y-55085402D01*
X47255887Y-55139058D01*
X47266583Y-55204571D01*
X47263910Y-55230000D01*
X47282618Y-55407991D01*
X47337923Y-55578203D01*
X47427409Y-55733197D01*
X47547164Y-55866199D01*
X47569968Y-55882767D01*
X47580011Y-55890064D01*
X47623365Y-55946287D01*
X47629440Y-56017023D01*
X47596308Y-56079815D01*
X47580011Y-56093936D01*
X47547164Y-56117801D01*
X47427409Y-56250803D01*
X47337923Y-56405797D01*
X47335881Y-56412082D01*
X47301493Y-56517919D01*
X47282618Y-56576009D01*
X47281928Y-56582572D01*
X47281928Y-56582573D01*
X47276868Y-56630712D01*
X47263910Y-56754000D01*
X47282618Y-56931991D01*
X47337923Y-57102203D01*
X47341226Y-57107925D01*
X47341227Y-57107926D01*
X47372832Y-57162668D01*
X47427409Y-57257197D01*
X47547164Y-57390199D01*
X47552506Y-57394080D01*
X47552508Y-57394082D01*
X47624339Y-57446270D01*
X47691955Y-57495396D01*
X47712277Y-57504444D01*
X47766373Y-57550423D01*
X47787023Y-57618350D01*
X47786339Y-57632719D01*
X47771910Y-57770000D01*
X47772600Y-57776565D01*
X47785385Y-57898199D01*
X47790618Y-57947991D01*
X47792658Y-57954269D01*
X47792658Y-57954270D01*
X47822989Y-58047620D01*
X47845923Y-58118203D01*
X47935409Y-58273197D01*
X48055164Y-58406199D01*
X48060506Y-58410080D01*
X48060508Y-58410082D01*
X48148133Y-58473745D01*
X48199955Y-58511396D01*
X48205983Y-58514080D01*
X48205985Y-58514081D01*
X48290686Y-58551792D01*
X48363454Y-58584190D01*
X48450984Y-58602795D01*
X48532057Y-58620028D01*
X48532061Y-58620028D01*
X48538514Y-58621400D01*
X48717486Y-58621400D01*
X48723939Y-58620028D01*
X48723943Y-58620028D01*
X48805016Y-58602795D01*
X48892546Y-58584190D01*
X48965314Y-58551792D01*
X49050015Y-58514081D01*
X49050017Y-58514080D01*
X49056045Y-58511396D01*
X49107867Y-58473745D01*
X49195492Y-58410082D01*
X49195494Y-58410080D01*
X49200836Y-58406199D01*
X49320591Y-58273197D01*
X49410077Y-58118203D01*
X49433011Y-58047620D01*
X49463342Y-57954270D01*
X49463342Y-57954269D01*
X49465382Y-57947991D01*
X49470616Y-57898199D01*
X49483400Y-57776565D01*
X49484090Y-57770000D01*
X49465382Y-57592009D01*
X49410077Y-57421797D01*
X49388999Y-57385288D01*
X49323892Y-57272521D01*
X49320591Y-57266803D01*
X49200836Y-57133801D01*
X49165223Y-57107926D01*
X49061387Y-57032485D01*
X49061386Y-57032484D01*
X49056045Y-57028604D01*
X49035723Y-57019556D01*
X48981627Y-56973577D01*
X48960977Y-56905650D01*
X48961661Y-56891278D01*
X48975400Y-56760565D01*
X48976090Y-56754000D01*
X48963132Y-56630712D01*
X48958072Y-56582573D01*
X48958072Y-56582572D01*
X48957382Y-56576009D01*
X48938508Y-56517919D01*
X48904119Y-56412082D01*
X48902077Y-56405797D01*
X48812591Y-56250803D01*
X48692836Y-56117801D01*
X48659989Y-56093936D01*
X48616635Y-56037713D01*
X48610560Y-55966977D01*
X48643692Y-55904185D01*
X48659989Y-55890064D01*
X48670032Y-55882767D01*
X48692836Y-55866199D01*
X48812591Y-55733197D01*
X48902077Y-55578203D01*
X48957382Y-55407991D01*
X48976090Y-55230000D01*
X48960892Y-55085402D01*
X48958072Y-55058573D01*
X48958072Y-55058572D01*
X48957382Y-55052009D01*
X48953169Y-55039041D01*
X48904119Y-54888082D01*
X48902077Y-54881797D01*
X48888825Y-54858843D01*
X48867168Y-54821332D01*
X48812591Y-54726803D01*
X48692836Y-54593801D01*
X48660609Y-54570386D01*
X48553387Y-54492485D01*
X48553386Y-54492484D01*
X48548045Y-54488604D01*
X48542017Y-54485920D01*
X48542015Y-54485919D01*
X48390577Y-54418495D01*
X48390576Y-54418495D01*
X48384546Y-54415810D01*
X48296945Y-54397190D01*
X48215943Y-54379972D01*
X48215939Y-54379972D01*
X48209486Y-54378600D01*
X48082727Y-54378600D01*
X48014606Y-54358598D01*
X47968113Y-54304942D01*
X47957417Y-54239428D01*
X47958668Y-54227532D01*
X47960090Y-54214000D01*
X47942932Y-54050756D01*
X47942072Y-54042573D01*
X47942072Y-54042572D01*
X47941382Y-54036009D01*
X47886077Y-53865797D01*
X47864999Y-53829288D01*
X47825567Y-53760991D01*
X47796591Y-53710803D01*
X47676836Y-53577801D01*
X47641223Y-53551926D01*
X47537387Y-53476485D01*
X47537386Y-53476484D01*
X47532045Y-53472604D01*
X47526017Y-53469920D01*
X47526015Y-53469919D01*
X47374577Y-53402495D01*
X47374576Y-53402495D01*
X47368546Y-53399810D01*
X47281016Y-53381205D01*
X47199943Y-53363972D01*
X47199939Y-53363972D01*
X47193486Y-53362600D01*
X47014514Y-53362600D01*
X47008061Y-53363972D01*
X47008057Y-53363972D01*
X46926984Y-53381205D01*
X46839454Y-53399810D01*
X46833424Y-53402495D01*
X46833423Y-53402495D01*
X46681985Y-53469919D01*
X46681983Y-53469920D01*
X46675955Y-53472604D01*
X46670614Y-53476484D01*
X46670613Y-53476485D01*
X46543061Y-53569157D01*
X46476193Y-53593016D01*
X46407042Y-53576935D01*
X46394939Y-53569157D01*
X46267387Y-53476485D01*
X46267386Y-53476484D01*
X46262045Y-53472604D01*
X46256017Y-53469920D01*
X46256015Y-53469919D01*
X46104577Y-53402495D01*
X46104576Y-53402495D01*
X46098546Y-53399810D01*
X46011016Y-53381205D01*
X45929943Y-53363972D01*
X45929939Y-53363972D01*
X45923486Y-53362600D01*
X45744514Y-53362600D01*
X45738061Y-53363972D01*
X45738057Y-53363972D01*
X45656984Y-53381205D01*
X45569454Y-53399810D01*
X45563424Y-53402495D01*
X45563423Y-53402495D01*
X45411985Y-53469919D01*
X45411983Y-53469920D01*
X45405955Y-53472604D01*
X45400614Y-53476484D01*
X45400613Y-53476485D01*
X45296778Y-53551926D01*
X45261164Y-53577801D01*
X45141409Y-53710803D01*
X45112433Y-53760991D01*
X45073002Y-53829288D01*
X45051923Y-53865797D01*
X44996618Y-54036009D01*
X44995928Y-54042572D01*
X44995928Y-54042573D01*
X44995068Y-54050756D01*
X44977910Y-54214000D01*
X43511378Y-54214000D01*
X43486873Y-54138580D01*
X43484846Y-54067612D01*
X43521508Y-54006814D01*
X43555457Y-53984537D01*
X43650815Y-53942081D01*
X43650817Y-53942080D01*
X43656845Y-53939396D01*
X43668122Y-53931203D01*
X43796292Y-53838082D01*
X43796294Y-53838080D01*
X43801636Y-53834199D01*
X43865960Y-53762760D01*
X43916972Y-53706105D01*
X43916973Y-53706104D01*
X43921391Y-53701197D01*
X43989632Y-53583000D01*
X44007573Y-53551926D01*
X44007574Y-53551925D01*
X44010877Y-53546203D01*
X44066182Y-53375991D01*
X44067590Y-53362600D01*
X44084200Y-53204565D01*
X44084890Y-53198000D01*
X44066182Y-53020009D01*
X44010877Y-52849797D01*
X43966760Y-52773384D01*
X43924695Y-52700525D01*
X43924693Y-52700522D01*
X43921391Y-52694803D01*
X43878629Y-52647310D01*
X43847912Y-52583303D01*
X43856676Y-52512849D01*
X43878629Y-52478689D01*
X43916971Y-52436106D01*
X43921391Y-52431197D01*
X43926078Y-52423080D01*
X44007573Y-52281926D01*
X44007574Y-52281925D01*
X44010877Y-52276203D01*
X44066182Y-52105991D01*
X44084890Y-51928000D01*
X44066182Y-51750009D01*
X44010877Y-51579797D01*
X43921391Y-51424803D01*
X43801636Y-51291801D01*
X43656845Y-51186604D01*
X43650817Y-51183920D01*
X43650815Y-51183919D01*
X43499377Y-51116495D01*
X43499376Y-51116495D01*
X43493346Y-51113810D01*
X43405816Y-51095205D01*
X43324743Y-51077972D01*
X43324739Y-51077972D01*
X43318286Y-51076600D01*
X43139314Y-51076600D01*
X43132861Y-51077972D01*
X43132857Y-51077972D01*
X43051784Y-51095205D01*
X42964254Y-51113810D01*
X42958224Y-51116495D01*
X42958223Y-51116495D01*
X42806785Y-51183919D01*
X42806783Y-51183920D01*
X42800755Y-51186604D01*
X42655964Y-51291801D01*
X42536209Y-51424803D01*
X42446723Y-51579797D01*
X42391418Y-51750009D01*
X42372710Y-51928000D01*
X42391418Y-52105991D01*
X42446723Y-52276203D01*
X42450026Y-52281925D01*
X42450027Y-52281926D01*
X42531523Y-52423080D01*
X42536209Y-52431197D01*
X42540629Y-52436106D01*
X42578971Y-52478689D01*
X42609688Y-52542697D01*
X42600924Y-52613151D01*
X42578972Y-52647310D01*
X42536209Y-52694803D01*
X42532907Y-52700522D01*
X42532905Y-52700525D01*
X42490840Y-52773384D01*
X42446723Y-52849797D01*
X42391418Y-53020009D01*
X42372710Y-53198000D01*
X42373400Y-53204565D01*
X42390011Y-53362600D01*
X42391418Y-53375991D01*
X42393458Y-53382269D01*
X42393458Y-53382270D01*
X42418187Y-53458379D01*
X42420214Y-53529347D01*
X42383552Y-53590145D01*
X42349603Y-53612422D01*
X42254245Y-53654878D01*
X42254243Y-53654879D01*
X42248215Y-53657563D01*
X42242874Y-53661443D01*
X42242873Y-53661444D01*
X42174937Y-53710803D01*
X42103424Y-53762760D01*
X41983669Y-53895762D01*
X41894183Y-54050756D01*
X41838878Y-54220968D01*
X41820170Y-54398959D01*
X38906223Y-54398959D01*
X38914546Y-54397190D01*
X38925318Y-54392394D01*
X39072015Y-54327081D01*
X39072017Y-54327080D01*
X39078045Y-54324396D01*
X39104821Y-54304942D01*
X39217492Y-54223082D01*
X39217494Y-54223080D01*
X39222836Y-54219199D01*
X39342591Y-54086197D01*
X39432077Y-53931203D01*
X39487382Y-53760991D01*
X39506090Y-53583000D01*
X39494487Y-53472604D01*
X39488072Y-53411573D01*
X39488072Y-53411572D01*
X39487382Y-53405009D01*
X39432077Y-53234797D01*
X39342591Y-53079803D01*
X39288753Y-53020009D01*
X39227258Y-52951712D01*
X39227257Y-52951711D01*
X39222836Y-52946801D01*
X39145041Y-52890279D01*
X39083387Y-52845485D01*
X39083386Y-52845484D01*
X39078045Y-52841604D01*
X39072017Y-52838920D01*
X39072015Y-52838919D01*
X38920577Y-52771495D01*
X38920576Y-52771495D01*
X38914546Y-52768810D01*
X38820171Y-52748750D01*
X38745943Y-52732972D01*
X38745939Y-52732972D01*
X38739486Y-52731600D01*
X38560514Y-52731600D01*
X38554054Y-52732973D01*
X38554055Y-52732973D01*
X38454412Y-52754152D01*
X38383622Y-52748750D01*
X38326989Y-52705933D01*
X38302496Y-52639295D01*
X38317917Y-52569993D01*
X38355944Y-52527693D01*
X38427409Y-52477652D01*
X38495270Y-52430136D01*
X38495273Y-52430134D01*
X38499781Y-52426977D01*
X38656977Y-52269781D01*
X38784488Y-52087676D01*
X38786811Y-52082694D01*
X38786814Y-52082689D01*
X38876117Y-51891178D01*
X38876118Y-51891177D01*
X38878440Y-51886196D01*
X38935978Y-51671463D01*
X38955353Y-51450000D01*
X38935978Y-51228537D01*
X38878440Y-51013804D01*
X38835805Y-50922373D01*
X38786814Y-50817311D01*
X38786811Y-50817306D01*
X38784488Y-50812324D01*
X38656977Y-50630219D01*
X38499781Y-50473023D01*
X38495273Y-50469866D01*
X38495270Y-50469864D01*
X38419505Y-50416813D01*
X38317677Y-50345512D01*
X38312695Y-50343189D01*
X38312690Y-50343186D01*
X38207627Y-50294195D01*
X38154342Y-50247278D01*
X38134881Y-50179001D01*
X38155423Y-50111041D01*
X38207627Y-50065805D01*
X38312690Y-50016814D01*
X38312695Y-50016811D01*
X38317677Y-50014488D01*
X38456754Y-49917105D01*
X38495270Y-49890136D01*
X38495273Y-49890134D01*
X38499781Y-49886977D01*
X38656977Y-49729781D01*
X38756960Y-49586991D01*
X38781331Y-49552185D01*
X38781332Y-49552183D01*
X38784488Y-49547676D01*
X38786811Y-49542694D01*
X38786814Y-49542689D01*
X38849154Y-49409000D01*
X42806910Y-49409000D01*
X42825618Y-49586991D01*
X42880923Y-49757203D01*
X42970409Y-49912197D01*
X43090164Y-50045199D01*
X43095506Y-50049080D01*
X43095508Y-50049082D01*
X43183101Y-50112722D01*
X43234955Y-50150396D01*
X43240983Y-50153080D01*
X43240985Y-50153081D01*
X43332941Y-50194022D01*
X43398454Y-50223190D01*
X43485984Y-50241795D01*
X43567057Y-50259028D01*
X43567061Y-50259028D01*
X43573514Y-50260400D01*
X43752486Y-50260400D01*
X43758939Y-50259028D01*
X43758943Y-50259028D01*
X43840016Y-50241795D01*
X43927546Y-50223190D01*
X43993059Y-50194022D01*
X44085015Y-50153081D01*
X44085017Y-50153080D01*
X44091045Y-50150396D01*
X44142899Y-50112722D01*
X44230492Y-50049082D01*
X44230494Y-50049080D01*
X44235836Y-50045199D01*
X44355591Y-49912197D01*
X44445077Y-49757203D01*
X44500382Y-49586991D01*
X44519090Y-49409000D01*
X44500382Y-49231009D01*
X44445077Y-49060797D01*
X44355591Y-48905803D01*
X44235836Y-48772801D01*
X44091045Y-48667604D01*
X44085017Y-48664920D01*
X44085015Y-48664919D01*
X43933577Y-48597495D01*
X43933576Y-48597495D01*
X43927546Y-48594810D01*
X43840016Y-48576205D01*
X43758943Y-48558972D01*
X43758939Y-48558972D01*
X43752486Y-48557600D01*
X43573514Y-48557600D01*
X43567061Y-48558972D01*
X43567057Y-48558972D01*
X43485984Y-48576205D01*
X43398454Y-48594810D01*
X43392424Y-48597495D01*
X43392423Y-48597495D01*
X43240985Y-48664919D01*
X43240983Y-48664920D01*
X43234955Y-48667604D01*
X43090164Y-48772801D01*
X42970409Y-48905803D01*
X42880923Y-49060797D01*
X42825618Y-49231009D01*
X42806910Y-49409000D01*
X38849154Y-49409000D01*
X38876117Y-49351178D01*
X38876118Y-49351177D01*
X38878440Y-49346196D01*
X38935978Y-49131463D01*
X38955353Y-48910000D01*
X38935978Y-48688537D01*
X38878440Y-48473804D01*
X38835805Y-48382373D01*
X38786814Y-48277311D01*
X38786811Y-48277306D01*
X38784488Y-48272324D01*
X38656977Y-48090219D01*
X38499781Y-47933023D01*
X38495273Y-47929866D01*
X38495270Y-47929864D01*
X38419505Y-47876813D01*
X38317677Y-47805512D01*
X38312695Y-47803189D01*
X38312690Y-47803186D01*
X38207627Y-47754195D01*
X38154342Y-47707278D01*
X38134881Y-47639001D01*
X38155423Y-47571041D01*
X38207627Y-47525805D01*
X38312690Y-47476814D01*
X38312695Y-47476811D01*
X38317677Y-47474488D01*
X38419505Y-47403187D01*
X38495270Y-47350136D01*
X38495273Y-47350134D01*
X38499781Y-47346977D01*
X38656977Y-47189781D01*
X38784488Y-47007676D01*
X38786811Y-47002694D01*
X38786814Y-47002689D01*
X38876117Y-46811178D01*
X38876118Y-46811177D01*
X38878440Y-46806196D01*
X38935978Y-46591463D01*
X38945030Y-46488000D01*
X39885910Y-46488000D01*
X39904618Y-46665991D01*
X39959923Y-46836203D01*
X40049409Y-46991197D01*
X40053827Y-46996104D01*
X40053828Y-46996105D01*
X40164742Y-47119288D01*
X40169164Y-47124199D01*
X40174506Y-47128080D01*
X40174508Y-47128082D01*
X40264793Y-47193678D01*
X40313955Y-47229396D01*
X40319983Y-47232080D01*
X40319985Y-47232081D01*
X40471423Y-47299505D01*
X40477454Y-47302190D01*
X40564984Y-47320795D01*
X40646057Y-47338028D01*
X40646061Y-47338028D01*
X40652514Y-47339400D01*
X40831486Y-47339400D01*
X40837939Y-47338028D01*
X40837943Y-47338028D01*
X40919016Y-47320795D01*
X41006546Y-47302190D01*
X41012577Y-47299505D01*
X41164015Y-47232081D01*
X41164017Y-47232080D01*
X41170045Y-47229396D01*
X41219207Y-47193678D01*
X41309492Y-47128082D01*
X41309494Y-47128080D01*
X41314836Y-47124199D01*
X41319258Y-47119288D01*
X41430172Y-46996105D01*
X41430173Y-46996104D01*
X41434591Y-46991197D01*
X41524077Y-46836203D01*
X41579382Y-46665991D01*
X41598090Y-46488000D01*
X41586263Y-46375475D01*
X41580072Y-46316573D01*
X41580072Y-46316572D01*
X41579382Y-46310009D01*
X41524077Y-46139797D01*
X41434591Y-45984803D01*
X41314836Y-45851801D01*
X41301860Y-45842373D01*
X41175387Y-45750485D01*
X41175386Y-45750484D01*
X41170045Y-45746604D01*
X41164017Y-45743920D01*
X41164015Y-45743919D01*
X41012577Y-45676495D01*
X41012576Y-45676495D01*
X41006546Y-45673810D01*
X40919016Y-45655205D01*
X40837943Y-45637972D01*
X40837939Y-45637972D01*
X40831486Y-45636600D01*
X40652514Y-45636600D01*
X40646061Y-45637972D01*
X40646057Y-45637972D01*
X40564984Y-45655205D01*
X40477454Y-45673810D01*
X40471424Y-45676495D01*
X40471423Y-45676495D01*
X40319985Y-45743919D01*
X40319983Y-45743920D01*
X40313955Y-45746604D01*
X40308614Y-45750484D01*
X40308613Y-45750485D01*
X40182141Y-45842373D01*
X40169164Y-45851801D01*
X40049409Y-45984803D01*
X39959923Y-46139797D01*
X39904618Y-46310009D01*
X39903928Y-46316572D01*
X39903928Y-46316573D01*
X39897737Y-46375475D01*
X39885910Y-46488000D01*
X38945030Y-46488000D01*
X38955353Y-46370000D01*
X38935978Y-46148537D01*
X38878440Y-45933804D01*
X38860148Y-45894577D01*
X38786814Y-45737311D01*
X38786811Y-45737306D01*
X38784488Y-45732324D01*
X38743516Y-45673810D01*
X38660136Y-45554730D01*
X38660134Y-45554727D01*
X38656977Y-45550219D01*
X38499781Y-45393023D01*
X38495273Y-45389866D01*
X38495270Y-45389864D01*
X38419505Y-45336813D01*
X38317677Y-45265512D01*
X38312695Y-45263189D01*
X38312690Y-45263186D01*
X38207627Y-45214195D01*
X38154342Y-45167278D01*
X38134881Y-45099001D01*
X38155423Y-45031041D01*
X38207627Y-44985805D01*
X38312690Y-44936814D01*
X38312695Y-44936811D01*
X38317677Y-44934488D01*
X38419505Y-44863187D01*
X38495270Y-44810136D01*
X38495273Y-44810134D01*
X38499781Y-44806977D01*
X38656977Y-44649781D01*
X38784488Y-44467676D01*
X38786811Y-44462694D01*
X38786814Y-44462689D01*
X38876117Y-44271178D01*
X38876118Y-44271177D01*
X38878440Y-44266196D01*
X38888004Y-44230505D01*
X38934554Y-44056776D01*
X38935978Y-44051463D01*
X38955353Y-43830000D01*
X38935978Y-43608537D01*
X38897503Y-43464949D01*
X38885191Y-43419000D01*
X44088910Y-43419000D01*
X44107618Y-43596991D01*
X44109658Y-43603269D01*
X44109658Y-43603270D01*
X44113150Y-43614016D01*
X44162923Y-43767203D01*
X44252409Y-43922197D01*
X44372164Y-44055199D01*
X44516955Y-44160396D01*
X44522983Y-44163080D01*
X44522985Y-44163081D01*
X44674423Y-44230505D01*
X44680454Y-44233190D01*
X44767984Y-44251795D01*
X44849057Y-44269028D01*
X44849061Y-44269028D01*
X44855514Y-44270400D01*
X45034486Y-44270400D01*
X45040939Y-44269028D01*
X45040943Y-44269028D01*
X45122016Y-44251795D01*
X45209546Y-44233190D01*
X45215577Y-44230505D01*
X45367015Y-44163081D01*
X45367017Y-44163080D01*
X45373045Y-44160396D01*
X45517836Y-44055199D01*
X45637591Y-43922197D01*
X45727077Y-43767203D01*
X45776850Y-43614016D01*
X45780342Y-43603270D01*
X45780342Y-43603269D01*
X45782382Y-43596991D01*
X45801090Y-43419000D01*
X45782382Y-43241009D01*
X45763303Y-43182288D01*
X45729119Y-43077082D01*
X45727077Y-43070797D01*
X45637591Y-42915803D01*
X45627798Y-42904926D01*
X45522258Y-42787712D01*
X45522257Y-42787711D01*
X45517836Y-42782801D01*
X45452416Y-42735270D01*
X45378387Y-42681485D01*
X45378386Y-42681484D01*
X45373045Y-42677604D01*
X45367017Y-42674920D01*
X45367015Y-42674919D01*
X45215577Y-42607495D01*
X45215576Y-42607495D01*
X45209546Y-42604810D01*
X45122016Y-42586205D01*
X45040943Y-42568972D01*
X45040939Y-42568972D01*
X45034486Y-42567600D01*
X44855514Y-42567600D01*
X44849061Y-42568972D01*
X44849057Y-42568972D01*
X44767984Y-42586205D01*
X44680454Y-42604810D01*
X44674424Y-42607495D01*
X44674423Y-42607495D01*
X44522985Y-42674919D01*
X44522983Y-42674920D01*
X44516955Y-42677604D01*
X44511614Y-42681484D01*
X44511613Y-42681485D01*
X44437585Y-42735270D01*
X44372164Y-42782801D01*
X44367743Y-42787711D01*
X44367742Y-42787712D01*
X44262203Y-42904926D01*
X44252409Y-42915803D01*
X44162923Y-43070797D01*
X44160881Y-43077082D01*
X44126698Y-43182288D01*
X44107618Y-43241009D01*
X44088910Y-43419000D01*
X38885191Y-43419000D01*
X38879863Y-43399114D01*
X38879862Y-43399112D01*
X38878440Y-43393804D01*
X38829343Y-43288515D01*
X38786814Y-43197311D01*
X38786811Y-43197306D01*
X38784488Y-43192324D01*
X38781331Y-43187815D01*
X38660136Y-43014730D01*
X38660134Y-43014727D01*
X38656977Y-43010219D01*
X38499781Y-42853023D01*
X38495273Y-42849866D01*
X38495270Y-42849864D01*
X38419505Y-42796813D01*
X38317677Y-42725512D01*
X38312695Y-42723189D01*
X38312690Y-42723186D01*
X38207627Y-42674195D01*
X38154342Y-42627278D01*
X38134881Y-42559001D01*
X38137299Y-42551000D01*
X39377910Y-42551000D01*
X39396618Y-42728991D01*
X39398658Y-42735269D01*
X39398658Y-42735270D01*
X39428989Y-42828620D01*
X39451923Y-42899203D01*
X39541409Y-43054197D01*
X39545827Y-43059104D01*
X39545828Y-43059105D01*
X39656742Y-43182288D01*
X39661164Y-43187199D01*
X39666506Y-43191080D01*
X39666508Y-43191082D01*
X39800613Y-43288515D01*
X39805955Y-43292396D01*
X39811983Y-43295080D01*
X39811985Y-43295081D01*
X39963423Y-43362505D01*
X39969454Y-43365190D01*
X40056984Y-43383795D01*
X40138057Y-43401028D01*
X40138061Y-43401028D01*
X40144514Y-43402400D01*
X40323486Y-43402400D01*
X40329939Y-43401028D01*
X40329943Y-43401028D01*
X40411016Y-43383795D01*
X40498546Y-43365190D01*
X40504577Y-43362505D01*
X40656015Y-43295081D01*
X40656017Y-43295080D01*
X40662045Y-43292396D01*
X40667387Y-43288515D01*
X40801492Y-43191082D01*
X40801494Y-43191080D01*
X40806836Y-43187199D01*
X40811258Y-43182288D01*
X40922172Y-43059105D01*
X40922173Y-43059104D01*
X40926591Y-43054197D01*
X41016077Y-42899203D01*
X41039011Y-42828620D01*
X41069342Y-42735270D01*
X41069342Y-42735269D01*
X41071382Y-42728991D01*
X41090090Y-42551000D01*
X41071382Y-42373009D01*
X41016077Y-42202797D01*
X40926591Y-42047803D01*
X40806836Y-41914801D01*
X40662045Y-41809604D01*
X40656017Y-41806920D01*
X40656015Y-41806919D01*
X40504577Y-41739495D01*
X40504576Y-41739495D01*
X40498546Y-41736810D01*
X40411016Y-41718205D01*
X40329943Y-41700972D01*
X40329939Y-41700972D01*
X40323486Y-41699600D01*
X40144514Y-41699600D01*
X40138061Y-41700972D01*
X40138057Y-41700972D01*
X40056984Y-41718205D01*
X39969454Y-41736810D01*
X39963424Y-41739495D01*
X39963423Y-41739495D01*
X39811985Y-41806919D01*
X39811983Y-41806920D01*
X39805955Y-41809604D01*
X39661164Y-41914801D01*
X39541409Y-42047803D01*
X39451923Y-42202797D01*
X39396618Y-42373009D01*
X39377910Y-42551000D01*
X38137299Y-42551000D01*
X38155423Y-42491041D01*
X38207627Y-42445805D01*
X38312690Y-42396814D01*
X38312695Y-42396811D01*
X38317677Y-42394488D01*
X38419505Y-42323187D01*
X38495270Y-42270136D01*
X38495273Y-42270134D01*
X38499781Y-42266977D01*
X38656977Y-42109781D01*
X38700375Y-42047803D01*
X38781331Y-41932185D01*
X38781332Y-41932183D01*
X38784488Y-41927676D01*
X38786811Y-41922694D01*
X38786814Y-41922689D01*
X38876117Y-41731178D01*
X38876118Y-41731177D01*
X38878440Y-41726196D01*
X38885567Y-41699600D01*
X38934554Y-41516776D01*
X38935978Y-41511463D01*
X38955353Y-41290000D01*
X38935978Y-41068537D01*
X38878440Y-40853804D01*
X38829343Y-40748515D01*
X38786814Y-40657311D01*
X38786811Y-40657306D01*
X38784488Y-40652324D01*
X38781331Y-40647815D01*
X38660136Y-40474730D01*
X38660134Y-40474727D01*
X38656977Y-40470219D01*
X38499781Y-40313023D01*
X38495273Y-40309866D01*
X38495270Y-40309864D01*
X38409365Y-40249713D01*
X38365037Y-40194256D01*
X38357728Y-40123637D01*
X38389759Y-40060276D01*
X38450960Y-40024291D01*
X38481636Y-40020500D01*
X38490134Y-40020500D01*
X38552316Y-40013745D01*
X38559638Y-40011000D01*
X39123910Y-40011000D01*
X39124600Y-40017565D01*
X39124909Y-40020500D01*
X39142618Y-40188991D01*
X39144658Y-40195269D01*
X39144658Y-40195270D01*
X39162348Y-40249713D01*
X39197923Y-40359203D01*
X39287409Y-40514197D01*
X39407164Y-40647199D01*
X39412506Y-40651080D01*
X39412508Y-40651082D01*
X39546613Y-40748515D01*
X39551955Y-40752396D01*
X39557983Y-40755080D01*
X39557985Y-40755081D01*
X39709423Y-40822505D01*
X39715454Y-40825190D01*
X39802984Y-40843795D01*
X39884057Y-40861028D01*
X39884061Y-40861028D01*
X39890514Y-40862400D01*
X40069486Y-40862400D01*
X40075939Y-40861028D01*
X40075943Y-40861028D01*
X40157016Y-40843795D01*
X40244546Y-40825190D01*
X40250577Y-40822505D01*
X40402015Y-40755081D01*
X40402017Y-40755080D01*
X40408045Y-40752396D01*
X40413387Y-40748515D01*
X40547492Y-40651082D01*
X40547494Y-40651080D01*
X40552836Y-40647199D01*
X40672591Y-40514197D01*
X40762077Y-40359203D01*
X40797652Y-40249713D01*
X40815342Y-40195270D01*
X40815342Y-40195269D01*
X40817382Y-40188991D01*
X40835092Y-40020500D01*
X40835400Y-40017565D01*
X40836090Y-40011000D01*
X40817382Y-39833009D01*
X40762077Y-39662797D01*
X40672591Y-39507803D01*
X40646986Y-39479365D01*
X40557258Y-39379712D01*
X40557257Y-39379711D01*
X40552836Y-39374801D01*
X40408045Y-39269604D01*
X40402017Y-39266920D01*
X40402015Y-39266919D01*
X40250577Y-39199495D01*
X40250576Y-39199495D01*
X40244546Y-39196810D01*
X40157016Y-39178205D01*
X40075943Y-39160972D01*
X40075939Y-39160972D01*
X40069486Y-39159600D01*
X39890514Y-39159600D01*
X39884061Y-39160972D01*
X39884057Y-39160972D01*
X39802984Y-39178205D01*
X39715454Y-39196810D01*
X39709424Y-39199495D01*
X39709423Y-39199495D01*
X39557985Y-39266919D01*
X39557983Y-39266920D01*
X39551955Y-39269604D01*
X39407164Y-39374801D01*
X39402743Y-39379711D01*
X39402742Y-39379712D01*
X39313015Y-39479365D01*
X39287409Y-39507803D01*
X39197923Y-39662797D01*
X39142618Y-39833009D01*
X39123910Y-40011000D01*
X38559638Y-40011000D01*
X38688705Y-39962615D01*
X38805261Y-39875261D01*
X38892615Y-39758705D01*
X38943745Y-39622316D01*
X38950500Y-39560134D01*
X38950500Y-37939866D01*
X38943745Y-37877684D01*
X38892615Y-37741295D01*
X38805261Y-37624739D01*
X38688705Y-37537385D01*
X38552316Y-37486255D01*
X38490134Y-37479500D01*
X36869866Y-37479500D01*
X36807684Y-37486255D01*
X36671295Y-37537385D01*
X36554739Y-37624739D01*
X36467385Y-37741295D01*
X36416255Y-37877684D01*
X36409500Y-37939866D01*
X36409500Y-37948364D01*
X36389498Y-38016485D01*
X36335842Y-38062978D01*
X36265568Y-38073082D01*
X36200988Y-38043588D01*
X36180287Y-38020635D01*
X36120136Y-37934730D01*
X36120134Y-37934727D01*
X36116977Y-37930219D01*
X35959781Y-37773023D01*
X35955273Y-37769866D01*
X35955270Y-37769864D01*
X35879505Y-37716813D01*
X35777677Y-37645512D01*
X35772695Y-37643189D01*
X35772690Y-37643186D01*
X35581178Y-37553883D01*
X35581177Y-37553882D01*
X35576196Y-37551560D01*
X35570888Y-37550138D01*
X35570886Y-37550137D01*
X35505051Y-37532497D01*
X35361463Y-37494022D01*
X35140000Y-37474647D01*
X34918537Y-37494022D01*
X34774949Y-37532497D01*
X34709114Y-37550137D01*
X34709112Y-37550138D01*
X34703804Y-37551560D01*
X34698823Y-37553882D01*
X34698822Y-37553883D01*
X34507311Y-37643186D01*
X34507306Y-37643189D01*
X34502324Y-37645512D01*
X34497817Y-37648668D01*
X34497815Y-37648669D01*
X34324730Y-37769864D01*
X34324727Y-37769866D01*
X34320219Y-37773023D01*
X34163023Y-37930219D01*
X34159866Y-37934727D01*
X34159864Y-37934730D01*
X34102619Y-38016485D01*
X34035512Y-38112324D01*
X34033189Y-38117306D01*
X34033186Y-38117311D01*
X33943883Y-38308822D01*
X33941560Y-38313804D01*
X33884022Y-38528537D01*
X33864647Y-38750000D01*
X33884022Y-38971463D01*
X33885446Y-38976776D01*
X33934434Y-39159600D01*
X33941560Y-39186196D01*
X33943882Y-39191177D01*
X33943883Y-39191178D01*
X34033186Y-39382689D01*
X34033189Y-39382694D01*
X34035512Y-39387676D01*
X34038668Y-39392183D01*
X34038669Y-39392185D01*
X34158647Y-39563531D01*
X34163023Y-39569781D01*
X34320219Y-39726977D01*
X34324727Y-39730134D01*
X34324730Y-39730136D01*
X34353523Y-39750297D01*
X34502323Y-39854488D01*
X34507305Y-39856811D01*
X34507310Y-39856814D01*
X34612373Y-39905805D01*
X34665658Y-39952722D01*
X34685119Y-40020999D01*
X34664577Y-40088959D01*
X34612373Y-40134195D01*
X34507311Y-40183186D01*
X34507306Y-40183189D01*
X34502324Y-40185512D01*
X34497817Y-40188668D01*
X34497815Y-40188669D01*
X34324730Y-40309864D01*
X34324727Y-40309866D01*
X34320219Y-40313023D01*
X34163023Y-40470219D01*
X34159866Y-40474727D01*
X34159864Y-40474730D01*
X34038669Y-40647815D01*
X34035512Y-40652324D01*
X34033189Y-40657306D01*
X34033186Y-40657311D01*
X33990657Y-40748515D01*
X33941560Y-40853804D01*
X33884022Y-41068537D01*
X33864647Y-41290000D01*
X33884022Y-41511463D01*
X33885446Y-41516776D01*
X33934434Y-41699600D01*
X33941560Y-41726196D01*
X33943882Y-41731177D01*
X33943883Y-41731178D01*
X34033186Y-41922689D01*
X34033189Y-41922694D01*
X34035512Y-41927676D01*
X34038668Y-41932183D01*
X34038669Y-41932185D01*
X34119626Y-42047803D01*
X34163023Y-42109781D01*
X34320219Y-42266977D01*
X34324727Y-42270134D01*
X34324730Y-42270136D01*
X34400495Y-42323187D01*
X34502323Y-42394488D01*
X34507305Y-42396811D01*
X34507310Y-42396814D01*
X34612373Y-42445805D01*
X34665658Y-42492722D01*
X34685119Y-42560999D01*
X34664577Y-42628959D01*
X34612373Y-42674195D01*
X34507311Y-42723186D01*
X34507306Y-42723189D01*
X34502324Y-42725512D01*
X34497817Y-42728668D01*
X34497815Y-42728669D01*
X34324730Y-42849864D01*
X34324727Y-42849866D01*
X34320219Y-42853023D01*
X34163023Y-43010219D01*
X34159866Y-43014727D01*
X34159864Y-43014730D01*
X34038669Y-43187815D01*
X34035512Y-43192324D01*
X34033189Y-43197306D01*
X34033186Y-43197311D01*
X33990657Y-43288515D01*
X33941560Y-43393804D01*
X33940138Y-43399112D01*
X33940137Y-43399114D01*
X33922497Y-43464949D01*
X33884022Y-43608537D01*
X33864647Y-43830000D01*
X33884022Y-44051463D01*
X33885446Y-44056776D01*
X33931997Y-44230505D01*
X33941560Y-44266196D01*
X33943882Y-44271177D01*
X33943883Y-44271178D01*
X34033186Y-44462689D01*
X34033189Y-44462694D01*
X34035512Y-44467676D01*
X34163023Y-44649781D01*
X34320219Y-44806977D01*
X34324727Y-44810134D01*
X34324730Y-44810136D01*
X34400495Y-44863187D01*
X34502323Y-44934488D01*
X34507305Y-44936811D01*
X34507310Y-44936814D01*
X34612373Y-44985805D01*
X34665658Y-45032722D01*
X34685119Y-45100999D01*
X34664577Y-45168959D01*
X34612373Y-45214195D01*
X34507311Y-45263186D01*
X34507306Y-45263189D01*
X34502324Y-45265512D01*
X34497817Y-45268668D01*
X34497815Y-45268669D01*
X34324730Y-45389864D01*
X34324727Y-45389866D01*
X34320219Y-45393023D01*
X34163023Y-45550219D01*
X34159866Y-45554727D01*
X34159864Y-45554730D01*
X34076484Y-45673810D01*
X34035512Y-45732324D01*
X34033189Y-45737306D01*
X34033186Y-45737311D01*
X33959852Y-45894577D01*
X33941560Y-45933804D01*
X33884022Y-46148537D01*
X33864647Y-46370000D01*
X33884022Y-46591463D01*
X33941560Y-46806196D01*
X33943882Y-46811177D01*
X33943883Y-46811178D01*
X34033186Y-47002689D01*
X34033189Y-47002694D01*
X34035512Y-47007676D01*
X34163023Y-47189781D01*
X34320219Y-47346977D01*
X34324727Y-47350134D01*
X34324730Y-47350136D01*
X34400495Y-47403187D01*
X34502323Y-47474488D01*
X34507305Y-47476811D01*
X34507310Y-47476814D01*
X34612373Y-47525805D01*
X34665658Y-47572722D01*
X34685119Y-47640999D01*
X34664577Y-47708959D01*
X34612373Y-47754195D01*
X34507311Y-47803186D01*
X34507306Y-47803189D01*
X34502324Y-47805512D01*
X34497817Y-47808668D01*
X34497815Y-47808669D01*
X34324730Y-47929864D01*
X34324727Y-47929866D01*
X34320219Y-47933023D01*
X34163023Y-48090219D01*
X34035512Y-48272324D01*
X34033189Y-48277306D01*
X34033186Y-48277311D01*
X33984195Y-48382373D01*
X33941560Y-48473804D01*
X33884022Y-48688537D01*
X33864647Y-48910000D01*
X33884022Y-49131463D01*
X33941560Y-49346196D01*
X33943882Y-49351177D01*
X33943883Y-49351178D01*
X34033186Y-49542689D01*
X34033189Y-49542694D01*
X34035512Y-49547676D01*
X34038668Y-49552183D01*
X34038669Y-49552185D01*
X34063041Y-49586991D01*
X34163023Y-49729781D01*
X34320219Y-49886977D01*
X34324727Y-49890134D01*
X34324730Y-49890136D01*
X34363246Y-49917105D01*
X34502323Y-50014488D01*
X34507305Y-50016811D01*
X34507310Y-50016814D01*
X34612373Y-50065805D01*
X34665658Y-50112722D01*
X34685119Y-50180999D01*
X34664577Y-50248959D01*
X34612373Y-50294195D01*
X34507311Y-50343186D01*
X34507306Y-50343189D01*
X34502324Y-50345512D01*
X34497817Y-50348668D01*
X34497815Y-50348669D01*
X34324730Y-50469864D01*
X34324727Y-50469866D01*
X34320219Y-50473023D01*
X34163023Y-50630219D01*
X34035512Y-50812324D01*
X34033189Y-50817306D01*
X34033186Y-50817311D01*
X33984195Y-50922373D01*
X33941560Y-51013804D01*
X33884022Y-51228537D01*
X33864647Y-51450000D01*
X33508500Y-51450000D01*
X33508500Y-36750801D01*
X33528502Y-36682680D01*
X33582158Y-36636187D01*
X33652432Y-36626083D01*
X33717012Y-36655577D01*
X33743619Y-36687801D01*
X33826409Y-36831197D01*
X33830827Y-36836104D01*
X33830828Y-36836105D01*
X33928950Y-36945081D01*
X33946164Y-36964199D01*
X33951506Y-36968080D01*
X33951508Y-36968082D01*
X34067562Y-37052400D01*
X34090955Y-37069396D01*
X34096983Y-37072080D01*
X34096985Y-37072081D01*
X34248423Y-37139505D01*
X34254454Y-37142190D01*
X34341984Y-37160795D01*
X34423057Y-37178028D01*
X34423061Y-37178028D01*
X34429514Y-37179400D01*
X34608486Y-37179400D01*
X34614939Y-37178028D01*
X34614943Y-37178028D01*
X34696016Y-37160795D01*
X34783546Y-37142190D01*
X34789577Y-37139505D01*
X34941015Y-37072081D01*
X34941017Y-37072080D01*
X34947045Y-37069396D01*
X34970438Y-37052400D01*
X35086492Y-36968082D01*
X35086494Y-36968080D01*
X35091836Y-36964199D01*
X35109050Y-36945081D01*
X35207172Y-36836105D01*
X35207173Y-36836104D01*
X35211591Y-36831197D01*
X35294381Y-36687801D01*
X35297773Y-36681926D01*
X35297774Y-36681925D01*
X35301077Y-36676203D01*
X35356382Y-36505991D01*
X35375090Y-36328000D01*
X35362432Y-36207565D01*
X35357072Y-36156573D01*
X35357072Y-36156572D01*
X35356382Y-36150009D01*
X35301077Y-35979797D01*
X35211591Y-35824803D01*
X35116155Y-35718810D01*
X35085437Y-35654803D01*
X35094202Y-35584349D01*
X35139665Y-35529818D01*
X35209791Y-35508500D01*
X38543510Y-35508500D01*
X38611631Y-35528502D01*
G37*
%TD.AperFunction*%
%TD*%
M02*
